<?xml version="1.0" encoding="UTF-8"?>
<svg xmlns="http://www.w3.org/2000/svg" xmlns:xlink="http://www.w3.org/1999/xlink" viewBox="0 0 175 176" width="175" height="176"><g transform="matrix(1 0 0 1 0 0)"><path d="M174.9 83.97L151.63 83.97C151.63 83.68 151.59 83.38 151.54 83.1C151.49 82.53 151.45 81.96 151.38 81.39C151.34 80.89 151.29 80.36 151.2 79.88C150.99 78.26 150.72 76.68 150.38 75.1C150.29 74.67 150.22 74.23 150.09 73.82C149.59 71.61 148.95 69.43 148.2 67.31C147.9 66.37 147.54 65.43 147.16 64.52C146.79 63.53 146.38 62.57 145.93 61.64C145.59 60.86 145.22 60.11 144.84 59.35C144.29 58.25 143.7 57.16 143.07 56.08C142.57 55.19 142.02 54.28 141.45 53.43C141.18 53 140.91 52.56 140.59 52.15C140.29 51.71 140 51.28 139.73 50.89C139.43 50.46 139.14 50.05 138.82 49.66C138.23 48.81 137.57 48.03 136.91 47.23C136.57 46.82 136.25 46.43 135.89 46.04C135.61 45.72 135.36 45.38 135.02 45.08C134.64 44.63 134.2 44.19 133.8 43.76C133.46 43.37 133.09 43 132.73 42.66C132.36 42.3 132 41.95 131.64 41.59C131.25 41.22 130.89 40.88 130.5 40.54C129.34 39.48 128.16 38.48 126.98 37.54C126.57 37.22 126.16 36.88 125.73 36.6C124.89 35.94 124.07 35.37 123.21 34.8C122.3 34.16 121.35 33.56 120.39 32.99C120.03 32.74 119.66 32.51 119.28 32.33C117.82 31.48 116.32 30.7 114.8 29.95C114.46 29.79 114.12 29.63 113.76 29.47C113.76 29.47 113.74 29.47 113.71 29.47C113.03 29.17 112.33 28.85 111.64 28.58C111.37 28.49 111.14 28.37 110.87 28.28C110.24 28.03 109.62 27.8 108.96 27.55C108.05 27.25 107.15 26.91 106.21 26.66C105.83 26.54 105.44 26.41 105.06 26.31C105.01 26.31 104.96 26.27 104.92 26.27C104.26 26.06 103.58 25.88 102.9 25.72C101.78 25.42 100.67 25.19 99.53 24.99C98.65 24.81 97.72 24.65 96.79 24.51C95.76 24.35 94.74 24.21 93.7 24.12C92.7 24.03 91.7 23.96 90.72 23.89L90.61 23.89C89.56 23.82 88.49 23.8 87.45 23.8C86.4 23.8 85.33 23.8 84.29 23.89L84.18 23.89C83.18 23.96 82.18 24.01 81.2 24.12C80.15 24.21 79.13 24.35 78.11 24.51C77.18 24.62 76.27 24.81 75.36 24.99C74.23 25.19 73.11 25.45 72 25.72C71.32 25.88 70.64 26.06 69.98 26.27C69.91 26.27 69.89 26.27 69.84 26.31C69.45 26.41 69.07 26.54 68.68 26.66C67.77 26.93 66.86 27.25 65.93 27.55C65.27 27.8 64.66 28.03 64.02 28.28C63.75 28.37 63.52 28.49 63.25 28.58C62.57 28.88 61.87 29.17 61.18 29.47C61.18 29.47 61.17 29.47 61.14 29.47C60.82 29.61 60.48 29.77 60.18 29.93C58.62 30.66 57.09 31.46 55.62 32.33C55.3 32.49 54.98 32.67 54.69 32.88C53.53 33.56 52.37 34.32 51.26 35.07C50.6 35.53 49.94 35.99 49.28 36.51C49.21 36.56 49.17 36.6 49.07 36.65C48.69 36.92 48.32 37.2 47.94 37.52C46.71 38.45 45.55 39.46 44.42 40.51C44.03 40.83 43.64 41.18 43.28 41.56C42.92 41.95 42.55 42.27 42.19 42.64C41.83 42.98 41.46 43.35 41.12 43.74C40.05 44.83 39.03 46 38.03 47.21C37.69 47.6 37.37 48.01 37.06 48.42C36.76 48.81 36.42 49.22 36.12 49.66C35.81 50.07 35.49 50.48 35.22 50.89C34.51 51.87 33.81 52.9 33.17 53.93C32.81 54.5 32.44 55.1 32.1 55.72C31.78 56.26 31.44 56.81 31.15 57.38C30.81 58.05 30.44 58.69 30.1 59.37C29.72 60.13 29.35 60.88 29.01 61.66C28.65 62.44 28.31 63.24 27.97 64.04C27.67 64.79 27.35 65.55 27.08 66.32C26.79 67.17 26.49 67.99 26.22 68.86C26.22 68.91 26.22 68.95 26.17 68.98C25.88 69.84 25.65 70.74 25.4 71.63C25.2 72.36 25.01 73.09 24.86 73.82C24.74 74.26 24.65 74.69 24.56 75.1C24.51 75.24 24.49 75.38 24.47 75.49C24.31 76.25 24.17 77.02 24.04 77.78C23.92 78.46 23.81 79.17 23.74 79.88C23.65 80.36 23.61 80.89 23.56 81.39C23.49 81.96 23.45 82.53 23.4 83.1C23.36 83.4 23.33 83.7 23.31 83.97L0 83.97C2.11 37.31 40.53 0 87.45 0C134.36 0 172.78 37.31 174.9 83.97Z" fill="#000000" fill-rule="nonzero" /></g><g transform="matrix(1 0 0 1 0 0)"><path d="M83.38 92.1L83.38 113L3.5 113C1.5 106.21 0.34 99.19 0 92.1L83.38 92.1Z" fill="#000000" fill-rule="nonzero" /></g><g transform="matrix(1 0 0 1 0 0)"><path d="M83.38 121.16L83.38 144.89L20.67 144.89C14.63 137.73 9.83 129.78 6.33 121.16L83.38 121.16Z" fill="#000000" fill-rule="nonzero" /></g><g transform="matrix(1 0 0 1 0 0)"><path d="M83.44 153.09L83.44 176C63.03 175.04 43.63 166.9 28.55 153.09L83.44 153.09Z" fill="#000000" fill-rule="nonzero" /></g><g transform="matrix(1 0 0 1 0 0)"><path d="M111.94 92.1L111.94 172.58C105.28 174.52 98.44 175.67 91.52 175.96L91.52 92.1L111.94 92.1Z" fill="#000000" fill-rule="nonzero" /></g><g transform="matrix(1 0 0 1 0 0)"><path d="M143.67 155.48C136.51 161.51 128.63 166.29 120.09 169.75L120.09 92.1L143.67 92.1L143.67 155.48Z" fill="#000000" fill-rule="nonzero" /></g><g transform="matrix(1 0 0 1 0 0)"><path d="M174.89 92.1C173.93 112.82 165.71 132.5 151.76 147.68L151.76 92.1L174.89 92.1Z" fill="#000000" fill-rule="nonzero" /></g><g transform="matrix(1 0 0 1 0 0)"><path d="M143.5 83.95L119.78 83.95C119.71 83.47 119.65 82.94 119.53 82.46C119.44 81.98 119.35 81.5 119.24 81.02C119.15 80.54 119.01 80.04 118.87 79.58C118.21 77.2 117.28 74.94 116.12 72.81C116.03 72.61 115.9 72.38 115.76 72.17C115.67 71.97 115.53 71.74 115.4 71.53C115.15 71.1 114.92 70.69 114.62 70.3C114.35 69.86 114.08 69.45 113.76 69.06C113.51 68.72 113.26 68.38 112.99 68.04C112.81 67.78 112.6 67.56 112.4 67.33C112.13 66.98 111.85 66.66 111.53 66.34C111.33 66.09 111.13 65.86 110.88 65.66C110.58 65.36 110.31 65.04 109.99 64.77C109.65 64.42 109.31 64.1 108.94 63.78C106.06 61.2 102.72 59.17 99.06 57.77C98.63 57.61 98.2 57.45 97.77 57.29C97.38 57.15 96.99 57.02 96.61 56.92C96.06 56.76 95.49 56.6 94.93 56.47C94.45 56.35 93.97 56.24 93.5 56.17C93.02 56.08 92.52 55.99 92.02 55.92C90.54 55.69 89.04 55.6 87.5 55.6C85.95 55.6 84.45 55.69 82.98 55.92C82.48 55.99 81.98 56.06 81.5 56.17C81.04 56.26 80.61 56.35 80.16 56.47C79.52 56.6 78.91 56.76 78.34 56.95C77.95 57.04 77.59 57.18 77.23 57.29C76.8 57.43 76.39 57.59 75.98 57.75C74 58.5 72.14 59.44 70.37 60.54C69.89 60.83 69.43 61.15 68.96 61.47C67.91 62.16 66.96 62.94 66 63.78C65.64 64.1 65.3 64.45 64.96 64.77C64.66 65.06 64.35 65.36 64.1 65.66C63.75 65.98 63.44 66.32 63.14 66.69C61.55 68.47 60.17 70.44 59.01 72.54C58.85 72.84 58.69 73.18 58.53 73.48C58.33 73.87 58.12 74.25 57.96 74.64C57.69 75.17 57.46 75.72 57.26 76.29C57.01 76.88 56.78 77.5 56.6 78.12C56.44 78.6 56.3 79.03 56.17 79.54C55.87 80.5 55.67 81.46 55.51 82.44C55.42 82.92 55.33 83.44 55.26 83.93L31.54 83.93C31.54 83.72 31.54 83.51 31.58 83.33C31.58 83.12 31.58 82.94 31.65 82.74C31.65 82.46 31.7 82.21 31.74 81.94C31.79 81.43 31.83 80.91 31.95 80.4C32.02 79.86 32.08 79.31 32.2 78.78C32.31 78 32.47 77.25 32.65 76.49C32.74 75.95 32.88 75.4 33.02 74.87C33.11 74.41 33.24 73.98 33.36 73.55C33.42 73.27 33.49 73.02 33.58 72.75C33.74 72.13 33.92 71.53 34.13 70.94C34.2 70.73 34.24 70.53 34.36 70.3C34.56 69.64 34.81 68.97 35.04 68.31C35.67 66.69 36.36 65.06 37.1 63.51C38.26 61.15 39.56 58.91 41.01 56.76C41.69 55.74 42.44 54.75 43.22 53.77C43.58 53.29 43.97 52.79 44.38 52.31C45.51 50.91 46.74 49.59 48.01 48.33C48.62 47.71 49.26 47.12 49.87 46.55C50.42 46.02 50.99 45.52 51.58 45.04C51.92 44.74 52.24 44.49 52.6 44.21C53.01 43.87 53.44 43.55 53.85 43.21C54.46 42.73 55.1 42.29 55.71 41.86C56.19 41.52 56.64 41.2 57.14 40.9C57.42 40.72 57.67 40.53 57.94 40.4C58.37 40.1 58.8 39.85 59.26 39.59C59.55 39.41 59.85 39.23 60.12 39.09C60.6 38.79 61.1 38.54 61.6 38.29C62.03 38.04 62.46 37.81 62.89 37.63C63.12 37.49 63.37 37.38 63.6 37.29C64.07 37.03 64.55 36.81 65.03 36.62C65.46 36.44 65.89 36.26 66.3 36.07C66.73 35.91 67.16 35.73 67.57 35.57C67.94 35.43 68.28 35.3 68.64 35.18C69.34 34.91 70.07 34.68 70.82 34.45C70.87 34.45 70.91 34.41 70.93 34.41C71.8 34.11 72.68 33.88 73.57 33.65C74.34 33.44 75.14 33.26 75.93 33.1C76.07 33.06 76.23 33.01 76.41 33.01C77.09 32.87 77.82 32.71 78.52 32.62C79.7 32.42 80.89 32.28 82.07 32.14C83.88 31.96 85.68 31.87 87.52 31.87C89.36 31.87 91.18 31.96 92.97 32.14C94.18 32.26 95.36 32.42 96.52 32.62C97.22 32.71 97.95 32.87 98.63 33.01C98.81 33.06 98.99 33.08 99.15 33.12C99.92 33.26 100.67 33.44 101.42 33.63C101.49 33.63 101.52 33.67 101.58 33.7C102.42 33.9 103.24 34.15 104.08 34.41C104.15 34.41 104.17 34.41 104.24 34.45C104.9 34.66 105.56 34.89 106.24 35.11C106.81 35.32 107.38 35.53 107.92 35.75C108.13 35.85 108.33 35.91 108.54 36.01C109.17 36.26 109.78 36.51 110.35 36.81C110.63 36.9 110.85 37.01 111.1 37.15C111.67 37.4 112.22 37.65 112.74 37.95C112.9 38.02 113.06 38.09 113.22 38.2C113.92 38.54 114.62 38.93 115.31 39.34C115.35 39.34 115.37 39.34 115.4 39.41C116.12 39.82 116.83 40.26 117.56 40.72C118.19 41.1 118.8 41.52 119.4 41.95C120.01 42.36 120.6 42.82 121.19 43.25C121.78 43.69 122.35 44.12 122.89 44.6C122.99 44.67 123.1 44.74 123.19 44.85C123.78 45.33 124.35 45.81 124.92 46.34C125.01 46.41 125.12 46.5 125.21 46.61C125.85 47.19 126.46 47.78 127.07 48.4C128.35 49.65 129.57 50.98 130.71 52.37C131.3 53.06 131.85 53.79 132.37 54.5C132.91 55.21 133.44 55.94 133.96 56.7C134 56.74 134.03 56.79 134.05 56.83C135.53 59.03 136.84 61.31 138 63.74C138.41 64.56 138.8 65.36 139.14 66.23C139.5 67.08 139.84 67.92 140.16 68.79C140.46 69.54 140.71 70.3 140.96 71.05C141.09 71.44 141.23 71.83 141.32 72.24C141.5 72.84 141.66 73.45 141.82 74.05C142.05 74.89 142.25 75.72 142.43 76.59C142.59 77.32 142.73 78.07 142.86 78.83C142.96 79.35 143.05 79.9 143.11 80.45C143.21 80.95 143.27 81.48 143.32 81.98C143.36 82.26 143.41 82.51 143.41 82.78C143.41 82.99 143.48 83.17 143.48 83.38C143.48 83.56 143.52 83.77 143.52 83.97L143.5 83.95Z" fill="#000000" fill-rule="nonzero" /></g><g transform="matrix(1 0 0 1 0 0)"><path d="M111.51 84L63.37 84C63.44 83.63 63.51 83.29 63.6 82.95C63.69 82.6 63.76 82.26 63.87 81.9C63.98 81.53 64.08 81.21 64.17 80.84C64.39 80.18 64.64 79.49 64.92 78.83C65.21 78.17 65.51 77.55 65.82 76.93C66.67 75.33 67.64 73.87 68.82 72.5C69.01 72.25 69.23 72.02 69.46 71.79C70.14 71.01 70.89 70.28 71.71 69.6C71.98 69.37 72.23 69.14 72.53 68.93C73 68.57 73.5 68.2 74 67.86C74.66 67.42 75.34 67.01 76.03 66.65C76.43 66.42 76.87 66.21 77.28 66.01C77.32 66.01 77.37 65.96 77.39 65.96C77.87 65.71 78.39 65.5 78.89 65.32C78.96 65.32 79 65.25 79.07 65.25C79.43 65.11 79.8 64.98 80.18 64.86C80.57 64.75 80.96 64.63 81.34 64.54C81.71 64.45 82.09 64.36 82.46 64.27C82.5 64.27 82.55 64.27 82.55 64.27C82.93 64.18 83.3 64.13 83.68 64.06C84.16 63.97 84.66 63.93 85.16 63.88C85.89 63.81 86.61 63.79 87.36 63.79C88.11 63.79 88.84 63.83 89.57 63.88C90.07 63.93 90.57 63.97 91.04 64.06C91.43 64.13 91.79 64.18 92.18 64.27C92.18 64.27 92.25 64.27 92.27 64.27C92.63 64.36 93.02 64.43 93.38 64.54C93.77 64.63 94.16 64.75 94.54 64.86C94.93 64.98 95.29 65.11 95.66 65.25C95.72 65.25 95.77 65.3 95.84 65.32C96.38 65.53 96.88 65.75 97.41 65.98C97.97 66.23 98.54 66.51 99.09 66.85C99.38 66.99 99.63 67.15 99.9 67.33C100.25 67.54 100.56 67.74 100.9 67.97C101.34 68.25 101.74 68.54 102.15 68.86C102.27 68.96 102.38 69.02 102.49 69.14C102.9 69.44 103.29 69.78 103.68 70.14C103.93 70.35 104.15 70.58 104.38 70.81C104.83 71.24 105.24 71.7 105.68 72.18C105.99 72.54 106.33 72.93 106.63 73.34C106.99 73.8 107.31 74.26 107.65 74.74C107.95 75.17 108.2 75.61 108.47 76.02C109.22 77.3 109.86 78.67 110.38 80.09C110.45 80.27 110.51 80.48 110.58 80.66C110.7 81.07 110.83 81.48 110.95 81.9C111.04 82.24 111.13 82.58 111.22 82.95C111.31 83.31 111.38 83.63 111.45 84L111.51 84Z" fill="#000000" fill-rule="nonzero" /></g><g transform="matrix(1 0 0 1 0 0)"><path d="M174.9 83.97L151.63 83.97C151.63 83.68 151.59 83.38 151.54 83.1C151.49 82.53 151.45 81.96 151.38 81.39C151.34 80.89 151.29 80.36 151.2 79.88C150.99 78.26 150.72 76.68 150.38 75.1C150.29 74.67 150.22 74.23 150.09 73.82C149.59 71.61 148.95 69.43 148.2 67.31C147.9 66.37 147.54 65.43 147.16 64.52C146.79 63.53 146.38 62.57 145.93 61.64C145.59 60.86 145.22 60.11 144.84 59.35C144.29 58.25 143.7 57.16 143.07 56.08C142.57 55.19 142.02 54.28 141.45 53.43C141.18 53 140.91 52.56 140.59 52.15C140.29 51.71 140 51.28 139.73 50.89C139.43 50.46 139.14 50.05 138.82 49.66C138.23 48.81 137.57 48.03 136.91 47.23C136.57 46.82 136.25 46.43 135.89 46.04C135.61 45.72 135.36 45.38 135.02 45.08C134.64 44.63 134.2 44.19 133.8 43.76C133.46 43.37 133.09 43 132.73 42.66C132.36 42.3 132 41.95 131.64 41.59C131.25 41.22 130.89 40.88 130.5 40.54C129.34 39.48 128.16 38.48 126.98 37.54C126.57 37.22 126.16 36.88 125.73 36.6C124.89 35.94 124.07 35.37 123.21 34.8C122.3 34.16 121.35 33.56 120.39 32.99C120.03 32.74 119.66 32.51 119.28 32.33C117.82 31.48 116.32 30.7 114.8 29.95C114.46 29.79 114.12 29.63 113.76 29.47C113.76 29.47 113.74 29.47 113.71 29.47C113.03 29.17 112.33 28.85 111.64 28.58C111.37 28.49 111.14 28.37 110.87 28.28C110.24 28.03 109.62 27.8 108.96 27.55C108.05 27.25 107.15 26.91 106.21 26.66C105.83 26.54 105.44 26.41 105.06 26.31C105.01 26.31 104.96 26.27 104.92 26.27C104.26 26.06 103.58 25.88 102.9 25.72C101.78 25.42 100.67 25.19 99.53 24.99C98.65 24.81 97.72 24.65 96.79 24.51C95.76 24.35 94.74 24.21 93.7 24.12C92.7 24.03 91.7 23.96 90.72 23.89L90.61 23.89C89.56 23.82 88.49 23.8 87.45 23.8C86.4 23.8 85.33 23.8 84.29 23.89L84.18 23.89C83.18 23.96 82.18 24.01 81.2 24.12C80.15 24.21 79.13 24.35 78.11 24.51C77.18 24.62 76.27 24.81 75.36 24.99C74.23 25.19 73.11 25.45 72 25.72C71.32 25.88 70.64 26.06 69.98 26.27C69.91 26.27 69.89 26.27 69.84 26.31C69.45 26.41 69.07 26.54 68.68 26.66C67.77 26.93 66.86 27.25 65.93 27.55C65.27 27.8 64.66 28.03 64.02 28.28C63.75 28.37 63.52 28.49 63.25 28.58C62.57 28.88 61.87 29.17 61.18 29.47C61.18 29.47 61.17 29.47 61.14 29.47C60.82 29.61 60.48 29.77 60.18 29.93C58.62 30.66 57.09 31.46 55.62 32.33C55.3 32.49 54.98 32.67 54.69 32.88C53.53 33.56 52.37 34.32 51.26 35.07C50.6 35.53 49.94 35.99 49.28 36.51C49.21 36.56 49.17 36.6 49.07 36.65C48.69 36.92 48.32 37.2 47.94 37.52C46.71 38.45 45.55 39.46 44.42 40.51C44.03 40.83 43.64 41.18 43.28 41.56C42.92 41.95 42.55 42.27 42.19 42.64C41.83 42.98 41.46 43.35 41.12 43.74C40.05 44.83 39.03 46 38.03 47.21C37.69 47.6 37.37 48.01 37.06 48.42C36.76 48.81 36.42 49.22 36.12 49.66C35.81 50.07 35.49 50.48 35.22 50.89C34.51 51.87 33.81 52.9 33.17 53.93C32.81 54.5 32.44 55.1 32.1 55.72C31.78 56.26 31.44 56.81 31.15 57.38C30.81 58.05 30.44 58.69 30.1 59.37C29.72 60.13 29.35 60.88 29.01 61.66C28.65 62.44 28.31 63.24 27.97 64.04C27.67 64.79 27.35 65.55 27.08 66.32C26.79 67.17 26.49 67.99 26.22 68.86C26.22 68.91 26.22 68.95 26.17 68.98C25.88 69.84 25.65 70.74 25.4 71.63C25.2 72.36 25.01 73.09 24.86 73.82C24.74 74.26 24.65 74.69 24.56 75.1C24.51 75.24 24.49 75.38 24.47 75.49C24.31 76.25 24.17 77.02 24.04 77.78C23.92 78.46 23.81 79.17 23.74 79.88C23.65 80.36 23.61 80.89 23.56 81.39C23.49 81.96 23.45 82.53 23.4 83.1C23.36 83.4 23.33 83.7 23.31 83.97L0 83.97C2.11 37.31 40.53 0 87.45 0C134.36 0 172.78 37.31 174.9 83.97Z" fill="#000000" fill-rule="nonzero" /></g><g transform="matrix(1 0 0 1 0 0)"><path d="M83.38 92.1L83.38 113L3.5 113C1.5 106.21 0.34 99.19 0 92.1L83.38 92.1Z" fill="#000000" fill-rule="nonzero" /></g><g transform="matrix(1 0 0 1 0 0)"><path d="M83.38 121.16L83.38 144.89L20.67 144.89C14.63 137.73 9.83 129.78 6.33 121.16L83.38 121.16Z" fill="#000000" fill-rule="nonzero" /></g><g transform="matrix(1 0 0 1 0 0)"><path d="M83.44 153.09L83.44 176C63.03 175.04 43.63 166.9 28.55 153.09L83.44 153.09Z" fill="#000000" fill-rule="nonzero" /></g><g transform="matrix(1 0 0 1 0 0)"><path d="M111.94 92.1L111.94 172.58C105.28 174.52 98.44 175.67 91.52 175.96L91.52 92.1L111.94 92.1Z" fill="#000000" fill-rule="nonzero" /></g><g transform="matrix(1 0 0 1 0 0)"><path d="M143.67 155.48C136.51 161.51 128.63 166.29 120.09 169.75L120.09 92.1L143.67 92.1L143.67 155.48Z" fill="#000000" fill-rule="nonzero" /></g><g transform="matrix(1 0 0 1 0 0)"><path d="M174.89 92.1C173.93 112.82 165.71 132.5 151.76 147.68L151.76 92.1L174.89 92.1Z" fill="#000000" fill-rule="nonzero" /></g><g transform="matrix(1 0 0 1 0 0)"><path d="M143.5 83.95L119.78 83.95C119.71 83.47 119.65 82.94 119.53 82.46C119.44 81.98 119.35 81.5 119.24 81.02C119.15 80.54 119.01 80.04 118.87 79.58C118.21 77.2 117.28 74.94 116.12 72.81C116.03 72.61 115.9 72.38 115.76 72.17C115.67 71.97 115.53 71.74 115.4 71.53C115.15 71.1 114.92 70.69 114.62 70.3C114.35 69.86 114.08 69.45 113.76 69.06C113.51 68.72 113.26 68.38 112.99 68.04C112.81 67.78 112.6 67.56 112.4 67.33C112.13 66.98 111.85 66.66 111.53 66.34C111.33 66.09 111.13 65.86 110.88 65.66C110.58 65.36 110.31 65.04 109.99 64.77C109.65 64.42 109.31 64.1 108.94 63.78C106.06 61.2 102.72 59.17 99.06 57.77C98.63 57.61 98.2 57.45 97.77 57.29C97.38 57.15 96.99 57.02 96.61 56.92C96.06 56.76 95.49 56.6 94.93 56.47C94.45 56.35 93.97 56.24 93.5 56.17C93.02 56.08 92.52 55.99 92.02 55.92C90.54 55.69 89.04 55.6 87.5 55.6C85.95 55.6 84.45 55.69 82.98 55.92C82.48 55.99 81.98 56.06 81.5 56.17C81.04 56.26 80.61 56.35 80.16 56.47C79.52 56.6 78.91 56.76 78.34 56.95C77.95 57.04 77.59 57.18 77.23 57.29C76.8 57.43 76.39 57.59 75.98 57.75C74 58.5 72.14 59.44 70.37 60.54C69.89 60.83 69.43 61.15 68.96 61.47C67.91 62.16 66.96 62.94 66 63.78C65.64 64.1 65.3 64.45 64.96 64.77C64.66 65.06 64.35 65.36 64.1 65.66C63.75 65.98 63.44 66.32 63.14 66.69C61.55 68.47 60.17 70.44 59.01 72.54C58.85 72.84 58.69 73.18 58.53 73.48C58.33 73.87 58.12 74.25 57.96 74.64C57.69 75.17 57.46 75.72 57.26 76.29C57.01 76.88 56.78 77.5 56.6 78.12C56.44 78.6 56.3 79.03 56.17 79.54C55.87 80.5 55.67 81.46 55.51 82.44C55.42 82.92 55.33 83.44 55.26 83.93L31.54 83.93C31.54 83.72 31.54 83.51 31.58 83.33C31.58 83.12 31.58 82.94 31.65 82.74C31.65 82.46 31.7 82.21 31.74 81.94C31.79 81.43 31.83 80.91 31.95 80.4C32.02 79.86 32.08 79.31 32.2 78.78C32.31 78 32.47 77.25 32.65 76.49C32.74 75.95 32.88 75.4 33.02 74.87C33.11 74.41 33.24 73.98 33.36 73.55C33.42 73.27 33.49 73.02 33.58 72.75C33.74 72.13 33.92 71.53 34.13 70.94C34.2 70.73 34.24 70.53 34.36 70.3C34.56 69.64 34.81 68.97 35.04 68.31C35.67 66.69 36.36 65.06 37.1 63.51C38.26 61.15 39.56 58.91 41.01 56.76C41.69 55.74 42.44 54.75 43.22 53.77C43.58 53.29 43.97 52.79 44.38 52.31C45.51 50.91 46.74 49.59 48.01 48.33C48.62 47.71 49.26 47.12 49.87 46.55C50.42 46.02 50.99 45.52 51.58 45.04C51.92 44.74 52.24 44.49 52.6 44.21C53.01 43.87 53.44 43.55 53.85 43.21C54.46 42.73 55.1 42.29 55.71 41.86C56.19 41.52 56.64 41.2 57.14 40.9C57.42 40.72 57.67 40.53 57.94 40.4C58.37 40.1 58.8 39.85 59.26 39.59C59.55 39.41 59.85 39.23 60.12 39.09C60.6 38.79 61.1 38.54 61.6 38.29C62.03 38.04 62.46 37.81 62.89 37.63C63.12 37.49 63.37 37.38 63.6 37.29C64.07 37.03 64.55 36.81 65.03 36.62C65.46 36.44 65.89 36.26 66.3 36.07C66.73 35.91 67.16 35.73 67.57 35.57C67.94 35.43 68.28 35.3 68.64 35.18C69.34 34.91 70.07 34.68 70.82 34.45C70.87 34.45 70.91 34.41 70.93 34.41C71.8 34.11 72.68 33.88 73.57 33.65C74.34 33.44 75.14 33.26 75.93 33.1C76.07 33.06 76.23 33.01 76.41 33.01C77.09 32.87 77.82 32.71 78.52 32.62C79.7 32.42 80.89 32.28 82.07 32.14C83.88 31.96 85.68 31.87 87.52 31.87C89.36 31.87 91.18 31.96 92.97 32.14C94.18 32.26 95.36 32.42 96.52 32.62C97.22 32.71 97.95 32.87 98.63 33.01C98.81 33.06 98.99 33.08 99.15 33.12C99.92 33.26 100.67 33.44 101.42 33.63C101.49 33.63 101.52 33.67 101.58 33.7C102.42 33.9 103.24 34.15 104.08 34.41C104.15 34.41 104.17 34.41 104.24 34.45C104.9 34.66 105.56 34.89 106.24 35.11C106.81 35.32 107.38 35.53 107.92 35.75C108.13 35.85 108.33 35.91 108.54 36.01C109.17 36.26 109.78 36.51 110.35 36.81C110.63 36.9 110.85 37.01 111.1 37.15C111.67 37.4 112.22 37.65 112.74 37.95C112.9 38.02 113.06 38.09 113.22 38.2C113.92 38.54 114.62 38.93 115.31 39.34C115.35 39.34 115.37 39.34 115.4 39.41C116.12 39.82 116.83 40.26 117.56 40.72C118.19 41.1 118.8 41.52 119.4 41.95C120.01 42.36 120.6 42.82 121.19 43.25C121.78 43.69 122.35 44.12 122.89 44.6C122.99 44.67 123.1 44.74 123.19 44.85C123.78 45.33 124.35 45.81 124.92 46.34C125.01 46.41 125.12 46.5 125.21 46.61C125.85 47.19 126.46 47.78 127.07 48.4C128.35 49.65 129.57 50.98 130.71 52.37C131.3 53.06 131.85 53.79 132.37 54.5C132.91 55.21 133.44 55.94 133.96 56.7C134 56.74 134.03 56.79 134.05 56.83C135.53 59.03 136.84 61.31 138 63.74C138.41 64.56 138.8 65.36 139.14 66.23C139.5 67.08 139.84 67.92 140.16 68.79C140.46 69.54 140.71 70.3 140.96 71.05C141.09 71.44 141.23 71.83 141.32 72.24C141.5 72.84 141.66 73.45 141.82 74.05C142.05 74.89 142.25 75.72 142.43 76.59C142.59 77.32 142.73 78.07 142.86 78.83C142.96 79.35 143.05 79.9 143.11 80.45C143.21 80.95 143.27 81.48 143.32 81.98C143.36 82.26 143.41 82.51 143.41 82.78C143.41 82.99 143.48 83.17 143.48 83.38C143.48 83.56 143.52 83.77 143.52 83.97L143.5 83.95Z" fill="#000000" fill-rule="nonzero" /></g><g transform="matrix(1 0 0 1 0 0)"><path d="M111.51 84L63.37 84C63.44 83.63 63.51 83.29 63.6 82.95C63.69 82.6 63.76 82.26 63.87 81.9C63.98 81.53 64.08 81.21 64.17 80.84C64.39 80.18 64.64 79.49 64.92 78.83C65.21 78.17 65.51 77.55 65.82 76.93C66.67 75.33 67.64 73.87 68.82 72.5C69.01 72.25 69.23 72.02 69.46 71.79C70.14 71.01 70.89 70.28 71.71 69.6C71.98 69.37 72.23 69.14 72.53 68.93C73 68.57 73.5 68.2 74 67.86C74.66 67.42 75.34 67.01 76.03 66.65C76.43 66.42 76.87 66.21 77.28 66.01C77.32 66.01 77.37 65.96 77.39 65.96C77.87 65.71 78.39 65.5 78.89 65.32C78.96 65.32 79 65.25 79.07 65.25C79.43 65.11 79.8 64.98 80.18 64.86C80.57 64.75 80.96 64.63 81.34 64.54C81.71 64.45 82.09 64.36 82.46 64.27C82.5 64.27 82.55 64.27 82.55 64.27C82.93 64.18 83.3 64.13 83.68 64.06C84.16 63.97 84.66 63.93 85.16 63.88C85.89 63.81 86.61 63.79 87.36 63.79C88.11 63.79 88.84 63.83 89.57 63.88C90.07 63.93 90.57 63.97 91.04 64.06C91.43 64.13 91.79 64.18 92.18 64.27C92.18 64.27 92.25 64.27 92.27 64.27C92.63 64.36 93.02 64.43 93.38 64.54C93.77 64.63 94.16 64.75 94.54 64.86C94.93 64.98 95.29 65.11 95.66 65.25C95.72 65.25 95.77 65.3 95.84 65.32C96.38 65.53 96.88 65.75 97.41 65.98C97.97 66.23 98.54 66.51 99.09 66.85C99.38 66.99 99.63 67.15 99.9 67.33C100.25 67.54 100.56 67.74 100.9 67.97C101.34 68.25 101.74 68.54 102.15 68.86C102.27 68.96 102.38 69.02 102.49 69.14C102.9 69.44 103.29 69.78 103.68 70.14C103.93 70.35 104.15 70.58 104.38 70.81C104.83 71.24 105.24 71.7 105.68 72.18C105.99 72.54 106.33 72.93 106.63 73.34C106.99 73.8 107.31 74.26 107.65 74.74C107.95 75.17 108.2 75.61 108.47 76.02C109.22 77.3 109.86 78.67 110.38 80.09C110.45 80.27 110.51 80.48 110.58 80.66C110.7 81.07 110.83 81.48 110.95 81.9C111.04 82.24 111.13 82.58 111.22 82.95C111.31 83.31 111.38 83.63 111.45 84L111.51 84Z" fill="#000000" fill-rule="nonzero" /></g></svg>
