<?xml version="1.0" encoding="UTF-8"?>
<svg xmlns="http://www.w3.org/2000/svg" xmlns:xlink="http://www.w3.org/1999/xlink" viewBox="0 0 250 143" width="250" height="143"><g transform="matrix(1 0 0 1 0 0)"><path d="M230.65 61.75L230.65 87.38C229.56 86.28 227.88 85.23 225.65 84.23C223.41 83.24 220.72 82.74 217.59 82.74C209.25 82.74 202.53 85.6 197.39 91.31C192.28 97.01 189.71 104.76 189.71 114.56C189.71 118.54 190.39 122.25 191.73 125.65C193.1 129.08 194.98 132.05 197.39 134.61C199.8 137.15 202.59 139.12 205.75 140.54C208.89 141.93 212.18 142.62 215.64 142.62C219.38 142.62 222.45 141.88 224.91 140.4C227.36 138.93 229.2 137.24 230.45 135.32L230.68 135.32L230.68 141.27L249.76 141.27L249.76 61.75L230.65 61.75ZM227.13 120.28C225.09 122.34 222.54 123.39 219.54 123.39C216.54 123.39 214.02 122.34 211.91 120.28C209.82 118.22 208.77 115.68 208.77 112.67C208.77 109.65 209.82 107.09 211.91 105.03C214 102.97 216.54 101.94 219.54 101.94C222.54 101.94 225.09 102.97 227.13 105.03C229.18 107.09 230.2 109.63 230.2 112.67C230.2 115.71 229.18 118.22 227.13 120.28Z" fill="#ffffff" fill-rule="nonzero" /></g><g transform="matrix(1 0 0 1 0 0)"><path d="M79.81 84.08L64.98 141.28L45.44 141.28L39.94 117.27L39.9 117.18L39.87 117.27L34.37 141.28L14.84 141.28L0 84.08L19.15 84.08L24.63 110.12L24.86 110.12L30.4 84.08L49.44 84.08L54.98 110.12L55.21 110.12L60.68 84.08L79.81 84.08Z" fill="#ffffff" fill-rule="nonzero" /></g><g transform="matrix(1 0 0 1 0 0)"><path d="M48.12 32.16C47.21 30.08 45.96 28.36 44.39 27.01C42.83 25.69 41.05 24.73 39.12 24.15C37.17 23.56 35.15 23.26 33.03 23.26C30.24 23.26 27.72 23.83 25.45 24.95C23.17 26.1 21.06 27.74 19.08 29.87L19.08 2.3L0 2.3L0 81.81L19.08 81.81L19.08 50.45C19.08 48.16 19.47 46.26 20.24 44.75C21.02 43.24 22.45 42.49 24.58 42.49C26.92 42.49 28.49 43.24 29.26 44.71C30.04 46.19 30.4 48.09 30.4 50.45L30.4 81.81L49.51 81.81L49.51 39.72C49.51 36.77 49.05 34.26 48.12 32.16Z" fill="#ffffff" fill-rule="nonzero" /></g><g transform="matrix(1 0 0 1 0 0)"><path d="M135.24 110.17C135.01 106.97 134.26 103.91 133.04 101.01C131.49 97.37 129.38 94.19 126.65 91.45C123.95 88.73 120.77 86.58 117.16 85.05C113.54 83.49 109.68 82.72 105.59 82.72C101.5 82.72 97.73 83.49 94.12 85.05C90.51 86.58 87.33 88.73 84.58 91.45C81.85 94.17 79.69 97.37 78.17 101.01C76.63 104.64 75.85 108.53 75.85 112.67C75.85 116.8 76.63 120.55 78.17 124.21C79.69 127.85 81.85 131.07 84.58 133.81C87.33 136.58 90.51 138.73 94.12 140.28C97.73 141.82 101.57 142.59 105.59 142.59C109.61 142.59 113.54 141.82 117.16 140.28C120.77 138.73 123.95 136.58 126.65 133.81C129.36 131.05 131.49 127.85 133.04 124.21C134.26 121.31 134.99 118.29 135.24 115.11C135.31 114.31 135.36 113.49 135.36 112.67C135.36 111.84 135.33 111 135.24 110.17ZM113.18 120.28C111.14 122.34 108.61 123.39 105.62 123.39C102.62 123.39 100.07 122.34 98.03 120.28C95.98 118.22 94.96 115.68 94.96 112.67C94.96 109.65 95.98 107.09 98.03 105.03C100.07 102.97 102.59 101.94 105.62 101.94C108.64 101.94 111.14 102.97 113.18 105.03C115.23 107.09 116.25 109.63 116.25 112.67C116.25 115.71 115.23 118.22 113.18 120.28Z" fill="#ffffff" fill-rule="nonzero" /></g><g transform="matrix(1 0 0 1 0 0)"><path d="M79.81 84.08L64.98 141.28L45.44 141.28L39.94 117.27L39.9 117.18L39.87 117.27L34.37 141.28L14.84 141.28L0 84.08L19.15 84.08L24.63 110.12L24.86 110.12L30.4 84.08L49.44 84.08L54.98 110.12L55.21 110.12L60.68 84.08L79.81 84.08Z" fill="#ffffff" fill-rule="nonzero" /></g><g transform="matrix(1 0 0 1 0 0)"><path d="M145.26 2.26L126.45 2.26L126.45 81.8L145.26 81.8L145.26 2.26Z" fill="#ffffff" fill-rule="nonzero" /></g><g transform="matrix(1 0 0 1 0 0)"><path d="M48.12 32.16C47.21 30.08 45.96 28.36 44.39 27.01C42.83 25.69 41.05 24.73 39.12 24.15C37.17 23.56 35.15 23.26 33.03 23.26C30.24 23.26 27.72 23.83 25.45 24.95C23.17 26.1 21.06 27.74 19.08 29.87L19.08 2.3L0 2.3L0 81.81L19.08 81.81L19.08 50.45C19.08 48.16 19.47 46.26 20.24 44.75C21.02 43.24 22.45 42.49 24.58 42.49C26.92 42.49 28.49 43.24 29.26 44.71C30.04 46.19 30.4 48.09 30.4 50.45L30.4 81.81L49.51 81.81L49.51 39.72C49.51 36.77 49.05 34.26 48.12 32.16Z" fill="#ffffff" fill-rule="nonzero" /></g><g transform="matrix(1 0 0 1 0 0)"><path d="M207.85 27.85C207.6 24.6 206.85 21.49 205.62 18.54C204.06 14.84 201.9 11.61 199.15 8.85C196.42 6.08 193.2 3.91 189.52 2.35C185.83 0.78 181.93 0 177.79 0C173.66 0 169.82 0.78 166.16 2.35C162.48 3.91 159.28 6.1 156.48 8.85C153.71 11.61 151.53 14.84 149.98 18.54C148.42 22.25 147.64 26.18 147.64 30.36C147.64 34.55 148.42 38.36 149.98 42.07C151.53 45.77 153.71 49.02 156.48 51.81C159.28 54.6 162.5 56.79 166.16 58.37C169.84 59.92 173.7 60.72 177.79 60.72C181.88 60.72 185.86 59.95 189.52 58.37C193.2 56.79 196.4 54.62 199.15 51.81C201.9 49.02 204.06 45.75 205.62 42.07C206.85 39.14 207.6 36.05 207.85 32.85C207.92 32.03 207.96 31.21 207.96 30.36C207.96 29.52 207.94 28.67 207.85 27.82L207.85 27.85ZM185.47 38.09C183.4 40.17 180.84 41.24 177.79 41.24C174.75 41.24 172.18 40.19 170.11 38.09C168.05 36.01 167 33.42 167 30.36C167 27.3 168.05 24.71 170.11 22.63C172.18 20.55 174.75 19.5 177.79 19.5C180.84 19.5 183.38 20.55 185.47 22.63C187.54 24.71 188.58 27.3 188.58 30.36C188.58 33.42 187.54 35.99 185.47 38.09Z" fill="#ffffff" fill-rule="nonzero" /></g><g transform="matrix(1 0 0 1 0 0)"><path d="M105.21 2.3L105.21 38.7C104.92 37.99 104.64 37.3 104.33 36.66C103.39 34.6 101.96 32.5 100.1 30.42C99.85 30.14 99.6 29.87 99.33 29.62C99.08 29.37 98.8 29.12 98.53 28.89C97.71 28.18 96.83 27.52 95.85 26.9C94.87 26.3 93.83 25.73 92.67 25.25C90.78 24.43 88.63 23.86 86.24 23.56C84.76 23.38 83.22 23.29 81.58 23.29C81.15 23.29 80.74 23.29 80.31 23.29C79.47 23.35 78.63 23.4 77.79 23.51C77.36 23.58 76.93 23.63 76.52 23.7L76.47 23.7C76.04 23.77 75.61 23.88 75.18 23.95C74.34 24.15 73.5 24.38 72.63 24.63L72.59 24.63C72.15 24.77 71.72 24.91 71.29 25.07C67.82 26.28 64.59 28.16 61.64 30.69C58.68 33.23 56.27 36.41 54.48 40.2C52.71 44 51.8 48.37 51.8 53.3C51.8 58.84 52.73 63.57 54.64 67.48C56.52 71.43 59 74.54 62 76.81C65 79.09 68.09 80.72 71.27 81.68C74.45 82.64 77.38 83.12 79.99 83.12C82.61 83.12 85.06 82.93 87.31 82.57C89.54 82.25 91.56 81.72 93.42 81.04C94.35 80.69 95.28 80.33 96.15 79.94C97.9 79.18 99.58 78.38 101.17 77.52C102.05 77.06 102.92 76.58 103.74 76.05L103.83 75.98L103.87 75.98L105.19 75.18L105.19 81.79L124.05 81.79L124.05 2.3L105.19 2.3L105.21 2.3ZM72.84 42.65C73.77 41.71 74.81 41 75.95 40.55C76.34 40.39 76.72 40.25 77.11 40.16C77.31 40.09 77.54 40.04 77.79 40C78.38 39.88 79.04 39.82 79.68 39.82C80.49 39.82 81.4 39.91 82.36 40.11C82.65 40.18 82.99 40.25 83.31 40.32C84.58 40.64 85.47 41.14 85.99 41.83L70.52 53.51L70.45 53.51L70.45 53.19C70.16 51.93 70.02 51.02 70.02 50.42C70.02 47.11 70.95 44.53 72.81 42.63L72.84 42.65ZM105.21 54.72L102.6 57.31C102.6 57.31 102.58 57.32 102.55 57.35C101.83 58.15 101.01 58.88 100.08 59.59C100.08 59.59 100.08 59.59 100.03 59.59C99.42 60.09 98.76 60.55 98.06 60.99C96.96 61.67 95.78 62.33 94.49 62.98C92.38 64 90.31 64.71 88.35 65.1C87.94 65.17 87.56 65.26 87.17 65.28C86.38 65.38 85.6 65.44 84.81 65.44C83.58 65.44 82.31 65.28 80.99 64.96C79.68 64.62 78.77 64.3 78.27 63.91L105.26 44.66L105.26 54.7L105.21 54.72Z" fill="#ffffff" fill-rule="nonzero" /></g><g transform="matrix(1 0 0 1 0 0)"><path d="M187.29 63.85L187.29 141.4L168.18 141.4L168.18 103.4C163.89 103.52 160.95 104.32 159.41 105.8C157.73 107.43 156.89 110.03 156.89 113.65L156.89 141.38L137.78 141.38L137.78 84.13L156.89 84.13L156.89 89.89L157.09 89.89C158.25 87.67 159.77 86.17 161.61 85.34C163.2 84.63 165.41 84.22 168.2 84.15L168.2 63.83L187.31 63.83L187.29 63.85Z" fill="#ffffff" fill-rule="nonzero" /></g></svg>
