<svg width="250" height="143" viewBox="0 0 250 143" fill="none" xmlns="http://www.w3.org/2000/svg">
<path d="M230.653 61.7513V87.3801C229.563 86.2827 227.881 85.231 225.655 84.2251C223.406 83.242 220.725 82.739 217.589 82.739C209.251 82.739 202.526 85.5968 197.392 91.3124C192.28 97.0052 189.712 104.756 189.712 114.564C189.712 118.542 190.394 122.245 191.734 125.652C193.098 129.081 194.983 132.053 197.392 134.614C199.8 137.152 202.594 139.118 205.752 140.535C208.888 141.93 212.182 142.616 215.635 142.616C219.384 142.616 222.451 141.884 224.905 140.398C227.359 138.935 229.199 137.243 230.449 135.323H230.676V141.267H249.76V61.7513H230.653ZM227.132 120.279C225.087 122.337 222.542 123.388 219.543 123.388C216.544 123.388 214.022 122.337 211.909 120.279C209.819 118.221 208.774 115.684 208.774 112.666C208.774 109.648 209.819 107.087 211.909 105.03C214 102.972 216.544 101.943 219.543 101.943C222.542 101.943 225.087 102.972 227.132 105.03C229.176 107.087 230.199 109.625 230.199 112.666C230.199 115.707 229.176 118.221 227.132 120.279Z" fill="black"/>
<path d="M79.8141 84.0772L64.9782 141.279H45.4393L39.9411 117.273L39.8957 117.182L39.873 117.273L34.3748 141.279H14.8359L0 84.0772H19.1526L24.6281 110.118H24.8553L30.3988 84.0772H49.4379L54.9815 110.118H55.2087L60.6841 84.0772H79.8141Z" fill="black"/>
<path d="M48.1202 32.1566C47.2114 30.0761 45.9619 28.3614 44.3942 27.0125C42.8265 25.6865 41.0544 24.7263 39.1232 24.1547C37.1693 23.5603 35.1473 23.2631 33.0344 23.2631C30.2398 23.2631 27.718 23.8347 25.446 24.9549C23.174 26.098 21.0611 27.7441 19.0845 29.8703V2.29826H0V81.8137H19.0845V50.4465C19.0845 48.1603 19.4707 46.2627 20.2432 44.7538C21.0157 43.2448 22.447 42.4904 24.5826 42.4904C26.9227 42.4904 28.4904 43.2448 29.2629 44.708C30.0354 46.1941 30.3988 48.0917 30.3988 50.4465V81.8137H49.5061V39.724C49.5061 36.7748 49.0517 34.2599 48.1202 32.1566Z" fill="black"/>
<path d="M135.242 110.175C135.015 106.974 134.265 103.91 133.038 101.007C131.493 97.3718 129.38 94.194 126.654 91.4505C123.95 88.7299 120.77 86.5808 117.157 85.049C113.545 83.4944 109.682 82.717 105.593 82.717C101.503 82.717 97.7319 83.4944 94.1195 85.049C90.5071 86.5808 87.3263 88.7299 84.5772 91.4505C81.8509 94.1711 79.6925 97.3718 78.1703 101.007C76.6254 104.642 75.8529 108.529 75.8529 112.667C75.8529 116.805 76.6254 120.554 78.1703 124.212C79.6925 127.847 81.8509 131.071 84.5772 133.815C87.3263 136.581 90.5071 138.73 94.1195 140.285C97.7319 141.816 101.571 142.594 105.593 142.594C109.614 142.594 113.545 141.816 117.157 140.285C120.77 138.73 123.95 136.581 126.654 133.815C129.358 131.048 131.493 127.847 133.038 124.212C134.265 121.309 134.992 118.291 135.242 115.113C135.31 114.313 135.356 113.49 135.356 112.667C135.356 111.844 135.333 110.998 135.242 110.175ZM113.181 120.28C111.136 122.338 108.615 123.389 105.616 123.389C102.617 123.389 100.072 122.338 98.0273 120.28C95.9825 118.222 94.9601 115.685 94.9601 112.667C94.9601 109.649 95.9825 107.088 98.0273 105.031C100.072 102.973 102.594 101.944 105.616 101.944C108.637 101.944 111.136 102.973 113.181 105.031C115.226 107.088 116.248 109.626 116.248 112.667C116.248 115.707 115.226 118.222 113.181 120.28Z" fill="black"/>
<path d="M79.8141 84.0772L64.9782 141.279H45.4393L39.9411 117.273L39.8957 117.182L39.873 117.273L34.3748 141.279H14.8359L0 84.0772H19.1526L24.6281 110.118H24.8553L30.3988 84.0772H49.4379L54.9815 110.118H55.2087L60.6841 84.0772H79.8141Z" fill="black"/>
<path d="M145.26 2.25805H126.448V81.7964H145.26V2.25805Z" fill="black"/>
<path d="M48.1202 32.1566C47.2114 30.0761 45.9619 28.3614 44.3942 27.0125C42.8265 25.6865 41.0544 24.7263 39.1232 24.1547C37.1693 23.5603 35.1473 23.2631 33.0344 23.2631C30.2398 23.2631 27.718 23.8347 25.446 24.9549C23.174 26.098 21.0611 27.7441 19.0845 29.8703V2.29826H0V81.8137H19.0845V50.4465C19.0845 48.1603 19.4707 46.2627 20.2432 44.7538C21.0157 43.2448 22.447 42.4904 24.5826 42.4904C26.9227 42.4904 28.4904 43.2448 29.2629 44.708C30.0354 46.1941 30.3988 48.0917 30.3988 50.4465V81.8137H49.5061V39.724C49.5061 36.7748 49.0517 34.2599 48.1202 32.1566Z" fill="black"/>
<path d="M207.85 27.8464C207.6 24.6 206.851 21.4907 205.624 18.5414C204.056 14.8377 201.898 11.6141 199.149 8.84776C196.422 6.0814 193.196 3.90947 189.515 2.35483C185.835 0.777323 181.927 0 177.792 0C173.657 0 169.817 0.777323 166.16 2.35483C162.479 3.90947 159.276 6.10427 156.481 8.84776C153.709 11.6141 151.528 14.8377 149.983 18.5414C148.416 22.2451 147.643 26.1775 147.643 30.3613C147.643 34.5451 148.416 38.3631 149.983 42.0668C151.528 45.7706 153.709 49.017 156.481 51.8062C159.276 54.5954 162.502 56.7902 166.16 58.3677C169.84 59.9224 173.703 60.7226 177.792 60.7226C181.882 60.7226 185.858 59.9452 189.515 58.3677C193.196 56.7902 196.399 54.6183 199.149 51.8062C201.898 49.017 204.056 45.7477 205.624 42.0668C206.851 39.1405 207.6 36.054 207.85 32.8533C207.918 32.0302 207.964 31.2072 207.964 30.3613C207.964 29.5154 207.941 28.6695 207.85 27.8236V27.8464ZM185.471 38.0888C183.404 40.1693 180.837 41.2438 177.792 41.2438C174.748 41.2438 172.18 40.1921 170.113 38.0888C168.045 36.0083 167 33.4248 167 30.3613C167 27.2977 168.045 24.7143 170.113 22.6338C172.18 20.5533 174.748 19.5016 177.792 19.5016C180.837 19.5016 183.381 20.5533 185.471 22.6338C187.539 24.7143 188.584 27.2977 188.584 30.3613C188.584 33.4248 187.539 35.9854 185.471 38.0888Z" fill="black"/>
<path d="M105.212 2.29826V38.6952C104.917 37.9865 104.644 37.3006 104.326 36.6605C103.394 34.6028 101.963 32.4995 100.1 30.419C99.8501 30.1447 99.6002 29.8703 99.3276 29.6188C99.0777 29.3673 98.805 29.1159 98.5323 28.8872C97.7144 28.1785 96.8284 27.5155 95.8514 26.8982C94.8745 26.3038 93.8294 25.7322 92.6707 25.2521C90.7849 24.4291 88.6266 23.8575 86.241 23.5603C84.7643 23.3774 83.2193 23.2859 81.5835 23.2859C81.1519 23.2859 80.7429 23.2859 80.3112 23.2859C79.4706 23.3545 78.63 23.4003 77.7893 23.5146C77.3577 23.5832 76.926 23.6289 76.517 23.6975H76.4716C76.0399 23.7661 75.6082 23.8804 75.1766 23.949C74.3359 24.1547 73.4953 24.3833 72.632 24.6348H72.5865C72.1549 24.772 71.7232 24.9092 71.2915 25.0692C67.8154 26.2809 64.5892 28.1556 61.6357 30.6934C58.6821 33.2311 56.2738 36.409 54.479 40.2041C52.7068 43.9993 51.798 48.366 51.798 53.3043C51.798 58.837 52.7296 63.5695 54.638 67.479C56.5237 71.4342 59.0002 74.5435 61.9992 76.8069C64.9982 79.0931 68.0881 80.7163 71.2688 81.6765C74.4495 82.6368 77.3803 83.1169 79.9931 83.1169C82.6059 83.1169 85.0596 82.934 87.3088 82.5682C89.5354 82.2481 91.5574 81.7223 93.4204 81.0364C94.3519 80.6934 95.2834 80.3277 96.1468 79.939C97.8962 79.1845 99.5775 78.3844 101.168 77.5156C102.054 77.0583 102.917 76.5782 103.735 76.0524L103.826 75.9838H103.871L105.189 75.1836V81.7908H124.046V2.29826H105.189H105.212ZM72.8365 42.6504C73.768 41.7131 74.8131 41.0043 75.949 40.5471C76.3353 40.387 76.7215 40.2499 77.1078 40.1584C77.3122 40.0898 77.5394 40.0441 77.7893 39.9984C78.38 39.8841 79.0389 39.8155 79.6751 39.8155C80.493 39.8155 81.4018 39.9069 82.356 40.1127C82.6513 40.1813 82.9921 40.2499 83.3102 40.3184C84.5825 40.6385 85.4686 41.1415 85.9911 41.8274L70.519 53.5101H70.4509V53.19C70.1555 51.9325 70.0192 51.0181 70.0192 50.4236C70.0192 47.1086 70.9507 44.5251 72.8137 42.6275L72.8365 42.6504ZM105.212 54.7218L102.599 57.3052C102.599 57.3052 102.584 57.3205 102.554 57.3509C101.827 58.1511 101.009 58.8827 100.077 59.5915C100.077 59.5915 100.077 59.5915 100.032 59.5915C99.4184 60.0944 98.7595 60.5517 98.0552 60.9861C96.9647 61.6719 95.7833 62.3349 94.4883 62.9751C92.3754 64.0039 90.3078 64.7126 88.3539 65.1013C87.945 65.1699 87.5588 65.2613 87.1725 65.2842C86.3774 65.3756 85.6049 65.4442 84.8097 65.4442C83.5828 65.4442 82.3105 65.2842 80.9928 64.9641C79.6751 64.6212 78.7662 64.3011 78.2664 63.9125L105.257 44.6623V54.6989L105.212 54.7218Z" fill="black"/>
<path d="M187.287 63.8513V141.401H168.18V103.403C163.886 103.518 160.955 104.318 159.41 105.804C157.729 107.427 156.888 110.033 156.888 113.646V141.378H137.781V84.1303H156.888V89.8916H157.092C158.251 87.674 159.773 86.1651 161.614 85.342C163.204 84.6333 165.408 84.2217 168.202 84.1532V63.8285H187.31L187.287 63.8513Z" fill="black"/>
</svg>
