<svg width="462" height="176" viewBox="0 0 462 176" fill="none" xmlns="http://www.w3.org/2000/svg">
<path d="M174.896 83.9737H151.631C151.631 83.6764 151.585 83.3792 151.54 83.1049C151.495 82.5333 151.449 81.9618 151.381 81.3902C151.335 80.8872 151.29 80.3614 151.199 79.8813C150.995 78.258 150.722 76.6805 150.381 75.103C150.29 74.6686 150.222 74.2343 150.086 73.8227C149.586 71.6051 148.95 69.4332 148.2 67.307C147.905 66.3696 147.541 65.4322 147.155 64.5177C146.792 63.5347 146.383 62.5744 145.928 61.6371C145.587 60.8598 145.224 60.1053 144.838 59.3508C144.292 58.2534 143.702 57.156 143.066 56.0815C142.566 55.1899 142.02 54.2754 141.452 53.4295C141.18 52.9951 140.907 52.5607 140.589 52.1492C140.294 51.7148 139.998 51.2804 139.726 50.8917C139.43 50.4574 139.135 50.0458 138.817 49.6572C138.226 48.8113 137.567 48.0339 136.909 47.2338C136.568 46.8222 136.25 46.4336 135.886 46.0449C135.614 45.7248 135.364 45.3819 135.023 45.0847C134.637 44.6274 134.205 44.193 133.796 43.7587C133.455 43.37 133.092 43.0042 132.728 42.6613C132.365 42.2955 132.001 41.9525 131.638 41.5867C131.251 41.2209 130.888 40.878 130.502 40.5351C129.343 39.4834 128.161 38.4774 126.98 37.5401C126.571 37.22 126.162 36.8771 125.73 36.6027C124.89 35.9397 124.072 35.3682 123.209 34.7966C122.3 34.1565 121.346 33.562 120.391 32.9905C120.028 32.739 119.664 32.5104 119.278 32.3275C117.824 31.4815 116.325 30.7042 114.802 29.9498C114.462 29.7897 114.121 29.6297 113.757 29.4697C113.757 29.4697 113.742 29.4697 113.712 29.4697C113.03 29.1724 112.326 28.8524 111.644 28.578C111.372 28.4866 111.144 28.3723 110.872 28.2808C110.236 28.0293 109.622 27.8007 108.963 27.5492C108.055 27.252 107.146 26.9091 106.214 26.6576C105.828 26.5433 105.442 26.4061 105.056 26.3146C105.01 26.3146 104.965 26.2689 104.919 26.2689C104.26 26.0632 103.579 25.8803 102.897 25.7202C101.784 25.423 100.671 25.1944 99.5347 24.9886C98.6487 24.8057 97.7171 24.6457 96.7856 24.5085C95.7633 24.3485 94.7409 24.2113 93.6958 24.1199C92.6961 24.0284 91.6964 23.9598 90.7195 23.8912H90.6059C89.5608 23.8226 88.493 23.7998 87.4479 23.7998C86.4028 23.7998 85.3349 23.7998 84.2898 23.8912H84.1762C83.1766 23.9598 82.1769 24.0055 81.2 24.1199C80.1549 24.2113 79.1325 24.3485 78.1101 24.5085C77.1786 24.6228 76.2698 24.8057 75.361 24.9886C74.225 25.1944 73.1118 25.4459 71.9985 25.7202C71.3169 25.8803 70.6353 26.0632 69.9765 26.2689C69.9083 26.2689 69.8856 26.2689 69.8401 26.3146C69.4539 26.4061 69.0677 26.5433 68.6815 26.6576C67.7727 26.9319 66.8639 27.252 65.9324 27.5492C65.2735 27.8007 64.6601 28.0293 64.0239 28.2808C63.7513 28.3723 63.5241 28.4866 63.2515 28.578C62.5699 28.8752 61.8656 29.1724 61.184 29.4697C61.184 29.4697 61.1688 29.4697 61.1385 29.4697C60.8205 29.6068 60.4797 29.7669 60.1843 29.9269C58.6167 30.6585 57.0944 31.4587 55.6177 32.3275C55.2996 32.4875 54.9815 32.6704 54.6862 32.8762C53.5275 33.562 52.3688 34.3165 51.2555 35.0709C50.5966 35.5282 49.9378 35.9854 49.2789 36.5113C49.2107 36.557 49.1653 36.6027 49.0744 36.6485C48.6882 36.9228 48.3247 37.1971 47.9384 37.5172C46.7116 38.4546 45.5529 39.4605 44.4169 40.5122C44.0307 40.8323 43.6444 41.1752 43.2809 41.5639C42.9174 41.9525 42.5539 42.2726 42.1904 42.6384C41.8268 42.9813 41.4633 43.3471 41.1225 43.7358C40.0547 44.8332 39.0323 45.9992 38.0327 47.2109C37.6919 47.5995 37.3738 48.0111 37.0557 48.4226C36.7604 48.8113 36.4196 49.2228 36.1242 49.6572C35.8061 50.0687 35.4881 50.4802 35.2154 50.8917C34.5111 51.8748 33.8068 52.9036 33.1707 53.9324C32.8072 54.504 32.4436 55.0984 32.1028 55.7157C31.7848 56.2644 31.444 56.8131 31.1486 57.3847C30.8078 58.0477 30.4443 58.6878 30.1035 59.3737C29.7173 60.1282 29.3538 60.8826 29.013 61.6599C28.6495 62.4373 28.3087 63.2374 27.9679 64.0376C27.6725 64.7921 27.3544 65.5465 27.0818 66.3239C26.7864 67.1698 26.4911 67.9928 26.2185 68.8616C26.2185 68.9073 26.2185 68.953 26.173 68.9759C25.8777 69.8447 25.6505 70.7363 25.4006 71.628C25.1961 72.3595 25.0143 73.0911 24.8553 73.8227C24.7417 74.2571 24.6508 74.6915 24.5599 75.103C24.5145 75.2402 24.4918 75.3774 24.469 75.4917C24.31 76.2462 24.1737 77.0235 24.0374 77.7779C23.9238 78.4638 23.8102 79.1725 23.742 79.8813C23.6511 80.3614 23.6057 80.8872 23.5603 81.3902C23.4921 81.9618 23.4467 82.5333 23.4012 83.1049C23.3558 83.4021 23.3331 83.6993 23.3103 83.9737H0C2.11293 37.3115 40.5318 0 87.4479 0C134.364 0 172.783 37.3115 174.896 83.9737Z" fill="black"/>
<path d="M83.3811 92.1044V113.001H3.49882C1.4995 106.21 0.340795 99.1917 0 92.1044H83.3811Z" fill="black"/>
<path d="M83.3767 121.158V144.889H20.6705C14.6271 137.733 9.83326 129.777 6.33444 121.158H83.3767Z" fill="black"/>
<path d="M83.4357 153.092V176C63.0335 175.04 43.6309 166.901 28.5451 153.092H83.4357Z" fill="black"/>
<path d="M111.94 92.1044V172.58C105.283 174.523 98.4447 175.667 91.5152 175.964V92.1044H111.94Z" fill="black"/>
<path d="M143.67 155.479C136.513 161.515 128.63 166.293 120.087 169.745V92.1044H143.67V155.479Z" fill="black"/>
<path d="M174.888 92.1044C173.934 112.818 165.709 132.502 151.759 147.683V92.1044H174.888Z" fill="black"/>
<path d="M143.501 83.9479H119.782C119.713 83.4678 119.645 82.942 119.532 82.4619C119.441 81.9818 119.35 81.5016 119.236 81.0215C119.145 80.5414 119.009 80.0384 118.873 79.5812C118.214 77.2035 117.282 74.9401 116.124 72.8139C116.033 72.6082 115.897 72.3795 115.76 72.1738C115.669 71.968 115.533 71.7394 115.397 71.5336C115.147 71.0992 114.92 70.6877 114.624 70.2991C114.352 69.8647 114.079 69.4532 113.761 69.0645C113.511 68.7216 113.261 68.3786 112.988 68.0357C112.807 67.7842 112.602 67.5556 112.398 67.327C112.125 66.984 111.852 66.6639 111.534 66.3439C111.33 66.0924 111.125 65.8638 110.876 65.658C110.58 65.3608 110.308 65.0407 109.989 64.7663C109.649 64.4234 109.308 64.1033 108.944 63.7833C106.059 61.1998 102.719 59.1651 99.0613 57.7705C98.6296 57.6104 98.198 57.4504 97.7663 57.2903C97.3801 57.1532 96.9938 57.016 96.6076 56.9245C96.0623 56.7645 95.4943 56.6045 94.9263 56.4673C94.4492 56.353 93.9721 56.2387 93.495 56.1701C93.0179 56.0786 92.5181 55.9872 92.0182 55.9186C90.5415 55.69 89.0419 55.5985 87.497 55.5985C85.9521 55.5985 84.4526 55.69 82.9758 55.9186C82.476 55.9872 81.9761 56.0558 81.499 56.1701C81.0446 56.2615 80.613 56.353 80.1586 56.4673C79.5224 56.6045 78.909 56.7645 78.341 56.9474C77.9548 57.0389 77.5913 57.176 77.2277 57.2903C76.7961 57.4275 76.3871 57.5876 75.9782 57.7476C74.0015 58.5021 72.1385 59.4394 70.3664 60.5368C69.8893 60.834 69.4349 61.1541 68.9578 61.4742C67.9127 62.16 66.9585 62.9374 66.0042 63.7833C65.6407 64.1033 65.2999 64.4463 64.9591 64.7663C64.6638 65.0636 64.3457 65.3608 64.0958 65.658C63.755 65.9781 63.4369 66.321 63.1416 66.6868C61.5512 68.4701 60.1653 70.4362 59.0066 72.5396C58.8476 72.8368 58.6885 73.1797 58.5295 73.4769C58.325 73.8656 58.1205 74.2543 57.9615 74.6429C57.6889 75.1687 57.4617 75.7175 57.2572 76.289C57.0073 76.8834 56.7801 77.5007 56.5983 78.118C56.4393 78.5981 56.303 79.0325 56.1666 79.5355C55.8713 80.4957 55.6668 81.4559 55.5078 82.439C55.4169 82.9191 55.326 83.4449 55.2579 83.9251H31.5385C31.5385 83.7193 31.5385 83.5135 31.584 83.3306C31.584 83.1249 31.584 82.942 31.6521 82.7362C31.6521 82.4619 31.6976 82.2104 31.743 81.936C31.7885 81.4331 31.8339 80.9072 31.9475 80.4043C32.0157 79.8556 32.0838 79.3068 32.1974 78.781C32.311 78.0037 32.47 77.2492 32.6518 76.4948C32.7427 75.9461 32.879 75.3974 33.0153 74.8715C33.1062 74.4143 33.2425 73.9799 33.3561 73.5455C33.4243 73.2712 33.4924 73.0197 33.5833 72.7453C33.7424 72.1281 33.9241 71.5336 34.1286 70.9392C34.1967 70.7334 34.2422 70.5277 34.3558 70.2991C34.5603 69.6361 34.8102 68.973 35.0374 68.31C35.6735 66.6868 36.3551 65.0636 37.1049 63.5089C38.2636 61.1541 39.5586 58.9136 41.0126 56.7645C41.6942 55.7357 42.444 54.7526 43.2164 53.7695C43.58 53.2894 43.9662 52.7864 44.3751 52.3063C45.5111 50.9117 46.738 49.5857 48.0103 48.3283C48.6237 47.711 49.2599 47.1166 49.8733 46.545C50.4186 46.0192 50.9866 45.5162 51.5773 45.0361C51.9181 44.7389 52.2361 44.4874 52.5997 44.213C53.0086 43.8701 53.4403 43.55 53.8492 43.2071C54.4627 42.727 55.0988 42.2926 55.7122 41.8582C56.1894 41.5153 56.6437 41.1952 57.1436 40.898C57.4162 40.7151 57.6661 40.5322 57.9388 40.395C58.3704 40.0978 58.8021 39.8463 59.2565 39.5948C59.5519 39.4119 59.8472 39.229 60.1199 39.0919C60.597 38.7947 61.0968 38.5432 61.5966 38.2917C62.0283 38.0402 62.46 37.8116 62.8916 37.6287C63.1188 37.4915 63.3688 37.3772 63.596 37.2857C64.0731 37.0342 64.5502 36.8056 65.0273 36.6227C65.459 36.4398 65.8906 36.2569 66.2996 36.074C66.7313 35.914 67.1629 35.7311 67.5719 35.571C67.9354 35.4339 68.2762 35.2967 68.6397 35.1824C69.344 34.908 70.0711 34.6794 70.8208 34.4508C70.8662 34.4508 70.9117 34.4051 70.9344 34.4051C71.7977 34.1079 72.6838 33.8792 73.5699 33.6506C74.3423 33.4448 75.1375 33.2619 75.9327 33.1019C76.069 33.0562 76.2281 33.0105 76.4098 33.0105C77.0914 32.8733 77.8185 32.7132 78.5228 32.6218C79.7042 32.416 80.8856 32.2789 82.067 32.1417C83.8846 31.9588 85.6794 31.8673 87.5197 31.8673C89.36 31.8673 91.1776 31.9588 92.9725 32.1417C94.1766 32.256 95.358 32.416 96.5167 32.6218C97.221 32.7132 97.9481 32.8733 98.6296 33.0105C98.8114 33.0562 98.9932 33.079 99.1522 33.1248C99.9247 33.2619 100.674 33.4448 101.424 33.6277C101.492 33.6277 101.515 33.6735 101.583 33.6963C102.424 33.9021 103.242 34.1536 104.082 34.4051C104.151 34.4051 104.173 34.4051 104.241 34.4508C104.9 34.6565 105.559 34.8852 106.241 35.1138C106.809 35.3196 107.377 35.5253 107.922 35.7539C108.126 35.8454 108.331 35.914 108.535 36.0054C109.172 36.2569 109.785 36.5084 110.353 36.8056C110.626 36.8971 110.853 37.0114 111.103 37.1486C111.671 37.4 112.216 37.6515 112.739 37.9487C112.898 38.0173 113.057 38.0859 113.216 38.2002C113.92 38.5432 114.624 38.9318 115.306 39.3433C115.351 39.3433 115.374 39.3433 115.397 39.4119C116.124 39.8235 116.828 40.2578 117.555 40.7151C118.191 41.1038 118.805 41.5153 119.395 41.9497C120.009 42.3612 120.6 42.8184 121.19 43.2528C121.781 43.6872 122.349 44.1216 122.894 44.6017C122.985 44.6703 123.099 44.7389 123.19 44.8532C123.78 45.3333 124.348 45.8134 124.916 46.3392C125.007 46.4078 125.121 46.4993 125.212 46.6136C125.848 47.1851 126.461 47.7796 127.075 48.3969C128.347 49.6543 129.574 50.9803 130.71 52.3749C131.3 53.0608 131.846 53.7924 132.368 54.5011C132.914 55.2099 133.436 55.9415 133.959 56.6959C134.004 56.7416 134.027 56.7874 134.05 56.8331C135.526 59.0279 136.844 61.3141 138.003 63.7375C138.412 64.5606 138.798 65.3608 139.139 66.2295C139.502 67.0755 139.843 67.9214 140.161 68.7902C140.456 69.5446 140.706 70.2991 140.956 71.0535C141.093 71.4422 141.229 71.8308 141.32 72.2424C141.502 72.8368 141.661 73.4541 141.82 74.0485C142.047 74.8944 142.251 75.7175 142.433 76.5862C142.592 77.3178 142.728 78.0723 142.865 78.8267C142.956 79.3526 143.047 79.9013 143.115 80.45C143.206 80.953 143.274 81.4788 143.319 81.9818C143.365 82.2561 143.41 82.5076 143.41 82.7819C143.41 82.9877 143.478 83.1706 143.478 83.3764C143.478 83.5593 143.524 83.765 143.524 83.9708L143.501 83.9479Z" fill="black"/>
<path d="M111.514 83.9986H63.3711C63.4393 83.6329 63.5074 83.2899 63.5983 82.947C63.6892 82.604 63.7573 82.2611 63.8709 81.8953C63.9845 81.5295 64.0754 81.2094 64.1663 80.8436C64.3935 80.1806 64.6434 79.4948 64.916 78.8317C65.2114 78.1687 65.5067 77.5514 65.8248 76.9342C66.6654 75.3338 67.6424 73.8706 68.8238 72.4989C69.0056 72.2474 69.2328 72.0187 69.46 71.7901C70.1416 71.0128 70.8913 70.2812 71.7092 69.5953C71.9818 69.3667 72.2318 69.1381 72.5271 68.9323C73.0042 68.5665 73.5041 68.2007 74.0039 67.8578C74.6628 67.4234 75.3444 67.0119 76.0259 66.6461C76.4349 66.4175 76.8666 66.2117 77.2755 66.0059C77.321 66.0059 77.3664 65.9602 77.3891 65.9602C77.8662 65.7087 78.3888 65.503 78.8886 65.3201C78.9568 65.3201 79.0022 65.2515 79.0704 65.2515C79.4339 65.1143 79.7974 64.9771 80.1836 64.8628C80.5699 64.7485 80.9561 64.6342 81.3423 64.5427C81.7058 64.4513 82.0921 64.3598 82.4556 64.2684C82.501 64.2684 82.5465 64.2684 82.5465 64.2684C82.9327 64.1769 83.2962 64.1312 83.6824 64.0626C84.1596 63.9712 84.6594 63.9254 85.1592 63.8797C85.8863 63.8111 86.6133 63.7883 87.363 63.7883C88.1128 63.7883 88.8398 63.834 89.5668 63.8797C90.0667 63.9254 90.5665 63.9712 91.0436 64.0626C91.4299 64.1312 91.7934 64.1769 92.1796 64.2684C92.1796 64.2684 92.2478 64.2684 92.2705 64.2684C92.634 64.3598 93.0202 64.4284 93.3837 64.5427C93.77 64.6342 94.1562 64.7485 94.5424 64.8628C94.9287 64.9771 95.2922 65.1143 95.6557 65.2515C95.7239 65.2515 95.7693 65.2972 95.8374 65.3201C96.3827 65.5258 96.8826 65.7544 97.4051 65.9831C97.9731 66.2346 98.5411 66.5089 99.0864 66.8518C99.3817 66.989 99.6316 67.1491 99.9043 67.332C100.245 67.5377 100.563 67.7435 100.904 67.9721C101.336 68.2464 101.745 68.5436 102.154 68.8637C102.267 68.9552 102.381 69.0238 102.494 69.1381C102.903 69.4353 103.29 69.7782 103.676 70.144C103.926 70.3498 104.153 70.5784 104.38 70.807C104.834 71.2414 105.243 71.6987 105.675 72.1788C105.993 72.5446 106.334 72.9332 106.629 73.3448C106.993 73.802 107.311 74.2593 107.652 74.7394C107.947 75.1738 108.197 75.6081 108.47 76.0197C109.219 77.3 109.855 78.6717 110.378 80.0892C110.446 80.2721 110.514 80.4778 110.583 80.6607C110.696 81.0723 110.832 81.4838 110.946 81.8953C111.037 82.2382 111.128 82.5812 111.219 82.947C111.31 83.3128 111.378 83.6329 111.446 83.9986H111.514Z" fill="black"/>
<path d="M442.893 76.3343V101.963C441.802 100.866 440.121 99.814 437.895 98.808C435.645 97.825 432.964 97.322 429.829 97.322C421.491 97.322 414.766 100.18 409.631 105.895C404.519 111.588 401.952 119.338 401.952 129.146C401.952 133.125 402.634 136.828 403.974 140.235C405.337 143.664 407.223 146.636 409.631 149.197C412.04 151.735 414.834 153.701 417.992 155.118C421.127 156.513 424.422 157.199 427.875 157.199C431.624 157.199 434.691 156.467 437.145 154.981C439.598 153.518 441.439 151.826 442.688 149.906H442.915V155.85H462V76.3343H442.893ZM439.371 134.862C437.326 136.92 434.782 137.971 431.783 137.971C428.784 137.971 426.262 136.92 424.149 134.862C422.059 132.804 421.014 130.267 421.014 127.249C421.014 124.231 422.059 121.67 424.149 119.613C426.239 117.555 428.784 116.526 431.783 116.526C434.782 116.526 437.326 117.555 439.371 119.613C441.416 121.67 442.438 124.208 442.438 127.249C442.438 130.29 441.416 132.804 439.371 134.862Z" fill="black"/>
<path d="M292.054 98.6602L277.218 155.862H257.679L252.181 131.856L252.135 131.765L252.113 131.856L246.614 155.862H227.076L212.24 98.6602H231.392L236.868 124.7H237.095L242.639 98.6602H261.678L267.221 124.7H267.448L272.924 98.6602H292.054Z" fill="black"/>
<path d="M260.36 46.7395C259.451 44.659 258.202 42.9444 256.634 41.5955C255.066 40.2695 253.294 39.3092 251.363 38.7377C249.409 38.1432 247.387 37.846 245.274 37.846C242.48 37.846 239.958 38.4176 237.686 39.5379C235.414 40.681 233.301 42.3271 231.324 44.4533V16.8812H212.24V96.3967H231.324V65.0295C231.324 62.7432 231.71 60.8456 232.483 59.3367C233.255 57.8278 234.687 57.0733 236.822 57.0733C239.162 57.0733 240.73 57.8278 241.503 59.291C242.275 60.777 242.639 62.6746 242.639 65.0295V96.3967H261.746V54.307C261.746 51.3577 261.291 48.8429 260.36 46.7395Z" fill="black"/>
<path d="M347.482 124.758C347.254 121.557 346.505 118.493 345.278 115.59C343.733 111.955 341.62 108.777 338.894 106.033C336.19 103.313 333.009 101.164 329.397 99.632C325.784 98.0773 321.922 97.3 317.833 97.3C313.743 97.3 309.972 98.0773 306.359 99.632C302.747 101.164 299.566 103.313 296.817 106.033C294.091 108.754 291.932 111.955 290.41 115.59C288.865 119.225 288.093 123.112 288.093 127.25C288.093 131.388 288.865 135.137 290.41 138.795C291.932 142.43 294.091 145.654 296.817 148.397C299.566 151.164 302.747 153.313 306.359 154.868C309.972 156.399 313.811 157.177 317.833 157.177C321.854 157.177 325.784 156.399 329.397 154.868C333.009 153.313 336.19 151.164 338.894 148.397C341.597 145.631 343.733 142.43 345.278 138.795C346.505 135.892 347.232 132.874 347.482 129.696C347.55 128.896 347.595 128.073 347.595 127.25C347.595 126.427 347.573 125.581 347.482 124.758ZM325.421 134.863C323.376 136.921 320.854 137.972 317.855 137.972C314.856 137.972 312.312 136.921 310.267 134.863C308.222 132.805 307.2 130.268 307.2 127.25C307.2 124.232 308.222 121.671 310.267 119.614C312.312 117.556 314.834 116.527 317.855 116.527C320.877 116.527 323.376 117.556 325.421 119.614C327.466 121.671 328.488 124.209 328.488 127.25C328.488 130.29 327.466 132.805 325.421 134.863Z" fill="black"/>
<path d="M292.054 98.6602L277.218 155.862H257.679L252.181 131.856L252.135 131.765L252.113 131.856L246.614 155.862H227.076L212.24 98.6602H231.392L236.868 124.7H237.095L242.639 98.6602H261.678L267.221 124.7H267.448L272.924 98.6602H292.054Z" fill="black"/>
<path d="M357.5 16.841H338.688V96.3793H357.5V16.841Z" fill="black"/>
<path d="M260.36 46.7395C259.451 44.659 258.202 42.9444 256.634 41.5955C255.066 40.2695 253.294 39.3092 251.363 38.7377C249.409 38.1432 247.387 37.846 245.274 37.846C242.48 37.846 239.958 38.4176 237.686 39.5379C235.414 40.681 233.301 42.3271 231.324 44.4533V16.8812H212.24V96.3967H231.324V65.0295C231.324 62.7432 231.71 60.8456 232.483 59.3367C233.255 57.8278 234.687 57.0733 236.822 57.0733C239.162 57.0733 240.73 57.8278 241.503 59.291C242.275 60.777 242.639 62.6746 242.639 65.0295V96.3967H261.746V54.307C261.746 51.3577 261.291 48.8429 260.36 46.7395Z" fill="black"/>
<path d="M420.09 42.4294C419.84 39.1829 419.09 36.0736 417.863 33.1244C416.296 29.4207 414.137 26.1971 411.388 23.4307C408.662 20.6643 405.436 18.4924 401.755 16.9378C398.075 15.3603 394.167 14.5829 390.032 14.5829C385.897 14.5829 382.057 15.3603 378.399 16.9378C374.719 18.4924 371.515 20.6872 368.721 23.4307C365.949 26.1971 363.768 29.4207 362.223 33.1244C360.655 36.8281 359.883 40.7604 359.883 44.9442C359.883 49.128 360.655 52.9461 362.223 56.6498C363.768 60.3535 365.949 63.6 368.721 66.3892C371.515 69.1784 374.741 71.3732 378.399 72.9507C382.08 74.5053 385.942 75.3055 390.032 75.3055C394.121 75.3055 398.097 74.5282 401.755 72.9507C405.436 71.3732 408.639 69.2013 411.388 66.3892C414.137 63.6 416.296 60.3306 417.863 56.6498C419.09 53.7234 419.84 50.637 420.09 47.4362C420.158 46.6132 420.203 45.7901 420.203 44.9442C420.203 44.0983 420.181 43.2524 420.09 42.4065V42.4294ZM397.711 52.6717C395.644 54.7522 393.076 55.8267 390.032 55.8267C386.987 55.8267 384.42 54.7751 382.353 52.6717C380.285 50.5912 379.24 48.0078 379.24 44.9442C379.24 41.8807 380.285 39.2972 382.353 37.2167C384.42 35.1363 386.987 34.0846 390.032 34.0846C393.076 34.0846 395.621 35.1363 397.711 37.2167C399.779 39.2972 400.824 41.8807 400.824 44.9442C400.824 48.0078 399.779 50.5684 397.711 52.6717Z" fill="black"/>
<path d="M317.452 16.8812V53.2782C317.156 52.5694 316.884 51.8835 316.565 51.2434C315.634 49.1858 314.203 47.0824 312.34 45.002C312.09 44.7276 311.84 44.4533 311.567 44.2018C311.317 43.9503 311.045 43.6988 310.772 43.4702C309.954 42.7614 309.068 42.0984 308.091 41.4812C307.114 40.8867 306.069 40.3152 304.91 39.8351C303.025 39.012 300.866 38.4405 298.481 38.1432C297.004 37.9603 295.459 37.8689 293.823 37.8689C293.392 37.8689 292.983 37.8689 292.551 37.8689C291.71 37.9375 290.87 37.9832 290.029 38.0975C289.597 38.1661 289.166 38.2118 288.757 38.2804H288.711C288.28 38.349 287.848 38.4633 287.416 38.5319C286.576 38.7377 285.735 38.9663 284.872 39.2178H284.826C284.395 39.3549 283.963 39.4921 283.531 39.6522C280.055 40.8639 276.829 42.7386 273.875 45.2763C270.922 47.814 268.513 50.9919 266.719 54.7871C264.946 58.5822 264.038 62.949 264.038 67.8872C264.038 73.4199 264.969 78.1525 266.878 82.0619C268.763 86.0171 271.24 89.1264 274.239 91.3898C277.238 93.676 280.328 95.2993 283.508 96.2595C286.689 97.2197 289.62 97.6998 292.233 97.6998C294.846 97.6998 297.299 97.5169 299.548 97.1511C301.775 96.8311 303.797 96.3052 305.66 95.6193C306.592 95.2764 307.523 94.9106 308.386 94.5219C310.136 93.7675 311.817 92.9673 313.408 92.0985C314.294 91.6413 315.157 91.1612 315.975 90.6353L316.066 90.5668H316.111L317.429 89.7666V96.3738H336.286V16.8812H317.429H317.452ZM285.076 57.2334C286.008 56.296 287.053 55.5873 288.189 55.13C288.575 54.97 288.961 54.8328 289.347 54.7414C289.552 54.6728 289.779 54.627 290.029 54.5813C290.62 54.467 291.279 54.3984 291.915 54.3984C292.733 54.3984 293.641 54.4899 294.596 54.6956C294.891 54.7642 295.232 54.8328 295.55 54.9014C296.822 55.2215 297.708 55.7244 298.231 56.4103L282.759 68.093H282.691V67.7729C282.395 66.5155 282.259 65.601 282.259 65.0066C282.259 61.6915 283.19 59.1081 285.053 57.2105L285.076 57.2334ZM317.452 69.3047L314.839 71.8882C314.839 71.8882 314.824 71.9034 314.793 71.9339C314.066 72.7341 313.248 73.4657 312.317 74.1744C312.317 74.1744 312.317 74.1744 312.272 74.1744C311.658 74.6774 310.999 75.1346 310.295 75.569C309.204 76.2549 308.023 76.9179 306.728 77.558C304.615 78.5868 302.547 79.2956 300.594 79.6842C300.185 79.7528 299.798 79.8443 299.412 79.8671C298.617 79.9586 297.845 80.0272 297.049 80.0272C295.822 80.0272 294.55 79.8671 293.232 79.5471C291.915 79.2041 291.006 78.8841 290.506 78.4954L317.497 59.2452V69.2818L317.452 69.3047Z" fill="black"/>
<path d="M399.526 78.4343V155.984H380.419V117.986C376.125 118.101 373.194 118.901 371.649 120.387C369.968 122.01 369.128 124.616 369.128 128.229V155.961H350.02V98.7132H369.128V104.475H369.332C370.491 102.257 372.013 100.748 373.853 99.925C375.444 99.2162 377.647 98.8047 380.442 98.7361V78.4114H399.549L399.526 78.4343Z" fill="black"/>
<path d="M174.896 83.9737H151.631C151.631 83.6764 151.585 83.3792 151.54 83.1049C151.495 82.5333 151.449 81.9618 151.381 81.3902C151.335 80.8872 151.29 80.3614 151.199 79.8813C150.995 78.258 150.722 76.6805 150.381 75.103C150.29 74.6686 150.222 74.2343 150.086 73.8227C149.586 71.6051 148.95 69.4332 148.2 67.307C147.905 66.3696 147.541 65.4322 147.155 64.5177C146.792 63.5347 146.383 62.5744 145.928 61.6371C145.587 60.8598 145.224 60.1053 144.838 59.3508C144.292 58.2534 143.702 57.156 143.066 56.0815C142.566 55.1899 142.02 54.2754 141.452 53.4295C141.18 52.9951 140.907 52.5607 140.589 52.1492C140.294 51.7148 139.998 51.2804 139.726 50.8917C139.43 50.4574 139.135 50.0458 138.817 49.6572C138.226 48.8113 137.567 48.0339 136.909 47.2338C136.568 46.8222 136.25 46.4336 135.886 46.0449C135.614 45.7248 135.364 45.3819 135.023 45.0847C134.637 44.6274 134.205 44.193 133.796 43.7587C133.455 43.37 133.092 43.0042 132.728 42.6613C132.365 42.2955 132.001 41.9525 131.638 41.5867C131.251 41.2209 130.888 40.878 130.502 40.5351C129.343 39.4834 128.161 38.4774 126.98 37.5401C126.571 37.22 126.162 36.8771 125.73 36.6027C124.89 35.9397 124.072 35.3682 123.209 34.7966C122.3 34.1565 121.346 33.562 120.391 32.9905C120.028 32.739 119.664 32.5104 119.278 32.3275C117.824 31.4815 116.325 30.7042 114.802 29.9498C114.462 29.7897 114.121 29.6297 113.757 29.4697C113.757 29.4697 113.742 29.4697 113.712 29.4697C113.03 29.1724 112.326 28.8524 111.644 28.578C111.372 28.4866 111.144 28.3723 110.872 28.2808C110.236 28.0293 109.622 27.8007 108.963 27.5492C108.055 27.252 107.146 26.9091 106.214 26.6576C105.828 26.5433 105.442 26.4061 105.056 26.3146C105.01 26.3146 104.965 26.2689 104.919 26.2689C104.26 26.0632 103.579 25.8803 102.897 25.7202C101.784 25.423 100.671 25.1944 99.5347 24.9886C98.6487 24.8057 97.7171 24.6457 96.7856 24.5085C95.7633 24.3485 94.7409 24.2113 93.6958 24.1199C92.6961 24.0284 91.6964 23.9598 90.7195 23.8912H90.6059C89.5608 23.8226 88.493 23.7998 87.4479 23.7998C86.4028 23.7998 85.3349 23.7998 84.2898 23.8912H84.1762C83.1766 23.9598 82.1769 24.0055 81.2 24.1199C80.1549 24.2113 79.1325 24.3485 78.1101 24.5085C77.1786 24.6228 76.2698 24.8057 75.361 24.9886C74.225 25.1944 73.1118 25.4459 71.9985 25.7202C71.3169 25.8803 70.6353 26.0632 69.9765 26.2689C69.9083 26.2689 69.8856 26.2689 69.8401 26.3146C69.4539 26.4061 69.0677 26.5433 68.6815 26.6576C67.7727 26.9319 66.8639 27.252 65.9324 27.5492C65.2735 27.8007 64.6601 28.0293 64.0239 28.2808C63.7513 28.3723 63.5241 28.4866 63.2515 28.578C62.5699 28.8752 61.8656 29.1724 61.184 29.4697C61.184 29.4697 61.1688 29.4697 61.1385 29.4697C60.8205 29.6068 60.4797 29.7669 60.1843 29.9269C58.6167 30.6585 57.0944 31.4587 55.6177 32.3275C55.2996 32.4875 54.9815 32.6704 54.6862 32.8762C53.5275 33.562 52.3688 34.3165 51.2555 35.0709C50.5966 35.5282 49.9378 35.9854 49.2789 36.5113C49.2107 36.557 49.1653 36.6027 49.0744 36.6485C48.6882 36.9228 48.3247 37.1971 47.9384 37.5172C46.7116 38.4546 45.5529 39.4605 44.4169 40.5122C44.0307 40.8323 43.6444 41.1752 43.2809 41.5639C42.9174 41.9525 42.5539 42.2726 42.1904 42.6384C41.8268 42.9813 41.4633 43.3471 41.1225 43.7358C40.0547 44.8332 39.0323 45.9992 38.0327 47.2109C37.6919 47.5995 37.3738 48.0111 37.0557 48.4226C36.7604 48.8113 36.4196 49.2228 36.1242 49.6572C35.8061 50.0687 35.4881 50.4802 35.2154 50.8917C34.5111 51.8748 33.8068 52.9036 33.1707 53.9324C32.8072 54.504 32.4436 55.0984 32.1028 55.7157C31.7848 56.2644 31.444 56.8131 31.1486 57.3847C30.8078 58.0477 30.4443 58.6878 30.1035 59.3737C29.7173 60.1282 29.3538 60.8826 29.013 61.6599C28.6495 62.4373 28.3087 63.2374 27.9679 64.0376C27.6725 64.7921 27.3544 65.5465 27.0818 66.3239C26.7864 67.1698 26.4911 67.9928 26.2185 68.8616C26.2185 68.9073 26.2185 68.953 26.173 68.9759C25.8777 69.8447 25.6505 70.7363 25.4006 71.628C25.1961 72.3595 25.0143 73.0911 24.8553 73.8227C24.7417 74.2571 24.6508 74.6915 24.5599 75.103C24.5145 75.2402 24.4918 75.3774 24.469 75.4917C24.31 76.2462 24.1737 77.0235 24.0374 77.7779C23.9238 78.4638 23.8102 79.1725 23.742 79.8813C23.6511 80.3614 23.6057 80.8872 23.5603 81.3902C23.4921 81.9618 23.4467 82.5333 23.4012 83.1049C23.3558 83.4021 23.3331 83.6993 23.3103 83.9737H0C2.11293 37.3115 40.5318 0 87.4479 0C134.364 0 172.783 37.3115 174.896 83.9737Z" fill="black"/>
<path d="M83.3811 92.1044V113.001H3.49882C1.4995 106.21 0.340795 99.1917 0 92.1044H83.3811Z" fill="black"/>
<path d="M83.3767 121.158V144.889H20.6705C14.6271 137.733 9.83326 129.777 6.33444 121.158H83.3767Z" fill="black"/>
<path d="M83.4357 153.092V176C63.0335 175.04 43.6309 166.901 28.5451 153.092H83.4357Z" fill="black"/>
<path d="M111.94 92.1044V172.58C105.283 174.523 98.4447 175.667 91.5152 175.964V92.1044H111.94Z" fill="black"/>
<path d="M143.67 155.479C136.513 161.515 128.63 166.293 120.087 169.745V92.1044H143.67V155.479Z" fill="black"/>
<path d="M174.888 92.1044C173.934 112.818 165.709 132.502 151.759 147.683V92.1044H174.888Z" fill="black"/>
<path d="M143.501 83.9479H119.782C119.713 83.4678 119.645 82.942 119.532 82.4619C119.441 81.9818 119.35 81.5016 119.236 81.0215C119.145 80.5414 119.009 80.0384 118.873 79.5812C118.214 77.2035 117.282 74.9401 116.124 72.8139C116.033 72.6082 115.897 72.3795 115.76 72.1738C115.669 71.968 115.533 71.7394 115.397 71.5336C115.147 71.0992 114.92 70.6877 114.624 70.2991C114.352 69.8647 114.079 69.4532 113.761 69.0645C113.511 68.7216 113.261 68.3786 112.988 68.0357C112.807 67.7842 112.602 67.5556 112.398 67.327C112.125 66.984 111.852 66.6639 111.534 66.3439C111.33 66.0924 111.125 65.8638 110.876 65.658C110.58 65.3608 110.308 65.0407 109.989 64.7663C109.649 64.4234 109.308 64.1033 108.944 63.7833C106.059 61.1998 102.719 59.1651 99.0613 57.7705C98.6296 57.6104 98.198 57.4504 97.7663 57.2903C97.3801 57.1532 96.9938 57.016 96.6076 56.9245C96.0623 56.7645 95.4943 56.6045 94.9263 56.4673C94.4492 56.353 93.9721 56.2387 93.495 56.1701C93.0179 56.0786 92.5181 55.9872 92.0182 55.9186C90.5415 55.69 89.0419 55.5985 87.497 55.5985C85.9521 55.5985 84.4526 55.69 82.9758 55.9186C82.476 55.9872 81.9761 56.0558 81.499 56.1701C81.0446 56.2615 80.613 56.353 80.1586 56.4673C79.5224 56.6045 78.909 56.7645 78.341 56.9474C77.9548 57.0389 77.5913 57.176 77.2277 57.2903C76.7961 57.4275 76.3871 57.5876 75.9782 57.7476C74.0015 58.5021 72.1385 59.4394 70.3664 60.5368C69.8893 60.834 69.4349 61.1541 68.9578 61.4742C67.9127 62.16 66.9585 62.9374 66.0042 63.7833C65.6407 64.1033 65.2999 64.4463 64.9591 64.7663C64.6638 65.0636 64.3457 65.3608 64.0958 65.658C63.755 65.9781 63.4369 66.321 63.1416 66.6868C61.5512 68.4701 60.1653 70.4362 59.0066 72.5396C58.8476 72.8368 58.6885 73.1797 58.5295 73.4769C58.325 73.8656 58.1205 74.2543 57.9615 74.6429C57.6889 75.1687 57.4617 75.7175 57.2572 76.289C57.0073 76.8834 56.7801 77.5007 56.5983 78.118C56.4393 78.5981 56.303 79.0325 56.1666 79.5355C55.8713 80.4957 55.6668 81.4559 55.5078 82.439C55.4169 82.9191 55.326 83.4449 55.2579 83.9251H31.5385C31.5385 83.7193 31.5385 83.5135 31.584 83.3306C31.584 83.1249 31.584 82.942 31.6521 82.7362C31.6521 82.4619 31.6976 82.2104 31.743 81.936C31.7885 81.4331 31.8339 80.9072 31.9475 80.4043C32.0157 79.8556 32.0838 79.3068 32.1974 78.781C32.311 78.0037 32.47 77.2492 32.6518 76.4948C32.7427 75.9461 32.879 75.3974 33.0153 74.8715C33.1062 74.4143 33.2425 73.9799 33.3561 73.5455C33.4243 73.2712 33.4924 73.0197 33.5833 72.7453C33.7424 72.1281 33.9241 71.5336 34.1286 70.9392C34.1967 70.7334 34.2422 70.5277 34.3558 70.2991C34.5603 69.6361 34.8102 68.973 35.0374 68.31C35.6735 66.6868 36.3551 65.0636 37.1049 63.5089C38.2636 61.1541 39.5586 58.9136 41.0126 56.7645C41.6942 55.7357 42.444 54.7526 43.2164 53.7695C43.58 53.2894 43.9662 52.7864 44.3751 52.3063C45.5111 50.9117 46.738 49.5857 48.0103 48.3283C48.6237 47.711 49.2599 47.1166 49.8733 46.545C50.4186 46.0192 50.9866 45.5162 51.5773 45.0361C51.9181 44.7389 52.2361 44.4874 52.5997 44.213C53.0086 43.8701 53.4403 43.55 53.8492 43.2071C54.4627 42.727 55.0988 42.2926 55.7122 41.8582C56.1894 41.5153 56.6437 41.1952 57.1436 40.898C57.4162 40.7151 57.6661 40.5322 57.9388 40.395C58.3704 40.0978 58.8021 39.8463 59.2565 39.5948C59.5519 39.4119 59.8472 39.229 60.1199 39.0919C60.597 38.7947 61.0968 38.5432 61.5966 38.2917C62.0283 38.0402 62.46 37.8116 62.8916 37.6287C63.1188 37.4915 63.3688 37.3772 63.596 37.2857C64.0731 37.0342 64.5502 36.8056 65.0273 36.6227C65.459 36.4398 65.8906 36.2569 66.2996 36.074C66.7313 35.914 67.1629 35.7311 67.5719 35.571C67.9354 35.4339 68.2762 35.2967 68.6397 35.1824C69.344 34.908 70.0711 34.6794 70.8208 34.4508C70.8662 34.4508 70.9117 34.4051 70.9344 34.4051C71.7977 34.1079 72.6838 33.8792 73.5699 33.6506C74.3423 33.4448 75.1375 33.2619 75.9327 33.1019C76.069 33.0562 76.2281 33.0105 76.4098 33.0105C77.0914 32.8733 77.8185 32.7132 78.5228 32.6218C79.7042 32.416 80.8856 32.2789 82.067 32.1417C83.8846 31.9588 85.6794 31.8673 87.5197 31.8673C89.36 31.8673 91.1776 31.9588 92.9725 32.1417C94.1766 32.256 95.358 32.416 96.5167 32.6218C97.221 32.7132 97.9481 32.8733 98.6296 33.0105C98.8114 33.0562 98.9932 33.079 99.1522 33.1248C99.9247 33.2619 100.674 33.4448 101.424 33.6277C101.492 33.6277 101.515 33.6735 101.583 33.6963C102.424 33.9021 103.242 34.1536 104.082 34.4051C104.151 34.4051 104.173 34.4051 104.241 34.4508C104.9 34.6565 105.559 34.8852 106.241 35.1138C106.809 35.3196 107.377 35.5253 107.922 35.7539C108.126 35.8454 108.331 35.914 108.535 36.0054C109.172 36.2569 109.785 36.5084 110.353 36.8056C110.626 36.8971 110.853 37.0114 111.103 37.1486C111.671 37.4 112.216 37.6515 112.739 37.9487C112.898 38.0173 113.057 38.0859 113.216 38.2002C113.92 38.5432 114.624 38.9318 115.306 39.3433C115.351 39.3433 115.374 39.3433 115.397 39.4119C116.124 39.8235 116.828 40.2578 117.555 40.7151C118.191 41.1038 118.805 41.5153 119.395 41.9497C120.009 42.3612 120.6 42.8184 121.19 43.2528C121.781 43.6872 122.349 44.1216 122.894 44.6017C122.985 44.6703 123.099 44.7389 123.19 44.8532C123.78 45.3333 124.348 45.8134 124.916 46.3392C125.007 46.4078 125.121 46.4993 125.212 46.6136C125.848 47.1851 126.461 47.7796 127.075 48.3969C128.347 49.6543 129.574 50.9803 130.71 52.3749C131.3 53.0608 131.846 53.7924 132.368 54.5011C132.914 55.2099 133.436 55.9415 133.959 56.6959C134.004 56.7416 134.027 56.7874 134.05 56.8331C135.526 59.0279 136.844 61.3141 138.003 63.7375C138.412 64.5606 138.798 65.3608 139.139 66.2295C139.502 67.0755 139.843 67.9214 140.161 68.7902C140.456 69.5446 140.706 70.2991 140.956 71.0535C141.093 71.4422 141.229 71.8308 141.32 72.2424C141.502 72.8368 141.661 73.4541 141.82 74.0485C142.047 74.8944 142.251 75.7175 142.433 76.5862C142.592 77.3178 142.728 78.0723 142.865 78.8267C142.956 79.3526 143.047 79.9013 143.115 80.45C143.206 80.953 143.274 81.4788 143.319 81.9818C143.365 82.2561 143.41 82.5076 143.41 82.7819C143.41 82.9877 143.478 83.1706 143.478 83.3764C143.478 83.5593 143.524 83.765 143.524 83.9708L143.501 83.9479Z" fill="black"/>
<path d="M111.514 83.9986H63.3711C63.4393 83.6329 63.5074 83.2899 63.5983 82.947C63.6892 82.604 63.7573 82.2611 63.8709 81.8953C63.9845 81.5295 64.0754 81.2094 64.1663 80.8436C64.3935 80.1806 64.6434 79.4948 64.916 78.8317C65.2114 78.1687 65.5067 77.5514 65.8248 76.9342C66.6654 75.3338 67.6424 73.8706 68.8238 72.4989C69.0056 72.2474 69.2328 72.0187 69.46 71.7901C70.1416 71.0128 70.8913 70.2812 71.7092 69.5953C71.9818 69.3667 72.2318 69.1381 72.5271 68.9323C73.0042 68.5665 73.5041 68.2007 74.0039 67.8578C74.6628 67.4234 75.3444 67.0119 76.0259 66.6461C76.4349 66.4175 76.8666 66.2117 77.2755 66.0059C77.321 66.0059 77.3664 65.9602 77.3891 65.9602C77.8662 65.7087 78.3888 65.503 78.8886 65.3201C78.9568 65.3201 79.0022 65.2515 79.0704 65.2515C79.4339 65.1143 79.7974 64.9771 80.1836 64.8628C80.5699 64.7485 80.9561 64.6342 81.3423 64.5427C81.7058 64.4513 82.0921 64.3598 82.4556 64.2684C82.501 64.2684 82.5465 64.2684 82.5465 64.2684C82.9327 64.1769 83.2962 64.1312 83.6824 64.0626C84.1596 63.9712 84.6594 63.9254 85.1592 63.8797C85.8863 63.8111 86.6133 63.7883 87.363 63.7883C88.1128 63.7883 88.8398 63.834 89.5668 63.8797C90.0667 63.9254 90.5665 63.9712 91.0436 64.0626C91.4299 64.1312 91.7934 64.1769 92.1796 64.2684C92.1796 64.2684 92.2478 64.2684 92.2705 64.2684C92.634 64.3598 93.0202 64.4284 93.3837 64.5427C93.77 64.6342 94.1562 64.7485 94.5424 64.8628C94.9287 64.9771 95.2922 65.1143 95.6557 65.2515C95.7239 65.2515 95.7693 65.2972 95.8374 65.3201C96.3827 65.5258 96.8826 65.7544 97.4051 65.9831C97.9731 66.2346 98.5411 66.5089 99.0864 66.8518C99.3817 66.989 99.6316 67.1491 99.9043 67.332C100.245 67.5377 100.563 67.7435 100.904 67.9721C101.336 68.2464 101.745 68.5436 102.154 68.8637C102.267 68.9552 102.381 69.0238 102.494 69.1381C102.903 69.4353 103.29 69.7782 103.676 70.144C103.926 70.3498 104.153 70.5784 104.38 70.807C104.834 71.2414 105.243 71.6987 105.675 72.1788C105.993 72.5446 106.334 72.9332 106.629 73.3448C106.993 73.802 107.311 74.2593 107.652 74.7394C107.947 75.1738 108.197 75.6081 108.47 76.0197C109.219 77.3 109.855 78.6717 110.378 80.0892C110.446 80.2721 110.514 80.4778 110.583 80.6607C110.696 81.0723 110.832 81.4838 110.946 81.8953C111.037 82.2382 111.128 82.5812 111.219 82.947C111.31 83.3128 111.378 83.6329 111.446 83.9986H111.514Z" fill="black"/>
</svg>
