<svg width="40" height="40" viewBox="0 0 40 40" fill="none" xmlns="http://www.w3.org/2000/svg">
<path d="M20 0C8.95469 0 0 8.95469 0 20C0 31.0453 8.95469 40 20 40C31.0453 40 40 31.0453 40 20C40 8.95469 31.0453 0 20 0ZM13.3891 10.9211L13.4055 10.9102L13.4227 10.9008C14.4304 10.3526 15.5021 9.9312 16.6133 9.64609C17.7087 9.36408 18.8352 9.22051 19.9664 9.21875C21.115 9.21828 22.259 9.36185 23.3719 9.64609C24.467 9.92623 25.5283 10.3252 26.5367 10.8359C26.6415 10.877 26.7335 10.9453 26.8031 11.0337C26.8727 11.1221 26.9175 11.2276 26.9328 11.3391C26.9559 11.508 26.9167 11.6796 26.8227 11.8219C26.7479 11.9329 26.6481 12.0247 26.5313 12.0898C26.4339 12.1459 26.3233 12.175 26.2109 12.1742C26.1134 12.1736 26.0168 12.1542 25.9266 12.1172L25.9109 12.1109L25.8953 12.1031C24.9717 11.6505 24.0045 11.293 23.0086 11.0359C22.0148 10.7797 20.9927 10.65 19.9664 10.65C18.9486 10.6502 17.9345 10.7729 16.9461 11.0156C15.9668 11.2576 15.0219 11.622 14.1336 12.1L14.1117 12.1117L14.0883 12.1211C13.9959 12.1597 13.897 12.1804 13.7969 12.182C13.6929 12.1832 13.5906 12.1562 13.5008 12.1039C13.4087 12.0463 13.329 11.9709 13.2664 11.882C13.1672 11.7609 13.115 11.6081 13.1195 11.4516C13.1164 11.3476 13.1394 11.2446 13.1865 11.1519C13.2336 11.0592 13.3033 10.9798 13.3891 10.9211ZM18.3 29.9219C18.2757 30.0812 18.1999 30.2283 18.0844 30.3406C17.9875 30.4328 17.8703 30.5007 17.7422 30.5391C17.68 30.5599 17.6148 30.5704 17.5492 30.5703C17.453 30.5687 17.3584 30.5457 17.2722 30.503C17.186 30.4603 17.1104 30.3989 17.0508 30.3234C16.0297 29.2648 15.2203 28.1359 14.6453 26.9641C14.0578 25.7703 13.7594 24.3742 13.7594 22.8141C13.7594 21.1594 14.3766 19.7461 15.5938 18.6125C16.8109 17.4789 18.2734 16.9164 19.9688 16.9164C21.6641 16.9164 23.1406 17.4867 24.3656 18.6102C25.5906 19.7336 26.2281 21.1578 26.2281 22.8141C26.2333 22.9078 26.2187 23.0015 26.1852 23.0892C26.1517 23.1768 26.1001 23.2564 26.0337 23.3228C25.9674 23.3892 25.8878 23.4408 25.8001 23.4743C25.7124 23.5078 25.6187 23.5224 25.525 23.5172C25.3468 23.5213 25.173 23.462 25.0344 23.35C24.9581 23.2838 24.8974 23.2014 24.8569 23.1088C24.8164 23.0163 24.7969 22.9158 24.8 22.8148C24.8 21.5383 24.3359 20.4961 23.382 19.6289C22.4156 18.75 21.3 18.3227 19.9719 18.3227C18.6437 18.3227 17.5344 18.75 16.5859 19.6281C15.6375 20.5063 15.1906 21.5391 15.1906 22.8172C15.1906 24.2062 15.432 25.4008 15.907 26.368C16.3922 27.3547 17.1258 28.3594 18.0875 29.3539C18.1659 29.4245 18.2262 29.513 18.2632 29.6119C18.3002 29.7108 18.3128 29.8171 18.3 29.9219ZM27.0961 28.0805C27.0503 28.1681 26.9849 28.244 26.9052 28.3023C26.8254 28.3607 26.7333 28.4 26.6359 28.4172C26.3418 28.5035 26.0388 28.5559 25.7328 28.5734C25.4133 28.5859 25.3273 28.5867 25.2906 28.5867C23.6672 28.5867 22.2438 28.0398 21.0508 26.9602C19.8484 25.8664 19.2383 24.4758 19.2383 22.8195C19.2341 22.6411 19.2933 22.467 19.4055 22.3281C19.4731 22.2534 19.5557 22.1936 19.6479 22.1527C19.7401 22.1118 19.8398 22.0907 19.9406 22.0907C20.0415 22.0907 20.1412 22.1118 20.2333 22.1527C20.3255 22.1936 20.4081 22.2534 20.4758 22.3281C20.5886 22.4667 20.6481 22.6409 20.6437 22.8195C20.6437 24.093 21.0969 25.1125 22.0305 25.9359C22.9805 26.7742 24.0469 27.182 25.2906 27.182C25.4141 27.182 25.5656 27.1734 25.7414 27.1578C25.9172 27.1422 26.1156 27.1172 26.3258 27.0852C26.3737 27.0759 26.4223 27.0712 26.4711 27.0711C26.6247 27.0692 26.774 27.1221 26.8922 27.2203C27.0034 27.3094 27.0869 27.4284 27.1328 27.5633L27.1383 27.5789L27.1422 27.5961C27.1857 27.7578 27.1693 27.9298 27.0961 28.0805ZM27.9461 25.1562C27.2948 25.7783 26.4247 26.1188 25.5242 26.1039C24.6099 26.1195 23.7249 25.7814 23.0539 25.1602C22.3578 24.5242 22.0047 23.7359 22.0047 22.8164C22.0115 22.5615 21.962 22.3082 21.8598 22.0746C21.7576 21.841 21.6051 21.6328 21.4133 21.4648C21.0225 21.098 20.5038 20.8984 19.968 20.9086C19.4275 20.8998 18.9045 21.0999 18.5078 21.4672C18.3134 21.6331 18.1585 21.8404 18.0543 22.0738C17.9501 22.3072 17.8992 22.5609 17.9055 22.8164C17.9055 24.4859 18.4148 25.8937 19.4187 27.0016C20.4437 28.132 21.7406 28.9367 23.2734 29.3937L23.2875 29.3984C23.3824 29.4238 23.4711 29.4681 23.5486 29.5284C23.626 29.5888 23.6905 29.6642 23.7383 29.75C23.8093 29.9094 23.8241 30.0882 23.7802 30.2571C23.7364 30.426 23.6365 30.575 23.4969 30.6797C23.3972 30.746 23.2799 30.7811 23.1602 30.7805C23.0751 30.7796 22.9908 30.7643 22.9109 30.7352C21.0648 30.2664 19.5227 29.3234 18.3273 27.9391C17.1148 26.5328 16.5008 24.8141 16.5008 22.8164C16.4935 22.3708 16.582 21.9289 16.7604 21.5205C16.9387 21.1121 17.2026 20.7468 17.5344 20.4492C18.1989 19.8407 19.0673 19.5031 19.9684 19.5031C20.8694 19.5031 21.7378 19.8407 22.4023 20.4492C22.7345 20.7467 22.9988 21.1121 23.1774 21.5207C23.356 21.9292 23.4447 22.3714 23.4375 22.8172C23.4339 23.0691 23.487 23.3185 23.5929 23.5471C23.6988 23.7756 23.8547 23.9774 24.0492 24.1375C24.4523 24.5053 24.9802 24.7058 25.5258 24.6984C26.0525 24.7038 26.5606 24.5037 26.9422 24.1406C27.1322 23.9762 27.2837 23.772 27.3859 23.5425C27.4881 23.3129 27.5385 23.0637 27.5336 22.8125C27.5336 20.8055 26.8078 19.1719 25.3148 17.8172C23.8219 16.4625 22.0336 15.7859 19.9664 15.7859C17.8992 15.7859 16.1031 16.4695 14.6187 17.8172C13.1344 19.1648 12.4 20.8055 12.4 22.8125C12.4109 23.3325 12.4568 23.8511 12.5375 24.3648C12.6568 25.1048 12.8521 25.8306 13.1203 26.5305C13.2445 26.8484 13.1305 27.0609 13.0516 27.1602C12.9863 27.241 12.9088 27.3111 12.8219 27.368L12.7992 27.3836L12.7742 27.3961C12.6678 27.4486 12.5506 27.4753 12.432 27.4742C12.3739 27.4742 12.316 27.4677 12.2594 27.4547C12.1497 27.4305 12.0478 27.379 11.9633 27.305C11.8788 27.2309 11.8143 27.1368 11.7758 27.0312L11.7711 27.0211V27.0102C11.5404 26.3359 11.3576 25.6461 11.2242 24.9461C11.0906 24.2417 11.0231 23.5263 11.0227 22.8094C11.0227 20.4656 11.9219 18.4422 13.6961 16.7859C15.4703 15.1297 17.5719 14.3016 19.9688 14.3016C22.4164 14.3016 24.5477 15.1242 26.3047 16.7453C28.0617 18.3664 28.9672 20.4172 28.9672 22.8094C28.9736 23.2507 28.8859 23.6883 28.7098 24.093C28.5337 24.4977 28.2734 24.8601 27.9461 25.1562ZM29.8211 17.1531C29.7936 17.3045 29.7186 17.4433 29.607 17.5492C29.5347 17.6224 29.4473 17.6788 29.3508 17.7145C29.2544 17.7502 29.1512 17.7643 29.0487 17.7558C28.9462 17.7474 28.8468 17.7165 28.7575 17.6654C28.6683 17.6143 28.5913 17.5442 28.532 17.4602L28.525 17.4516L28.5188 17.4422C27.5613 16.1064 26.2811 15.0348 24.7977 14.3273C23.2897 13.6017 21.6367 13.2277 19.9633 13.2336C18.3024 13.2251 16.6623 13.6031 15.1727 14.3375C13.7024 15.061 12.4278 16.1274 11.4562 17.4469L11.4516 17.4531L11.4461 17.4602C11.3422 17.6034 11.1956 17.7101 11.0273 17.7648C10.9675 17.7814 10.9058 17.7898 10.8438 17.7898C10.729 17.7899 10.6159 17.7631 10.5133 17.7117C10.4075 17.6604 10.3184 17.5801 10.2566 17.48C10.1948 17.38 10.1627 17.2645 10.1641 17.1469C10.1639 17.0014 10.1979 16.858 10.2633 16.7281L10.2789 16.6961L10.3 16.6672C11.3903 15.1462 12.8395 13.9182 14.5187 13.0922C16.2107 12.2553 18.0741 11.8236 19.9617 11.8313C21.8491 11.824 23.7134 12.2455 25.4141 13.0641C27.1069 13.8755 28.5715 15.0952 29.6758 16.6133L29.6875 16.6297L29.6977 16.6469C29.8007 16.7943 29.8457 16.9746 29.8242 17.1531H29.8211Z" fill="black"/>
<path d="M20 0C8.95469 0 0 8.95469 0 20C0 31.0453 8.95469 40 20 40C31.0453 40 40 31.0453 40 20C40 8.95469 31.0453 0 20 0ZM13.3891 10.9211L13.4055 10.9102L13.4227 10.9008C14.4304 10.3526 15.5021 9.9312 16.6133 9.64609C17.7087 9.36408 18.8352 9.22051 19.9664 9.21875C21.115 9.21828 22.259 9.36185 23.3719 9.64609C24.467 9.92623 25.5283 10.3252 26.5367 10.8359C26.6415 10.877 26.7335 10.9453 26.8031 11.0337C26.8727 11.1221 26.9175 11.2276 26.9328 11.3391C26.9559 11.508 26.9167 11.6796 26.8227 11.8219C26.7479 11.9329 26.6481 12.0247 26.5313 12.0898C26.4339 12.1459 26.3233 12.175 26.2109 12.1742C26.1134 12.1736 26.0168 12.1542 25.9266 12.1172L25.9109 12.1109L25.8953 12.1031C24.9717 11.6505 24.0045 11.293 23.0086 11.0359C22.0148 10.7797 20.9927 10.65 19.9664 10.65C18.9486 10.6502 17.9345 10.7729 16.9461 11.0156C15.9668 11.2576 15.0219 11.622 14.1336 12.1L14.1117 12.1117L14.0883 12.1211C13.9959 12.1597 13.897 12.1804 13.7969 12.182C13.6929 12.1832 13.5906 12.1562 13.5008 12.1039C13.4087 12.0463 13.329 11.9709 13.2664 11.882C13.1672 11.7609 13.115 11.6081 13.1195 11.4516C13.1164 11.3476 13.1394 11.2446 13.1865 11.1519C13.2336 11.0592 13.3033 10.9798 13.3891 10.9211ZM18.3 29.9219C18.2757 30.0812 18.1999 30.2283 18.0844 30.3406C17.9875 30.4328 17.8703 30.5007 17.7422 30.5391C17.68 30.5599 17.6148 30.5704 17.5492 30.5703C17.453 30.5687 17.3584 30.5457 17.2722 30.503C17.186 30.4603 17.1104 30.3989 17.0508 30.3234C16.0297 29.2648 15.2203 28.1359 14.6453 26.9641C14.0578 25.7703 13.7594 24.3742 13.7594 22.8141C13.7594 21.1594 14.3766 19.7461 15.5938 18.6125C16.8109 17.4789 18.2734 16.9164 19.9688 16.9164C21.6641 16.9164 23.1406 17.4867 24.3656 18.6102C25.5906 19.7336 26.2281 21.1578 26.2281 22.8141C26.2333 22.9078 26.2187 23.0015 26.1852 23.0892C26.1517 23.1768 26.1001 23.2564 26.0337 23.3228C25.9674 23.3892 25.8878 23.4408 25.8001 23.4743C25.7124 23.5078 25.6187 23.5224 25.525 23.5172C25.3468 23.5213 25.173 23.462 25.0344 23.35C24.9581 23.2838 24.8974 23.2014 24.8569 23.1088C24.8164 23.0163 24.7969 22.9158 24.8 22.8148C24.8 21.5383 24.3359 20.4961 23.382 19.6289C22.4156 18.75 21.3 18.3227 19.9719 18.3227C18.6437 18.3227 17.5344 18.75 16.5859 19.6281C15.6375 20.5063 15.1906 21.5391 15.1906 22.8172C15.1906 24.2062 15.432 25.4008 15.907 26.368C16.3922 27.3547 17.1258 28.3594 18.0875 29.3539C18.1659 29.4245 18.2262 29.513 18.2632 29.6119C18.3002 29.7108 18.3128 29.8171 18.3 29.9219ZM27.0961 28.0805C27.0503 28.1681 26.9849 28.244 26.9052 28.3023C26.8254 28.3607 26.7333 28.4 26.6359 28.4172C26.3418 28.5035 26.0388 28.5559 25.7328 28.5734C25.4133 28.5859 25.3273 28.5867 25.2906 28.5867C23.6672 28.5867 22.2438 28.0398 21.0508 26.9602C19.8484 25.8664 19.2383 24.4758 19.2383 22.8195C19.2341 22.6411 19.2933 22.467 19.4055 22.3281C19.4731 22.2534 19.5557 22.1936 19.6479 22.1527C19.7401 22.1118 19.8398 22.0907 19.9406 22.0907C20.0415 22.0907 20.1412 22.1118 20.2333 22.1527C20.3255 22.1936 20.4081 22.2534 20.4758 22.3281C20.5886 22.4667 20.6481 22.6409 20.6437 22.8195C20.6437 24.093 21.0969 25.1125 22.0305 25.9359C22.9805 26.7742 24.0469 27.182 25.2906 27.182C25.4141 27.182 25.5656 27.1734 25.7414 27.1578C25.9172 27.1422 26.1156 27.1172 26.3258 27.0852C26.3737 27.0759 26.4223 27.0712 26.4711 27.0711C26.6247 27.0692 26.774 27.1221 26.8922 27.2203C27.0034 27.3094 27.0869 27.4284 27.1328 27.5633L27.1383 27.5789L27.1422 27.5961C27.1857 27.7578 27.1693 27.9298 27.0961 28.0805ZM27.9461 25.1562C27.2948 25.7783 26.4247 26.1188 25.5242 26.1039C24.6099 26.1195 23.7249 25.7814 23.0539 25.1602C22.3578 24.5242 22.0047 23.7359 22.0047 22.8164C22.0115 22.5615 21.962 22.3082 21.8598 22.0746C21.7576 21.841 21.6051 21.6328 21.4133 21.4648C21.0225 21.098 20.5038 20.8984 19.968 20.9086C19.4275 20.8998 18.9045 21.0999 18.5078 21.4672C18.3134 21.6331 18.1585 21.8404 18.0543 22.0738C17.9501 22.3072 17.8992 22.5609 17.9055 22.8164C17.9055 24.4859 18.4148 25.8937 19.4187 27.0016C20.4437 28.132 21.7406 28.9367 23.2734 29.3937L23.2875 29.3984C23.3824 29.4238 23.4711 29.4681 23.5486 29.5284C23.626 29.5888 23.6905 29.6642 23.7383 29.75C23.8093 29.9094 23.8241 30.0882 23.7802 30.2571C23.7364 30.426 23.6365 30.575 23.4969 30.6797C23.3972 30.746 23.2799 30.7811 23.1602 30.7805C23.0751 30.7796 22.9908 30.7643 22.9109 30.7352C21.0648 30.2664 19.5227 29.3234 18.3273 27.9391C17.1148 26.5328 16.5008 24.8141 16.5008 22.8164C16.4935 22.3708 16.582 21.9289 16.7604 21.5205C16.9387 21.1121 17.2026 20.7468 17.5344 20.4492C18.1989 19.8407 19.0673 19.5031 19.9684 19.5031C20.8694 19.5031 21.7378 19.8407 22.4023 20.4492C22.7345 20.7467 22.9988 21.1121 23.1774 21.5207C23.356 21.9292 23.4447 22.3714 23.4375 22.8172C23.4339 23.0691 23.487 23.3185 23.5929 23.5471C23.6988 23.7756 23.8547 23.9774 24.0492 24.1375C24.4523 24.5053 24.9802 24.7058 25.5258 24.6984C26.0525 24.7038 26.5606 24.5037 26.9422 24.1406C27.1322 23.9762 27.2837 23.772 27.3859 23.5425C27.4881 23.3129 27.5385 23.0637 27.5336 22.8125C27.5336 20.8055 26.8078 19.1719 25.3148 17.8172C23.8219 16.4625 22.0336 15.7859 19.9664 15.7859C17.8992 15.7859 16.1031 16.4695 14.6187 17.8172C13.1344 19.1648 12.4 20.8055 12.4 22.8125C12.4109 23.3325 12.4568 23.8511 12.5375 24.3648C12.6568 25.1048 12.8521 25.8306 13.1203 26.5305C13.2445 26.8484 13.1305 27.0609 13.0516 27.1602C12.9863 27.241 12.9088 27.3111 12.8219 27.368L12.7992 27.3836L12.7742 27.3961C12.6678 27.4486 12.5506 27.4753 12.432 27.4742C12.3739 27.4742 12.316 27.4677 12.2594 27.4547C12.1497 27.4305 12.0478 27.379 11.9633 27.305C11.8788 27.2309 11.8143 27.1368 11.7758 27.0312L11.7711 27.0211V27.0102C11.5404 26.3359 11.3576 25.6461 11.2242 24.9461C11.0906 24.2417 11.0231 23.5263 11.0227 22.8094C11.0227 20.4656 11.9219 18.4422 13.6961 16.7859C15.4703 15.1297 17.5719 14.3016 19.9688 14.3016C22.4164 14.3016 24.5477 15.1242 26.3047 16.7453C28.0617 18.3664 28.9672 20.4172 28.9672 22.8094C28.9736 23.2507 28.8859 23.6883 28.7098 24.093C28.5337 24.4977 28.2734 24.8601 27.9461 25.1562ZM29.8211 17.1531C29.7936 17.3045 29.7186 17.4433 29.607 17.5492C29.5347 17.6224 29.4473 17.6788 29.3508 17.7145C29.2544 17.7502 29.1512 17.7643 29.0487 17.7558C28.9462 17.7474 28.8468 17.7165 28.7575 17.6654C28.6683 17.6143 28.5913 17.5442 28.532 17.4602L28.525 17.4516L28.5188 17.4422C27.5613 16.1064 26.2811 15.0348 24.7977 14.3273C23.2897 13.6017 21.6367 13.2277 19.9633 13.2336C18.3024 13.2251 16.6623 13.6031 15.1727 14.3375C13.7024 15.061 12.4278 16.1274 11.4562 17.4469L11.4516 17.4531L11.4461 17.4602C11.3422 17.6034 11.1956 17.7101 11.0273 17.7648C10.9675 17.7814 10.9058 17.7898 10.8438 17.7898C10.729 17.7899 10.6159 17.7631 10.5133 17.7117C10.4075 17.6604 10.3184 17.5801 10.2566 17.48C10.1948 17.38 10.1627 17.2645 10.1641 17.1469C10.1639 17.0014 10.1979 16.858 10.2633 16.7281L10.2789 16.6961L10.3 16.6672C11.3903 15.1462 12.8395 13.9182 14.5187 13.0922C16.2107 12.2553 18.0741 11.8236 19.9617 11.8313C21.8491 11.824 23.7134 12.2455 25.4141 13.0641C27.1069 13.8755 28.5715 15.0952 29.6758 16.6133L29.6875 16.6297L29.6977 16.6469C29.8007 16.7943 29.8457 16.9746 29.8242 17.1531H29.8211Z" fill="url(#paint0_linear_2674_18283)"/>
<defs>
<linearGradient id="paint0_linear_2674_18283" x1="-6.54969e-07" y1="20" x2="71.0574" y2="63.2238" gradientUnits="userSpaceOnUse">
<stop stop-color="#08A4ED"/>
<stop offset="0.759615" stop-color="#8C40C1"/>
</linearGradient>
</defs>
</svg>
