<svg width="45" height="40" viewBox="0 0 45 40" fill="none" xmlns="http://www.w3.org/2000/svg">
<path d="M9.41134 23.3447C8.98946 23.9461 9.13791 24.7737 9.73741 25.1914L10.6435 25.8222C9.16463 27.2525 7.18137 28.0619 5.10996 28.0619H2.63672V25.1985C2.63672 24.4686 2.04645 23.8769 1.31836 23.8769C0.590274 23.8769 0 24.4686 0 25.1985V38.6784C0 39.4083 0.590274 40 1.31836 40C2.04645 40 2.63672 39.4083 2.63672 38.6784V35.9912H4.42371C9.15505 35.9912 13.782 33.9969 17.0687 30.2952L18.3876 31.2133C18.9864 31.6325 19.8172 31.4787 20.2289 30.8715L21.1324 29.542L10.437 21.8849L9.41134 23.3447Z" fill="black"/>
<path d="M9.41134 23.3447C8.98946 23.9461 9.13791 24.7737 9.73741 25.1914L10.6435 25.8222C9.16463 27.2525 7.18137 28.0619 5.10996 28.0619H2.63672V25.1985C2.63672 24.4686 2.04645 23.8769 1.31836 23.8769C0.590274 23.8769 0 24.4686 0 25.1985V38.6784C0 39.4083 0.590274 40 1.31836 40C2.04645 40 2.63672 39.4083 2.63672 38.6784V35.9912H4.42371C9.15505 35.9912 13.782 33.9969 17.0687 30.2952L18.3876 31.2133C18.9864 31.6325 19.8172 31.4787 20.2289 30.8715L21.1324 29.542L10.437 21.8849L9.41134 23.3447Z" fill="url(#paint0_linear_2674_18280)"/>
<path d="M44.4253 23.4628L43.9393 23.1298L33.8274 31.2292L36.7208 33.3173C37.2858 33.7249 38.076 33.6219 38.5164 33.0741L44.7074 25.3844C45.1928 24.7813 45.0577 23.8951 44.4253 23.4628Z" fill="black"/>
<path d="M44.4253 23.4628L43.9393 23.1298L33.8274 31.2292L36.7208 33.3173C37.2858 33.7249 38.076 33.6219 38.5164 33.0741L44.7074 25.3844C45.1928 24.7813 45.0577 23.8951 44.4253 23.4628Z" fill="url(#paint1_linear_2674_18280)"/>
<path d="M42.378 18.8526L17.0279 0.500982C15.8892 -0.323499 14.3083 -0.109229 13.4286 0.988376L5.0974 11.3834C4.14993 12.5658 4.38908 14.3081 5.62061 15.1897L28.0478 31.2446C28.527 31.5877 29.176 31.5707 29.6368 31.2016L42.4291 20.9565C43.1088 20.4122 43.0853 19.3646 42.378 18.8526ZM33.0469 21.1897C32.3188 21.1897 31.7285 20.598 31.7285 19.8681C31.7285 19.1382 32.3188 18.5465 33.0469 18.5465C33.775 18.5465 34.3653 19.1382 34.3653 19.8681C34.3653 20.598 33.775 21.1897 33.0469 21.1897Z" fill="black"/>
<path d="M42.378 18.8526L17.0279 0.500982C15.8892 -0.323499 14.3083 -0.109229 13.4286 0.988376L5.0974 11.3834C4.14993 12.5658 4.38908 14.3081 5.62061 15.1897L28.0478 31.2446C28.527 31.5877 29.176 31.5707 29.6368 31.2016L42.4291 20.9565C43.1088 20.4122 43.0853 19.3646 42.378 18.8526ZM33.0469 21.1897C32.3188 21.1897 31.7285 20.598 31.7285 19.8681C31.7285 19.1382 32.3188 18.5465 33.0469 18.5465C33.775 18.5465 34.3653 19.1382 34.3653 19.8681C34.3653 20.598 33.775 21.1897 33.0469 21.1897Z" fill="url(#paint2_linear_2674_18280)"/>
<defs>
<linearGradient id="paint0_linear_2674_18280" x1="-7.3684e-07" y1="20" x2="74.5885" y2="71.0433" gradientUnits="userSpaceOnUse">
<stop stop-color="#08A4ED"/>
<stop offset="0.759615" stop-color="#8C40C1"/>
</linearGradient>
<linearGradient id="paint1_linear_2674_18280" x1="-7.3684e-07" y1="20" x2="74.5885" y2="71.0433" gradientUnits="userSpaceOnUse">
<stop stop-color="#08A4ED"/>
<stop offset="0.759615" stop-color="#8C40C1"/>
</linearGradient>
<linearGradient id="paint2_linear_2674_18280" x1="-7.3684e-07" y1="20" x2="74.5885" y2="71.0433" gradientUnits="userSpaceOnUse">
<stop stop-color="#08A4ED"/>
<stop offset="0.759615" stop-color="#8C40C1"/>
</linearGradient>
</defs>
</svg>
