<svg width="38" height="40" viewBox="0 0 38 40" fill="none" xmlns="http://www.w3.org/2000/svg">
<path d="M38 8.88889V11.8519H0V8.88889C0 8.10306 0.307966 7.34942 0.856149 6.79376C1.40433 6.23809 2.14783 5.92593 2.92308 5.92593H7.30769V1.48148C7.30769 1.08857 7.46168 0.711747 7.73577 0.433916C8.00986 0.156084 8.38161 0 8.76923 0C9.15685 0 9.5286 0.156084 9.80269 0.433916C10.0768 0.711747 10.2308 1.08857 10.2308 1.48148V5.92593H27.7692V1.48148C27.7692 1.08857 27.9232 0.711747 28.1973 0.433916C28.4714 0.156084 28.8431 0 29.2308 0C29.6184 0 29.9901 0.156084 30.2642 0.433916C30.5383 0.711747 30.6923 1.08857 30.6923 1.48148V5.92593H35.0769C35.8522 5.92593 36.5957 6.23809 37.1438 6.79376C37.692 7.34942 38 8.10306 38 8.88889ZM0 14.8148H38V37.037C38 37.8229 37.692 38.5765 37.1438 39.1322C36.5957 39.6878 35.8522 40 35.0769 40H2.92308C2.14783 40 1.40433 39.6878 0.856149 39.1322C0.307966 38.5765 0 37.8229 0 37.037V14.8148ZM10.7423 25.4074L13.6654 28.2519C13.8036 28.3816 13.9069 28.5449 13.9657 28.7263C14.0245 28.9077 14.0369 29.1013 14.0015 29.2889L13.3292 33.3185C13.2936 33.536 13.3185 33.7592 13.4011 33.9631C13.4837 34.1669 13.6208 34.3434 13.7969 34.4727C13.973 34.602 14.1812 34.6789 14.3981 34.6949C14.615 34.7108 14.8319 34.6651 15.0246 34.563L18.5762 32.6667C18.746 32.5795 18.9338 32.534 19.1242 32.534C19.3147 32.534 19.5024 32.5795 19.6723 32.6667L23.2238 34.563C23.4137 34.646 23.622 34.6766 23.8273 34.6514C24.0327 34.6263 24.2278 34.5464 24.3927 34.4199C24.5576 34.2933 24.6865 34.1247 24.7662 33.9313C24.8458 33.7378 24.8734 33.5263 24.8462 33.3185L24.1738 29.2889C24.1385 29.1013 24.1508 28.9077 24.2096 28.7263C24.2685 28.5449 24.3718 28.3816 24.51 28.2519L27.4331 25.4074C27.5862 25.2514 27.694 25.0557 27.7448 24.8417C27.7955 24.6277 27.7872 24.4038 27.7209 24.1942C27.6545 23.9847 27.5325 23.7977 27.3683 23.6537C27.2042 23.5097 27.0041 23.4143 26.79 23.3778L22.8 22.8C22.6196 22.7793 22.4465 22.7163 22.2943 22.616C22.142 22.5158 22.015 22.3809 21.9231 22.2222L20.14 18.563C20.0427 18.3665 19.8935 18.2014 19.7089 18.0859C19.5244 17.9705 19.3118 17.9094 19.095 17.9094C18.8782 17.9094 18.6656 17.9705 18.4811 18.0859C18.2965 18.2014 18.1473 18.3665 18.05 18.563L16.2523 22.2222C16.1692 22.3948 16.0459 22.5442 15.8932 22.6578C15.7404 22.7713 15.5627 22.8456 15.3754 22.8741L11.4 23.4519C11.1986 23.4944 11.0115 23.5894 10.8574 23.7275C10.7032 23.8656 10.5872 24.042 10.5208 24.2394C10.4544 24.4369 10.4399 24.6484 10.4788 24.8532C10.5176 25.058 10.6084 25.249 10.7423 25.4074Z" fill="black"/>
<path d="M38 8.88889V11.8519H0V8.88889C0 8.10306 0.307966 7.34942 0.856149 6.79376C1.40433 6.23809 2.14783 5.92593 2.92308 5.92593H7.30769V1.48148C7.30769 1.08857 7.46168 0.711747 7.73577 0.433916C8.00986 0.156084 8.38161 0 8.76923 0C9.15685 0 9.5286 0.156084 9.80269 0.433916C10.0768 0.711747 10.2308 1.08857 10.2308 1.48148V5.92593H27.7692V1.48148C27.7692 1.08857 27.9232 0.711747 28.1973 0.433916C28.4714 0.156084 28.8431 0 29.2308 0C29.6184 0 29.9901 0.156084 30.2642 0.433916C30.5383 0.711747 30.6923 1.08857 30.6923 1.48148V5.92593H35.0769C35.8522 5.92593 36.5957 6.23809 37.1438 6.79376C37.692 7.34942 38 8.10306 38 8.88889ZM0 14.8148H38V37.037C38 37.8229 37.692 38.5765 37.1438 39.1322C36.5957 39.6878 35.8522 40 35.0769 40H2.92308C2.14783 40 1.40433 39.6878 0.856149 39.1322C0.307966 38.5765 0 37.8229 0 37.037V14.8148ZM10.7423 25.4074L13.6654 28.2519C13.8036 28.3816 13.9069 28.5449 13.9657 28.7263C14.0245 28.9077 14.0369 29.1013 14.0015 29.2889L13.3292 33.3185C13.2936 33.536 13.3185 33.7592 13.4011 33.9631C13.4837 34.1669 13.6208 34.3434 13.7969 34.4727C13.973 34.602 14.1812 34.6789 14.3981 34.6949C14.615 34.7108 14.8319 34.6651 15.0246 34.563L18.5762 32.6667C18.746 32.5795 18.9338 32.534 19.1242 32.534C19.3147 32.534 19.5024 32.5795 19.6723 32.6667L23.2238 34.563C23.4137 34.646 23.622 34.6766 23.8273 34.6514C24.0327 34.6263 24.2278 34.5464 24.3927 34.4199C24.5576 34.2933 24.6865 34.1247 24.7662 33.9313C24.8458 33.7378 24.8734 33.5263 24.8462 33.3185L24.1738 29.2889C24.1385 29.1013 24.1508 28.9077 24.2096 28.7263C24.2685 28.5449 24.3718 28.3816 24.51 28.2519L27.4331 25.4074C27.5862 25.2514 27.694 25.0557 27.7448 24.8417C27.7955 24.6277 27.7872 24.4038 27.7209 24.1942C27.6545 23.9847 27.5325 23.7977 27.3683 23.6537C27.2042 23.5097 27.0041 23.4143 26.79 23.3778L22.8 22.8C22.6196 22.7793 22.4465 22.7163 22.2943 22.616C22.142 22.5158 22.015 22.3809 21.9231 22.2222L20.14 18.563C20.0427 18.3665 19.8935 18.2014 19.7089 18.0859C19.5244 17.9705 19.3118 17.9094 19.095 17.9094C18.8782 17.9094 18.6656 17.9705 18.4811 18.0859C18.2965 18.2014 18.1473 18.3665 18.05 18.563L16.2523 22.2222C16.1692 22.3948 16.0459 22.5442 15.8932 22.6578C15.7404 22.7713 15.5627 22.8456 15.3754 22.8741L11.4 23.4519C11.1986 23.4944 11.0115 23.5894 10.8574 23.7275C10.7032 23.8656 10.5872 24.042 10.5208 24.2394C10.4544 24.4369 10.4399 24.6484 10.4788 24.8532C10.5176 25.058 10.6084 25.249 10.7423 25.4074Z" fill="url(#paint0_linear_2674_18286)"/>
<defs>
<linearGradient id="paint0_linear_2674_18286" x1="-6.2222e-07" y1="20" x2="69.3302" y2="60.0646" gradientUnits="userSpaceOnUse">
<stop stop-color="#08A4ED"/>
<stop offset="0.759615" stop-color="#8C40C1"/>
</linearGradient>
</defs>
</svg>
