<svg width="41" height="40" viewBox="0 0 41 40" fill="none" xmlns="http://www.w3.org/2000/svg">
<path d="M31.16 33.3333H39.36V40H31.16V33.3333Z" fill="black"/>
<path d="M31.16 33.3333H39.36V40H31.16V33.3333Z" fill="url(#paint0_linear_2674_18295)"/>
<path d="M21.32 33.3333H29.52V40H21.32V33.3333Z" fill="black"/>
<path d="M21.32 33.3333H29.52V40H21.32V33.3333Z" fill="url(#paint1_linear_2674_18295)"/>
<path d="M21.32 31.6667H39.36V26.6667H21.32V31.6667ZM28.7 28.3333H31.98V30H28.7V28.3333Z" fill="black"/>
<path d="M21.32 31.6667H39.36V26.6667H21.32V31.6667ZM28.7 28.3333H31.98V30H28.7V28.3333Z" fill="url(#paint2_linear_2674_18295)"/>
<path d="M41 2.5V0.833333H19.68V0H0V40H19.68V2.5H31.16V4.31667C30.6815 4.48859 30.267 4.80673 29.9734 5.22745C29.6798 5.64817 29.5214 6.15088 29.52 6.66667V7.5H31.16V6.66667C31.16 6.44565 31.2464 6.23369 31.4002 6.07741C31.554 5.92113 31.7625 5.83333 31.98 5.83333C32.1975 5.83333 32.406 5.92113 32.5598 6.07741C32.7136 6.23369 32.8 6.44565 32.8 6.66667C32.7995 6.97844 32.6788 7.27761 32.4638 7.5L31.16 8.825V10.1833L26.6172 11.3333C25.9883 11.4956 25.4393 11.8855 25.0731 12.4299C24.7069 12.9743 24.5487 13.6357 24.6282 14.2901C24.7077 14.9446 25.0194 15.5471 25.5049 15.9846C25.9903 16.4221 26.6161 16.6646 27.265 16.6667H36.695C37.3439 16.6646 37.9697 16.4221 38.4551 15.9846C38.9406 15.5471 39.2523 14.9446 39.3318 14.2901C39.4113 13.6357 39.2531 12.9743 38.8869 12.4299C38.5207 11.8855 37.9717 11.4956 37.3428 11.3333L32.8 10.1833V9.50833L33.62 8.675C33.8801 8.41161 34.0864 8.0986 34.2271 7.75395C34.3678 7.40931 34.4402 7.03981 34.44 6.66667C34.4386 6.15088 34.2802 5.64817 33.9866 5.22745C33.693 4.80673 33.2785 4.48859 32.8 4.31667V2.5H41ZM18.04 23.3333H16.4V17.5H18.04V23.3333ZM36.9492 12.95C37.1904 13.0135 37.4005 13.1642 37.5403 13.3737C37.6802 13.5832 37.7401 13.8374 37.709 14.0886C37.6778 14.3398 37.5577 14.5708 37.3711 14.7386C37.1845 14.9063 36.9441 14.9993 36.695 15H27.265C27.0159 14.9993 26.7755 14.9063 26.5889 14.7386C26.4023 14.5708 26.2822 14.3398 26.251 14.0886C26.2199 13.8374 26.2798 13.5832 26.4197 13.3737C26.5595 13.1642 26.7696 13.0135 27.0108 12.95L31.98 11.6667L36.9492 12.95Z" fill="black"/>
<path d="M41 2.5V0.833333H19.68V0H0V40H19.68V2.5H31.16V4.31667C30.6815 4.48859 30.267 4.80673 29.9734 5.22745C29.6798 5.64817 29.5214 6.15088 29.52 6.66667V7.5H31.16V6.66667C31.16 6.44565 31.2464 6.23369 31.4002 6.07741C31.554 5.92113 31.7625 5.83333 31.98 5.83333C32.1975 5.83333 32.406 5.92113 32.5598 6.07741C32.7136 6.23369 32.8 6.44565 32.8 6.66667C32.7995 6.97844 32.6788 7.27761 32.4638 7.5L31.16 8.825V10.1833L26.6172 11.3333C25.9883 11.4956 25.4393 11.8855 25.0731 12.4299C24.7069 12.9743 24.5487 13.6357 24.6282 14.2901C24.7077 14.9446 25.0194 15.5471 25.5049 15.9846C25.9903 16.4221 26.6161 16.6646 27.265 16.6667H36.695C37.3439 16.6646 37.9697 16.4221 38.4551 15.9846C38.9406 15.5471 39.2523 14.9446 39.3318 14.2901C39.4113 13.6357 39.2531 12.9743 38.8869 12.4299C38.5207 11.8855 37.9717 11.4956 37.3428 11.3333L32.8 10.1833V9.50833L33.62 8.675C33.8801 8.41161 34.0864 8.0986 34.2271 7.75395C34.3678 7.40931 34.4402 7.03981 34.44 6.66667C34.4386 6.15088 34.2802 5.64817 33.9866 5.22745C33.693 4.80673 33.2785 4.48859 32.8 4.31667V2.5H41ZM18.04 23.3333H16.4V17.5H18.04V23.3333ZM36.9492 12.95C37.1904 13.0135 37.4005 13.1642 37.5403 13.3737C37.6802 13.5832 37.7401 13.8374 37.709 14.0886C37.6778 14.3398 37.5577 14.5708 37.3711 14.7386C37.1845 14.9063 36.9441 14.9993 36.695 15H27.265C27.0159 14.9993 26.7755 14.9063 26.5889 14.7386C26.4023 14.5708 26.2822 14.3398 26.251 14.0886C26.2199 13.8374 26.2798 13.5832 26.4197 13.3737C26.5595 13.1642 26.7696 13.0135 27.0108 12.95L31.98 11.6667L36.9492 12.95Z" fill="url(#paint3_linear_2674_18295)"/>
<defs>
<linearGradient id="paint0_linear_2674_18295" x1="-6.71343e-07" y1="20" x2="71.8514" y2="64.7995" gradientUnits="userSpaceOnUse">
<stop stop-color="#08A4ED"/>
<stop offset="0.759615" stop-color="#8C40C1"/>
</linearGradient>
<linearGradient id="paint1_linear_2674_18295" x1="-6.71343e-07" y1="20" x2="71.8514" y2="64.7995" gradientUnits="userSpaceOnUse">
<stop stop-color="#08A4ED"/>
<stop offset="0.759615" stop-color="#8C40C1"/>
</linearGradient>
<linearGradient id="paint2_linear_2674_18295" x1="-6.71343e-07" y1="20" x2="71.8514" y2="64.7995" gradientUnits="userSpaceOnUse">
<stop stop-color="#08A4ED"/>
<stop offset="0.759615" stop-color="#8C40C1"/>
</linearGradient>
<linearGradient id="paint3_linear_2674_18295" x1="-6.71343e-07" y1="20" x2="71.8514" y2="64.7995" gradientUnits="userSpaceOnUse">
<stop stop-color="#08A4ED"/>
<stop offset="0.759615" stop-color="#8C40C1"/>
</linearGradient>
</defs>
</svg>
