<svg width="26" height="40" viewBox="0 0 26 40" fill="none" xmlns="http://www.w3.org/2000/svg">
<path d="M18.598 0H7.40197C6.91138 0 6.51368 0.399211 6.51368 0.891663V3.46154H0.888284C0.397698 3.46154 0 3.86075 0 4.3532V39.1083C0 39.6008 0.397698 40 0.888284 40H25.1117C25.6023 40 26 39.6008 26 39.1083V4.3532C26 3.86075 25.6023 3.46154 25.1117 3.46154H19.4863V0.891663C19.4863 0.399211 19.0886 0 18.598 0ZM8.76423 33.522L11.9411 24.5099L4.58783 21.8981L17.2358 9.48976L14.0589 18.5018L21.4122 21.1137L8.76423 33.522Z" fill="black"/>
<path d="M18.598 0H7.40197C6.91138 0 6.51368 0.399211 6.51368 0.891663V3.46154H0.888284C0.397698 3.46154 0 3.86075 0 4.3532V39.1083C0 39.6008 0.397698 40 0.888284 40H25.1117C25.6023 40 26 39.6008 26 39.1083V4.3532C26 3.86075 25.6023 3.46154 25.1117 3.46154H19.4863V0.891663C19.4863 0.399211 19.0886 0 18.598 0ZM8.76423 33.522L11.9411 24.5099L4.58783 21.8981L17.2358 9.48976L14.0589 18.5018L21.4122 21.1137L8.76423 33.522Z" fill="url(#paint0_linear_2674_18292)"/>
<defs>
<linearGradient id="paint0_linear_2674_18292" x1="-4.2573e-07" y1="20" x2="54.7226" y2="41.6369" gradientUnits="userSpaceOnUse">
<stop stop-color="#08A4ED"/>
<stop offset="0.759615" stop-color="#8C40C1"/>
</linearGradient>
</defs>
</svg>
