<svg width="32" height="32" viewBox="0 0 32 32" fill="none" xmlns="http://www.w3.org/2000/svg">
<path d="M8.02367 16.9729H6.58861C6.21215 16.9729 5.8723 17.197 5.72338 17.5422L1.75073 26.7925L11.1853 21.9739C10.0559 20.4111 8.93846 18.6875 8.02367 16.9729Z" fill="black"/>
<path d="M8.02367 16.9729H6.58861C6.21215 16.9729 5.8723 17.197 5.72338 17.5422L1.75073 26.7925L11.1853 21.9739C10.0559 20.4111 8.93846 18.6875 8.02367 16.9729Z" fill="url(#paint0_linear_2674_18188)"/>
<path d="M26.2763 17.5422C26.1276 17.197 25.7876 16.9729 25.4113 16.9729H23.9763C22.2487 20.2102 19.7319 23.5557 18.1308 25.3962C17.0049 26.6877 14.9936 26.6863 13.8694 25.3962C13.7544 25.2642 13.154 24.5691 12.3271 23.5002L10.6262 24.3694L17.0603 30.791L29.2517 24.4707L26.2763 17.5422Z" fill="black"/>
<path d="M26.2763 17.5422C26.1276 17.197 25.7876 16.9729 25.4113 16.9729H23.9763C22.2487 20.2102 19.7319 23.5557 18.1308 25.3962C17.0049 26.6877 14.9936 26.6863 13.8694 25.3962C13.7544 25.2642 13.154 24.5691 12.3271 23.5002L10.6262 24.3694L17.0603 30.791L29.2517 24.4707L26.2763 17.5422Z" fill="url(#paint1_linear_2674_18188)"/>
<path d="M0.590084 29.4958L0.0769009 30.6909C-0.188724 31.3093 0.266354 32 0.94189 32H14.7575C14.844 31.9358 14.8449 31.9397 15.3088 31.6992L8.86522 25.269L0.590084 29.4958Z" fill="black"/>
<path d="M0.590084 29.4958L0.0769009 30.6909C-0.188724 31.3093 0.266354 32 0.94189 32H14.7575C14.844 31.9358 14.8449 31.9397 15.3088 31.6992L8.86522 25.269L0.590084 29.4958Z" fill="url(#paint2_linear_2674_18188)"/>
<path d="M31.9231 30.6909L29.9953 26.2022L18.8117 32H31.0581C31.7321 32 32.1892 31.3105 31.9231 30.6909Z" fill="black"/>
<path d="M31.9231 30.6909L29.9953 26.2022L18.8117 32H31.0581C31.7321 32 32.1892 31.3105 31.9231 30.6909Z" fill="url(#paint3_linear_2674_18188)"/>
<path d="M16.9411 8.45778C16.9411 7.93971 16.5188 7.51857 16 7.51857C15.4809 7.51857 15.0588 7.93971 15.0588 8.45778C15.0588 8.9756 15.4809 9.39699 16 9.39699C16.5188 9.39699 16.9411 8.9756 16.9411 8.45778Z" fill="black"/>
<path d="M16.9411 8.45778C16.9411 7.93971 16.5188 7.51857 16 7.51857C15.4809 7.51857 15.0588 7.93971 15.0588 8.45778C15.0588 8.9756 15.4809 9.39699 16 9.39699C16.5188 9.39699 16.9411 8.9756 16.9411 8.45778Z" fill="url(#paint4_linear_2674_18188)"/>
<path d="M16.7102 24.1011C17.0271 23.7373 24.4702 15.1275 24.4702 9.209C24.4702 -2.99509 7.52977 -3.14402 7.52977 9.209C7.52977 15.1275 14.9729 23.7373 15.2898 24.1011C15.665 24.5315 16.3357 24.531 16.7102 24.1011ZM13.1765 8.45778C13.1765 6.90407 14.4431 5.64016 16 5.64016C17.5566 5.64016 18.8232 6.90407 18.8232 8.45778C18.8232 10.0112 17.5566 11.2752 16 11.2752C14.4431 11.2752 13.1765 10.0112 13.1765 8.45778Z" fill="black"/>
<path d="M16.7102 24.1011C17.0271 23.7373 24.4702 15.1275 24.4702 9.209C24.4702 -2.99509 7.52977 -3.14402 7.52977 9.209C7.52977 15.1275 14.9729 23.7373 15.2898 24.1011C15.665 24.5315 16.3357 24.531 16.7102 24.1011ZM13.1765 8.45778C13.1765 6.90407 14.4431 5.64016 16 5.64016C17.5566 5.64016 18.8232 6.90407 18.8232 8.45778C18.8232 10.0112 17.5566 11.2752 16 11.2752C14.4431 11.2752 13.1765 10.0112 13.1765 8.45778Z" fill="url(#paint5_linear_2674_18188)"/>
<defs>
<linearGradient id="paint0_linear_2674_18188" x1="-5.23975e-07" y1="16" x2="56.8459" y2="50.5791" gradientUnits="userSpaceOnUse">
<stop stop-color="#08A4ED"/>
<stop offset="0.759615" stop-color="#8C40C1"/>
</linearGradient>
<linearGradient id="paint1_linear_2674_18188" x1="-5.23975e-07" y1="16" x2="56.8459" y2="50.5791" gradientUnits="userSpaceOnUse">
<stop stop-color="#08A4ED"/>
<stop offset="0.759615" stop-color="#8C40C1"/>
</linearGradient>
<linearGradient id="paint2_linear_2674_18188" x1="-5.23975e-07" y1="16" x2="56.8459" y2="50.5791" gradientUnits="userSpaceOnUse">
<stop stop-color="#08A4ED"/>
<stop offset="0.759615" stop-color="#8C40C1"/>
</linearGradient>
<linearGradient id="paint3_linear_2674_18188" x1="-5.23975e-07" y1="16" x2="56.8459" y2="50.5791" gradientUnits="userSpaceOnUse">
<stop stop-color="#08A4ED"/>
<stop offset="0.759615" stop-color="#8C40C1"/>
</linearGradient>
<linearGradient id="paint4_linear_2674_18188" x1="-5.23975e-07" y1="16" x2="56.8459" y2="50.5791" gradientUnits="userSpaceOnUse">
<stop stop-color="#08A4ED"/>
<stop offset="0.759615" stop-color="#8C40C1"/>
</linearGradient>
<linearGradient id="paint5_linear_2674_18188" x1="-5.23975e-07" y1="16" x2="56.8459" y2="50.5791" gradientUnits="userSpaceOnUse">
<stop stop-color="#08A4ED"/>
<stop offset="0.759615" stop-color="#8C40C1"/>
</linearGradient>
</defs>
</svg>
