<svg width="33" height="32" viewBox="0 0 33 32" fill="none" xmlns="http://www.w3.org/2000/svg">
<path fill-rule="evenodd" clip-rule="evenodd" d="M31.8488 29.7167H1.15116C0.515721 29.7167 0 30.2297 0 30.8584C0 31.4885 0.515721 32 1.15116 32H31.8488C32.4843 32 33 31.4885 33 30.8584C33 30.2297 32.4843 29.7167 31.8488 29.7167Z" fill="black"/>
<path fill-rule="evenodd" clip-rule="evenodd" d="M31.8488 29.7167H1.15116C0.515721 29.7167 0 30.2297 0 30.8584C0 31.4885 0.515721 32 1.15116 32H31.8488C32.4843 32 33 31.4885 33 30.8584C33 30.2297 32.4843 29.7167 31.8488 29.7167Z" fill="url(#paint0_linear_2674_18194)"/>
<path fill-rule="evenodd" clip-rule="evenodd" d="M20.7209 30.8584V2.66292C20.7209 1.78006 20.2789 0.95351 19.5406 0.457277C18.8023 -0.037433 17.8645 -0.137897 17.0372 0.190895L4.75814 5.06189C3.73898 5.46527 3.06977 6.44555 3.06977 7.53544V30.8584C3.06977 31.4901 3.58549 32 4.22093 32H19.5698C20.2052 32 20.7209 31.4901 20.7209 30.8584ZM8.82558 27.4334H14.9651C15.6006 27.4334 16.1163 26.922 16.1163 26.2918C16.1163 25.6631 15.6006 25.1502 14.9651 25.1502H8.82558C8.19014 25.1502 7.67442 25.6631 7.67442 26.2918C7.67442 26.922 8.19014 27.4334 8.82558 27.4334ZM8.82558 22.1058H14.9651C15.6006 22.1058 16.1163 21.5943 16.1163 20.9642C16.1163 20.3355 15.6006 19.8225 14.9651 19.8225H8.82558C8.19014 19.8225 7.67442 20.3355 7.67442 20.9642C7.67442 21.5943 8.19014 22.1058 8.82558 22.1058ZM8.82558 16.7781H14.9651C15.6006 16.7781 16.1163 16.2667 16.1163 15.6365C16.1163 15.0078 15.6006 14.4949 14.9651 14.4949H8.82558C8.19014 14.4949 7.67442 15.0078 7.67442 15.6365C7.67442 16.2667 8.19014 16.7781 8.82558 16.7781ZM8.82558 11.4505H14.9651C15.6006 11.4505 16.1163 10.939 16.1163 10.3089C16.1163 9.6802 15.6006 9.16722 14.9651 9.16722H8.82558C8.19014 9.16722 7.67442 9.6802 7.67442 10.3089C7.67442 10.939 8.19014 11.4505 8.82558 11.4505Z" fill="black"/>
<path fill-rule="evenodd" clip-rule="evenodd" d="M20.7209 30.8584V2.66292C20.7209 1.78006 20.2789 0.95351 19.5406 0.457277C18.8023 -0.037433 17.8645 -0.137897 17.0372 0.190895L4.75814 5.06189C3.73898 5.46527 3.06977 6.44555 3.06977 7.53544V30.8584C3.06977 31.4901 3.58549 32 4.22093 32H19.5698C20.2052 32 20.7209 31.4901 20.7209 30.8584ZM8.82558 27.4334H14.9651C15.6006 27.4334 16.1163 26.922 16.1163 26.2918C16.1163 25.6631 15.6006 25.1502 14.9651 25.1502H8.82558C8.19014 25.1502 7.67442 25.6631 7.67442 26.2918C7.67442 26.922 8.19014 27.4334 8.82558 27.4334ZM8.82558 22.1058H14.9651C15.6006 22.1058 16.1163 21.5943 16.1163 20.9642C16.1163 20.3355 15.6006 19.8225 14.9651 19.8225H8.82558C8.19014 19.8225 7.67442 20.3355 7.67442 20.9642C7.67442 21.5943 8.19014 22.1058 8.82558 22.1058ZM8.82558 16.7781H14.9651C15.6006 16.7781 16.1163 16.2667 16.1163 15.6365C16.1163 15.0078 15.6006 14.4949 14.9651 14.4949H8.82558C8.19014 14.4949 7.67442 15.0078 7.67442 15.6365C7.67442 16.2667 8.19014 16.7781 8.82558 16.7781ZM8.82558 11.4505H14.9651C15.6006 11.4505 16.1163 10.939 16.1163 10.3089C16.1163 9.6802 15.6006 9.16722 14.9651 9.16722H8.82558C8.19014 9.16722 7.67442 9.6802 7.67442 10.3089C7.67442 10.939 8.19014 11.4505 8.82558 11.4505Z" fill="url(#paint1_linear_2674_18194)"/>
<path fill-rule="evenodd" clip-rule="evenodd" d="M22.2558 8.40613V30.8584C22.2558 31.2678 22.1637 31.6545 21.998 32H28.7791C29.4145 32 29.9302 31.4901 29.9302 30.8584V11.07C29.9302 9.59952 28.7269 8.40613 27.2442 8.40613H22.2558Z" fill="black"/>
<path fill-rule="evenodd" clip-rule="evenodd" d="M22.2558 8.40613V30.8584C22.2558 31.2678 22.1637 31.6545 21.998 32H28.7791C29.4145 32 29.9302 31.4901 29.9302 30.8584V11.07C29.9302 9.59952 28.7269 8.40613 27.2442 8.40613H22.2558Z" fill="url(#paint2_linear_2674_18194)"/>
<defs>
<linearGradient id="paint0_linear_2674_18194" x1="-5.40349e-07" y1="16" x2="57.6343" y2="52.1542" gradientUnits="userSpaceOnUse">
<stop stop-color="#08A4ED"/>
<stop offset="0.759615" stop-color="#8C40C1"/>
</linearGradient>
<linearGradient id="paint1_linear_2674_18194" x1="-5.40349e-07" y1="16" x2="57.6343" y2="52.1542" gradientUnits="userSpaceOnUse">
<stop stop-color="#08A4ED"/>
<stop offset="0.759615" stop-color="#8C40C1"/>
</linearGradient>
<linearGradient id="paint2_linear_2674_18194" x1="-5.40349e-07" y1="16" x2="57.6343" y2="52.1542" gradientUnits="userSpaceOnUse">
<stop stop-color="#08A4ED"/>
<stop offset="0.759615" stop-color="#8C40C1"/>
</linearGradient>
</defs>
</svg>
