<svg width="37" height="40" viewBox="0 0 37 40" fill="none" xmlns="http://www.w3.org/2000/svg">
<path d="M16.2587 9.16425C17.0889 9.16425 17.7619 8.48563 17.7619 7.64851C17.7619 6.81138 17.0889 6.13276 16.2587 6.13276C15.4285 6.13276 14.7556 6.81138 14.7556 7.64851C14.7556 8.48563 15.4285 9.16425 16.2587 9.16425Z" fill="black"/>
<path d="M16.2587 9.16425C17.0889 9.16425 17.7619 8.48563 17.7619 7.64851C17.7619 6.81138 17.0889 6.13276 16.2587 6.13276C15.4285 6.13276 14.7556 6.81138 14.7556 7.64851C14.7556 8.48563 15.4285 9.16425 16.2587 9.16425Z" fill="url(#paint0_linear_2674_18125)"/>
<path d="M16.2587 27.079C17.0889 27.079 17.7619 26.4003 17.7619 25.5632C17.7619 24.7261 17.0889 24.0475 16.2587 24.0475C15.4285 24.0475 14.7556 24.7261 14.7556 25.5632C14.7556 26.4003 15.4285 27.079 16.2587 27.079Z" fill="black"/>
<path d="M16.2587 27.079C17.0889 27.079 17.7619 26.4003 17.7619 25.5632C17.7619 24.7261 17.0889 24.0475 16.2587 24.0475C15.4285 24.0475 14.7556 24.7261 14.7556 25.5632C14.7556 26.4003 15.4285 27.079 16.2587 27.079Z" fill="url(#paint1_linear_2674_18125)"/>
<path d="M36.7094 14.496L35.1436 13.21L32.3642 18.0636L36.7094 14.496Z" fill="black"/>
<path d="M36.7094 14.496L35.1436 13.21L32.3642 18.0636L36.7094 14.496Z" fill="url(#paint2_linear_2674_18125)"/>
<path d="M5.80675 19.026V9.96605L0.290598 14.496L5.80675 19.026Z" fill="black"/>
<path d="M5.80675 19.026V9.96605L0.290598 14.496L5.80675 19.026Z" fill="url(#paint3_linear_2674_18125)"/>
<path d="M32.5528 9.66754C32.6587 10.0621 32.686 10.4739 32.633 10.8792C32.58 11.2845 32.4478 11.6751 32.244 12.0285L26.7104 21.6945V22.7063L30.1939 19.8457L35.3314 10.8731C35.5054 10.5692 35.6184 10.2336 35.6638 9.88567C35.7092 9.53771 35.6862 9.18414 35.5961 8.84514C35.5061 8.50614 35.3506 8.18835 35.1388 7.90991C34.9269 7.63148 34.6627 7.39786 34.3613 7.22238L26.0632 2.3916C26.4854 3.00497 26.7113 3.734 26.7104 4.48067V5.21361L31.1148 7.77828C31.4665 7.98157 31.7747 8.25324 32.0216 8.57755C32.2685 8.90185 32.449 9.27234 32.5528 9.66754Z" fill="black"/>
<path d="M32.5528 9.66754C32.6587 10.0621 32.686 10.4739 32.633 10.8792C32.58 11.2845 32.4478 11.6751 32.244 12.0285L26.7104 21.6945V22.7063L30.1939 19.8457L35.3314 10.8731C35.5054 10.5692 35.6184 10.2336 35.6638 9.88567C35.7092 9.53771 35.6862 9.18414 35.5961 8.84514C35.5061 8.50614 35.3506 8.18835 35.1388 7.90991C34.9269 7.63148 34.6627 7.39786 34.3613 7.22238L26.0632 2.3916C26.4854 3.00497 26.7113 3.734 26.7104 4.48067V5.21361L31.1148 7.77828C31.4665 7.98157 31.7747 8.25324 32.0216 8.57755C32.2685 8.90185 32.449 9.27234 32.5528 9.66754Z" fill="url(#paint4_linear_2674_18125)"/>
<path d="M20.562 0.0923131C20.1024 0.215198 19.6844 0.461192 19.3523 0.804212H23.0646C23.1629 0.804212 23.2602 0.808106 23.3565 0.815894L22.5731 0.359781C22.2721 0.183241 21.9393 0.0686951 21.5941 0.0227824C21.2489 -0.0231304 20.8981 0.000503091 20.562 0.0923131Z" fill="black"/>
<path d="M20.562 0.0923131C20.1024 0.215198 19.6844 0.461192 19.3523 0.804212H23.0646C23.1629 0.804212 23.2602 0.808106 23.3565 0.815894L22.5731 0.359781C22.2721 0.183241 21.9393 0.0686951 21.5941 0.0227824C21.2489 -0.0231304 20.8981 0.000503091 20.562 0.0923131Z" fill="url(#paint5_linear_2674_18125)"/>
<path d="M25.7146 4.48067C25.7138 3.77218 25.4344 3.09294 24.9376 2.59196C24.4407 2.09098 23.7672 1.80918 23.0646 1.80837H9.45265C8.75005 1.80917 8.07645 2.09097 7.57964 2.59195C7.08283 3.09293 6.80337 3.77218 6.80258 4.48067V19.8437L9.40101 21.9773V7.03805C9.40098 6.69537 9.4679 6.35603 9.59794 6.03943C9.72798 5.72282 9.91859 5.43515 10.1589 5.19283C10.3992 4.95052 10.6845 4.75831 10.9984 4.62718C11.3124 4.49605 11.6489 4.42857 11.9887 4.42859H20.5285C20.8683 4.42857 21.2049 4.49605 21.5188 4.62718C21.8328 4.75831 22.1181 4.95052 22.3584 5.19284C22.5987 5.43515 22.7893 5.72283 22.9193 6.03943C23.0494 6.35603 23.1163 6.69537 23.1162 7.03805V25.6581L25.7147 23.5241L25.7146 4.48067Z" fill="black"/>
<path d="M25.7146 4.48067C25.7138 3.77218 25.4344 3.09294 24.9376 2.59196C24.4407 2.09098 23.7672 1.80918 23.0646 1.80837H9.45265C8.75005 1.80917 8.07645 2.09097 7.57964 2.59195C7.08283 3.09293 6.80337 3.77218 6.80258 4.48067V19.8437L9.40101 21.9773V7.03805C9.40098 6.69537 9.4679 6.35603 9.59794 6.03943C9.72798 5.72282 9.91859 5.43515 10.1589 5.19283C10.3992 4.95052 10.6845 4.75831 10.9984 4.62718C11.3124 4.49605 11.6489 4.42857 11.9887 4.42859H20.5285C20.8683 4.42857 21.2049 4.49605 21.5188 4.62718C21.8328 4.75831 22.1181 4.95052 22.3584 5.19284C22.5987 5.43515 22.7893 5.72283 22.9193 6.03943C23.0494 6.35603 23.1163 6.69537 23.1162 7.03805V25.6581L25.7147 23.5241L25.7146 4.48067Z" fill="url(#paint6_linear_2674_18125)"/>
<path d="M18.4996 28.8187C16.9899 28.8217 15.5254 28.2991 14.3536 27.3391L0 15.5521V35.4099C0.00124035 36.6267 0.481079 37.7934 1.33425 38.6539C2.18741 39.5144 3.34424 39.9985 4.55093 40H32.4481C33.6549 39.9986 34.8119 39.5146 35.6653 38.6541C36.5186 37.7936 36.9986 36.6269 37 35.4099V15.5521L22.6463 27.3391C21.4741 28.2988 20.0095 28.8214 18.4996 28.8187Z" fill="black"/>
<path d="M18.4996 28.8187C16.9899 28.8217 15.5254 28.2991 14.3536 27.3391L0 15.5521V35.4099C0.00124035 36.6267 0.481079 37.7934 1.33425 38.6539C2.18741 39.5144 3.34424 39.9985 4.55093 40H32.4481C33.6549 39.9986 34.8119 39.5146 35.6653 38.6541C36.5186 37.7936 36.9986 36.6269 37 35.4099V15.5521L22.6463 27.3391C21.4741 28.2988 20.0095 28.8214 18.4996 28.8187Z" fill="url(#paint7_linear_2674_18125)"/>
<path d="M16.2587 10.7417C15.1085 10.7417 13.9842 11.0857 13.0278 11.73C12.0715 12.3744 11.3261 13.2903 10.886 14.3618C10.4459 15.4333 10.3307 16.6124 10.5551 17.7499C10.7795 18.8875 11.3334 19.9324 12.1467 20.7525C12.96 21.5726 13.9962 22.1311 15.1242 22.3573C16.2523 22.5836 17.4216 22.4675 18.4842 22.0236C19.5468 21.5798 20.455 20.8281 21.094 19.8638C21.733 18.8994 22.0741 17.7657 22.0741 16.6059C22.0741 15.8358 21.9237 15.0732 21.6314 14.3617C21.3391 13.6503 20.9108 13.0038 20.3708 12.4593C19.8308 11.9147 19.1897 11.4828 18.4841 11.1881C17.7786 10.8934 17.0224 10.7417 16.2587 10.7417ZM19.5522 18.8063C19.5522 18.8871 19.5204 18.9646 19.4637 19.0217C19.4071 19.0789 19.3302 19.111 19.2501 19.111C19.17 19.111 19.0931 19.0789 19.0364 19.0217C18.9798 18.9646 18.9479 18.8871 18.9479 18.8063V18.021C18.9479 17.9653 18.926 17.9119 18.887 17.8726C18.8479 17.8332 18.795 17.8111 18.7397 17.8111H17.4036C17.0157 17.8187 16.6404 17.6714 16.3596 17.4014C16.22 17.2736 16.1091 17.1172 16.0344 16.9426C15.9597 16.768 15.9229 16.5793 15.9265 16.3892C15.9282 16.3235 15.9372 16.2583 15.9531 16.1946C15.9596 16.1671 15.9579 16.1383 15.9481 16.1118C15.9383 16.0853 15.921 16.0624 15.8982 16.0459C15.8755 16.0294 15.8484 16.0201 15.8204 16.0192C15.7924 16.0183 15.7647 16.0258 15.741 16.0408C15.3479 16.2904 14.9734 16.5686 14.6206 16.8733C14.2237 17.2163 13.8516 17.5873 13.507 17.9836C13.4527 18.0453 13.3763 18.0828 13.2947 18.0879C13.213 18.093 13.1327 18.0653 13.0712 18.0108C13.0098 17.9563 12.9722 17.8795 12.9668 17.7972C12.9613 17.7149 12.9884 17.6337 13.0422 17.5715C13.5934 16.9407 14.2053 16.3666 14.869 15.8577C15.5491 15.3376 16.2765 14.8836 17.0416 14.5018C17.1206 14.4623 17.2118 14.455 17.296 14.4814C17.3803 14.5079 17.4512 14.566 17.494 14.6439C17.5375 14.7233 17.5483 14.8168 17.5243 14.9042C17.5002 14.9917 17.4431 15.0661 17.3653 15.1116C17.1822 15.2196 17.0219 15.3626 16.8934 15.5327C16.7018 15.7763 16.5977 16.0782 16.598 16.3891C16.5962 16.49 16.6167 16.59 16.6579 16.6819C16.6991 16.7738 16.76 16.8554 16.8363 16.9206C16.9918 17.0616 17.1946 17.1378 17.4037 17.1339H18.7398C18.795 17.1339 18.8479 17.1118 18.887 17.0724C18.926 17.033 18.948 16.9796 18.948 16.924V14.4054C18.948 14.3246 18.9798 14.2471 19.0365 14.19C19.0931 14.1328 19.17 14.1007 19.2501 14.1007C19.3302 14.1007 19.4071 14.1328 19.4637 14.19C19.5204 14.2471 19.5522 14.3246 19.5522 14.4054L19.5522 18.8063Z" fill="black"/>
<path d="M16.2587 10.7417C15.1085 10.7417 13.9842 11.0857 13.0278 11.73C12.0715 12.3744 11.3261 13.2903 10.886 14.3618C10.4459 15.4333 10.3307 16.6124 10.5551 17.7499C10.7795 18.8875 11.3334 19.9324 12.1467 20.7525C12.96 21.5726 13.9962 22.1311 15.1242 22.3573C16.2523 22.5836 17.4216 22.4675 18.4842 22.0236C19.5468 21.5798 20.455 20.8281 21.094 19.8638C21.733 18.8994 22.0741 17.7657 22.0741 16.6059C22.0741 15.8358 21.9237 15.0732 21.6314 14.3617C21.3391 13.6503 20.9108 13.0038 20.3708 12.4593C19.8308 11.9147 19.1897 11.4828 18.4841 11.1881C17.7786 10.8934 17.0224 10.7417 16.2587 10.7417ZM19.5522 18.8063C19.5522 18.8871 19.5204 18.9646 19.4637 19.0217C19.4071 19.0789 19.3302 19.111 19.2501 19.111C19.17 19.111 19.0931 19.0789 19.0364 19.0217C18.9798 18.9646 18.9479 18.8871 18.9479 18.8063V18.021C18.9479 17.9653 18.926 17.9119 18.887 17.8726C18.8479 17.8332 18.795 17.8111 18.7397 17.8111H17.4036C17.0157 17.8187 16.6404 17.6714 16.3596 17.4014C16.22 17.2736 16.1091 17.1172 16.0344 16.9426C15.9597 16.768 15.9229 16.5793 15.9265 16.3892C15.9282 16.3235 15.9372 16.2583 15.9531 16.1946C15.9596 16.1671 15.9579 16.1383 15.9481 16.1118C15.9383 16.0853 15.921 16.0624 15.8982 16.0459C15.8755 16.0294 15.8484 16.0201 15.8204 16.0192C15.7924 16.0183 15.7647 16.0258 15.741 16.0408C15.3479 16.2904 14.9734 16.5686 14.6206 16.8733C14.2237 17.2163 13.8516 17.5873 13.507 17.9836C13.4527 18.0453 13.3763 18.0828 13.2947 18.0879C13.213 18.093 13.1327 18.0653 13.0712 18.0108C13.0098 17.9563 12.9722 17.8795 12.9668 17.7972C12.9613 17.7149 12.9884 17.6337 13.0422 17.5715C13.5934 16.9407 14.2053 16.3666 14.869 15.8577C15.5491 15.3376 16.2765 14.8836 17.0416 14.5018C17.1206 14.4623 17.2118 14.455 17.296 14.4814C17.3803 14.5079 17.4512 14.566 17.494 14.6439C17.5375 14.7233 17.5483 14.8168 17.5243 14.9042C17.5002 14.9917 17.4431 15.0661 17.3653 15.1116C17.1822 15.2196 17.0219 15.3626 16.8934 15.5327C16.7018 15.7763 16.5977 16.0782 16.598 16.3891C16.5962 16.49 16.6167 16.59 16.6579 16.6819C16.6991 16.7738 16.76 16.8554 16.8363 16.9206C16.9918 17.0616 17.1946 17.1378 17.4037 17.1339H18.7398C18.795 17.1339 18.8479 17.1118 18.887 17.0724C18.926 17.033 18.948 16.9796 18.948 16.924V14.4054C18.948 14.3246 18.9798 14.2471 19.0365 14.19C19.0931 14.1328 19.17 14.1007 19.2501 14.1007C19.3302 14.1007 19.4071 14.1328 19.4637 14.19C19.5204 14.2471 19.5522 14.3246 19.5522 14.4054L19.5522 18.8063Z" fill="url(#paint8_linear_2674_18125)"/>
<defs>
<linearGradient id="paint0_linear_2674_18125" x1="-6.05846e-07" y1="20" x2="68.395" y2="58.484" gradientUnits="userSpaceOnUse">
<stop stop-color="#08A4ED"/>
<stop offset="0.759615" stop-color="#8C40C1"/>
</linearGradient>
<linearGradient id="paint1_linear_2674_18125" x1="-6.05846e-07" y1="20" x2="68.395" y2="58.484" gradientUnits="userSpaceOnUse">
<stop stop-color="#08A4ED"/>
<stop offset="0.759615" stop-color="#8C40C1"/>
</linearGradient>
<linearGradient id="paint2_linear_2674_18125" x1="-6.05846e-07" y1="20" x2="68.395" y2="58.484" gradientUnits="userSpaceOnUse">
<stop stop-color="#08A4ED"/>
<stop offset="0.759615" stop-color="#8C40C1"/>
</linearGradient>
<linearGradient id="paint3_linear_2674_18125" x1="-6.05846e-07" y1="20" x2="68.395" y2="58.484" gradientUnits="userSpaceOnUse">
<stop stop-color="#08A4ED"/>
<stop offset="0.759615" stop-color="#8C40C1"/>
</linearGradient>
<linearGradient id="paint4_linear_2674_18125" x1="-6.05846e-07" y1="20" x2="68.395" y2="58.484" gradientUnits="userSpaceOnUse">
<stop stop-color="#08A4ED"/>
<stop offset="0.759615" stop-color="#8C40C1"/>
</linearGradient>
<linearGradient id="paint5_linear_2674_18125" x1="-6.05846e-07" y1="20" x2="68.395" y2="58.484" gradientUnits="userSpaceOnUse">
<stop stop-color="#08A4ED"/>
<stop offset="0.759615" stop-color="#8C40C1"/>
</linearGradient>
<linearGradient id="paint6_linear_2674_18125" x1="-6.05846e-07" y1="20" x2="68.395" y2="58.484" gradientUnits="userSpaceOnUse">
<stop stop-color="#08A4ED"/>
<stop offset="0.759615" stop-color="#8C40C1"/>
</linearGradient>
<linearGradient id="paint7_linear_2674_18125" x1="-6.05846e-07" y1="20" x2="68.395" y2="58.484" gradientUnits="userSpaceOnUse">
<stop stop-color="#08A4ED"/>
<stop offset="0.759615" stop-color="#8C40C1"/>
</linearGradient>
<linearGradient id="paint8_linear_2674_18125" x1="-6.05846e-07" y1="20" x2="68.395" y2="58.484" gradientUnits="userSpaceOnUse">
<stop stop-color="#08A4ED"/>
<stop offset="0.759615" stop-color="#8C40C1"/>
</linearGradient>
</defs>
</svg>
