<svg width="31" height="32" viewBox="0 0 31 32" fill="none" xmlns="http://www.w3.org/2000/svg">
<path d="M31 7.11111V9.48148H0V7.11111C0 6.48245 0.251235 5.87954 0.698438 5.43501C1.14564 4.99048 1.75218 4.74074 2.38462 4.74074H5.96154V1.18519C5.96154 0.870855 6.08716 0.569398 6.31076 0.347133C6.53436 0.124867 6.83763 0 7.15385 0C7.47007 0 7.77333 0.124867 7.99693 0.347133C8.22054 0.569398 8.34615 0.870855 8.34615 1.18519V4.74074H22.6538V1.18519C22.6538 0.870855 22.7795 0.569398 23.0031 0.347133C23.2267 0.124867 23.5299 0 23.8462 0C24.1624 0 24.4656 0.124867 24.6892 0.347133C24.9128 0.569398 25.0385 0.870855 25.0385 1.18519V4.74074H28.6154C29.2478 4.74074 29.8544 4.99048 30.3016 5.43501C30.7488 5.87954 31 6.48245 31 7.11111ZM0 11.8519H31V29.6296C31 30.2583 30.7488 30.8612 30.3016 31.3057C29.8544 31.7503 29.2478 32 28.6154 32H2.38462C1.75218 32 1.14564 31.7503 0.698438 31.3057C0.251235 30.8612 0 30.2583 0 29.6296V11.8519ZM8.76346 20.3259L11.1481 22.6015C11.2608 22.7053 11.3451 22.8359 11.3931 22.9811C11.4411 23.1262 11.4511 23.2811 11.4223 23.4311L10.8738 26.6548C10.8448 26.8288 10.8651 27.0073 10.9325 27.1704C10.9999 27.3336 11.1117 27.4748 11.2554 27.5782C11.399 27.6816 11.5689 27.7431 11.7458 27.7559C11.9227 27.7687 12.0997 27.7321 12.2569 27.6504L15.1542 26.1333C15.2928 26.0636 15.446 26.0272 15.6013 26.0272C15.7567 26.0272 15.9099 26.0636 16.0485 26.1333L18.9458 27.6504C19.1007 27.7168 19.2706 27.7412 19.4381 27.7211C19.6056 27.701 19.7648 27.6371 19.8993 27.5359C20.0339 27.4347 20.139 27.2998 20.204 27.145C20.269 26.9902 20.2915 26.8211 20.2692 26.6548L19.7208 23.4311C19.692 23.2811 19.702 23.1262 19.75 22.9811C19.7979 22.8359 19.8823 22.7053 19.995 22.6015L22.3796 20.3259C22.5045 20.2011 22.5925 20.0445 22.6339 19.8734C22.6753 19.7022 22.6685 19.523 22.6144 19.3554C22.5602 19.1878 22.4607 19.0382 22.3268 18.923C22.1929 18.8078 22.0297 18.7314 21.855 18.7022L18.6 18.24C18.4528 18.2234 18.3116 18.1731 18.1874 18.0928C18.0632 18.0126 17.9596 17.9047 17.8846 17.7778L16.43 14.8504C16.3507 14.6932 16.2289 14.5611 16.0784 14.4688C15.9278 14.3764 15.7544 14.3275 15.5775 14.3275C15.4006 14.3275 15.2272 14.3764 15.0766 14.4688C14.9261 14.5611 14.8043 14.6932 14.725 14.8504L13.2585 17.7778C13.1906 17.9158 13.0901 18.0354 12.9655 18.1262C12.8409 18.2171 12.6959 18.2764 12.5431 18.2993L9.3 18.7615C9.13567 18.7955 8.9831 18.8715 8.85732 18.982C8.73155 19.0925 8.63692 19.2336 8.58276 19.3916C8.52859 19.5495 8.51677 19.7187 8.54846 19.8826C8.58015 20.0464 8.65425 20.1992 8.76346 20.3259Z" fill="black"/>
<path d="M31 7.11111V9.48148H0V7.11111C0 6.48245 0.251235 5.87954 0.698438 5.43501C1.14564 4.99048 1.75218 4.74074 2.38462 4.74074H5.96154V1.18519C5.96154 0.870855 6.08716 0.569398 6.31076 0.347133C6.53436 0.124867 6.83763 0 7.15385 0C7.47007 0 7.77333 0.124867 7.99693 0.347133C8.22054 0.569398 8.34615 0.870855 8.34615 1.18519V4.74074H22.6538V1.18519C22.6538 0.870855 22.7795 0.569398 23.0031 0.347133C23.2267 0.124867 23.5299 0 23.8462 0C24.1624 0 24.4656 0.124867 24.6892 0.347133C24.9128 0.569398 25.0385 0.870855 25.0385 1.18519V4.74074H28.6154C29.2478 4.74074 29.8544 4.99048 30.3016 5.43501C30.7488 5.87954 31 6.48245 31 7.11111ZM0 11.8519H31V29.6296C31 30.2583 30.7488 30.8612 30.3016 31.3057C29.8544 31.7503 29.2478 32 28.6154 32H2.38462C1.75218 32 1.14564 31.7503 0.698438 31.3057C0.251235 30.8612 0 30.2583 0 29.6296V11.8519ZM8.76346 20.3259L11.1481 22.6015C11.2608 22.7053 11.3451 22.8359 11.3931 22.9811C11.4411 23.1262 11.4511 23.2811 11.4223 23.4311L10.8738 26.6548C10.8448 26.8288 10.8651 27.0073 10.9325 27.1704C10.9999 27.3336 11.1117 27.4748 11.2554 27.5782C11.399 27.6816 11.5689 27.7431 11.7458 27.7559C11.9227 27.7687 12.0997 27.7321 12.2569 27.6504L15.1542 26.1333C15.2928 26.0636 15.446 26.0272 15.6013 26.0272C15.7567 26.0272 15.9099 26.0636 16.0485 26.1333L18.9458 27.6504C19.1007 27.7168 19.2706 27.7412 19.4381 27.7211C19.6056 27.701 19.7648 27.6371 19.8993 27.5359C20.0339 27.4347 20.139 27.2998 20.204 27.145C20.269 26.9902 20.2915 26.8211 20.2692 26.6548L19.7208 23.4311C19.692 23.2811 19.702 23.1262 19.75 22.9811C19.7979 22.8359 19.8823 22.7053 19.995 22.6015L22.3796 20.3259C22.5045 20.2011 22.5925 20.0445 22.6339 19.8734C22.6753 19.7022 22.6685 19.523 22.6144 19.3554C22.5602 19.1878 22.4607 19.0382 22.3268 18.923C22.1929 18.8078 22.0297 18.7314 21.855 18.7022L18.6 18.24C18.4528 18.2234 18.3116 18.1731 18.1874 18.0928C18.0632 18.0126 17.9596 17.9047 17.8846 17.7778L16.43 14.8504C16.3507 14.6932 16.2289 14.5611 16.0784 14.4688C15.9278 14.3764 15.7544 14.3275 15.5775 14.3275C15.4006 14.3275 15.2272 14.3764 15.0766 14.4688C14.9261 14.5611 14.8043 14.6932 14.725 14.8504L13.2585 17.7778C13.1906 17.9158 13.0901 18.0354 12.9655 18.1262C12.8409 18.2171 12.6959 18.2764 12.5431 18.2993L9.3 18.7615C9.13567 18.7955 8.9831 18.8715 8.85732 18.982C8.73155 19.0925 8.63692 19.2336 8.58276 19.3916C8.52859 19.5495 8.51677 19.7187 8.54846 19.8826C8.58015 20.0464 8.65425 20.1992 8.76346 20.3259Z" fill="url(#paint0_linear_2674_18182)"/>
<defs>
<linearGradient id="paint0_linear_2674_18182" x1="-5.07601e-07" y1="16" x2="56" y2="49" gradientUnits="userSpaceOnUse">
<stop stop-color="#08A4ED"/>
<stop offset="0.759615" stop-color="#8C40C1"/>
</linearGradient>
</defs>
</svg>
