<svg width="44" height="32" viewBox="0 0 44 32" fill="none" xmlns="http://www.w3.org/2000/svg">
<path d="M44 30C44 30.5304 43.7893 31.0391 43.4142 31.4142C43.0391 31.7893 42.5304 32 42 32H18C17.4696 32 16.9609 31.7893 16.5858 31.4142C16.2107 31.0391 16 30.5304 16 30C16 26.8174 17.2643 23.7652 19.5147 21.5147C21.7652 19.2643 24.8174 18 28 18H32C35.1826 18 38.2348 19.2643 40.4853 21.5147C42.7357 23.7652 44 26.8174 44 30ZM30 0C28.4177 0 26.871 0.469191 25.5554 1.34824C24.2398 2.22729 23.2145 3.47672 22.609 4.93853C22.0035 6.40034 21.845 8.00887 22.1537 9.56072C22.4624 11.1126 23.2243 12.538 24.3431 13.6569C25.462 14.7757 26.8874 15.5376 28.4393 15.8463C29.9911 16.155 31.5997 15.9965 33.0615 15.391C34.5233 14.7855 35.7727 13.7602 36.6518 12.4446C37.5308 11.129 38 9.58225 38 8C38 5.87827 37.1571 3.84344 35.6569 2.34315C34.1566 0.842854 32.1217 0 30 0ZM12 0C10.4177 0 8.87103 0.469191 7.55544 1.34824C6.23984 2.22729 5.21447 3.47672 4.60896 4.93853C4.00346 6.40034 3.84504 8.00887 4.15372 9.56072C4.4624 11.1126 5.22433 12.538 6.34315 13.6569C7.46197 14.7757 8.88743 15.5376 10.4393 15.8463C11.9911 16.155 13.5997 15.9965 15.0615 15.391C16.5233 14.7855 17.7727 13.7602 18.6518 12.4446C19.5308 11.129 20 9.58225 20 8C20 5.87827 19.1571 3.84344 17.6569 2.34315C16.1566 0.842854 14.1217 0 12 0ZM12 30C11.997 27.8992 12.4109 25.8187 13.2177 23.879C14.0245 21.9393 15.2081 20.179 16.7 18.7C15.4791 18.239 14.1851 18.0019 12.88 18H11.12C8.17242 18.0053 5.34707 19.1786 3.26281 21.2628C1.17855 23.3471 0.00528716 26.1724 0 29.12V30C0 30.5304 0.210714 31.0391 0.585786 31.4142C0.960859 31.7893 1.46957 32 2 32H12.36C12.1272 31.3587 12.0054 30.6823 12 30Z" fill="black"/>
<path d="M44 30C44 30.5304 43.7893 31.0391 43.4142 31.4142C43.0391 31.7893 42.5304 32 42 32H18C17.4696 32 16.9609 31.7893 16.5858 31.4142C16.2107 31.0391 16 30.5304 16 30C16 26.8174 17.2643 23.7652 19.5147 21.5147C21.7652 19.2643 24.8174 18 28 18H32C35.1826 18 38.2348 19.2643 40.4853 21.5147C42.7357 23.7652 44 26.8174 44 30ZM30 0C28.4177 0 26.871 0.469191 25.5554 1.34824C24.2398 2.22729 23.2145 3.47672 22.609 4.93853C22.0035 6.40034 21.845 8.00887 22.1537 9.56072C22.4624 11.1126 23.2243 12.538 24.3431 13.6569C25.462 14.7757 26.8874 15.5376 28.4393 15.8463C29.9911 16.155 31.5997 15.9965 33.0615 15.391C34.5233 14.7855 35.7727 13.7602 36.6518 12.4446C37.5308 11.129 38 9.58225 38 8C38 5.87827 37.1571 3.84344 35.6569 2.34315C34.1566 0.842854 32.1217 0 30 0ZM12 0C10.4177 0 8.87103 0.469191 7.55544 1.34824C6.23984 2.22729 5.21447 3.47672 4.60896 4.93853C4.00346 6.40034 3.84504 8.00887 4.15372 9.56072C4.4624 11.1126 5.22433 12.538 6.34315 13.6569C7.46197 14.7757 8.88743 15.5376 10.4393 15.8463C11.9911 16.155 13.5997 15.9965 15.0615 15.391C16.5233 14.7855 17.7727 13.7602 18.6518 12.4446C19.5308 11.129 20 9.58225 20 8C20 5.87827 19.1571 3.84344 17.6569 2.34315C16.1566 0.842854 14.1217 0 12 0ZM12 30C11.997 27.8992 12.4109 25.8187 13.2177 23.879C14.0245 21.9393 15.2081 20.179 16.7 18.7C15.4791 18.239 14.1851 18.0019 12.88 18H11.12C8.17242 18.0053 5.34707 19.1786 3.26281 21.2628C1.17855 23.3471 0.00528716 26.1724 0 29.12V30C0 30.5304 0.210714 31.0391 0.585786 31.4142C0.960859 31.7893 1.46957 32 2 32H12.36C12.1272 31.3587 12.0054 30.6823 12 30Z" fill="url(#paint0_linear_2674_18200)"/>
<defs>
<linearGradient id="paint0_linear_2674_18200" x1="-7.20466e-07" y1="16" x2="63.0071" y2="68.6995" gradientUnits="userSpaceOnUse">
<stop stop-color="#08A4ED"/>
<stop offset="0.759615" stop-color="#8C40C1"/>
</linearGradient>
</defs>
</svg>
