<svg width="53" height="40" viewBox="0 0 53 40" fill="none" xmlns="http://www.w3.org/2000/svg">
<path d="M15.1429 5.89524L21.1905 9.87619V21.9048H9.09517V9.87619L15.1429 5.89524Z" fill="black"/>
<path d="M15.1429 5.89524L21.1905 9.87619V21.9048H9.09517V9.87619L15.1429 5.89524Z" fill="url(#paint0_linear_2674_18140)"/>
<path d="M27.4464 0H3.78571C1.69409 0 0 1.70474 0 3.80952V30.4762C0 32.5809 1.69409 34.2857 3.78571 34.2857H6.625C6.625 30.0857 10.0227 26.6667 14.1964 26.6667C18.3702 26.6667 21.7679 30.0857 21.7679 34.2857H31.2321V3.80952C31.2321 1.70474 29.5381 0 27.4464 0ZM24.929 11.1905C24.7491 11.4762 24.4463 11.6285 24.1339 11.6285C23.9541 11.6285 23.7743 11.5714 23.6134 11.4666L23.0834 11.1238V22.8571C23.0834 23.3809 22.6575 23.8095 22.137 23.8095H8.14873C7.6282 23.8095 7.2023 23.3809 7.2023 22.8571V11.1238L6.6723 11.4666C6.22751 11.7619 5.64072 11.6381 5.35676 11.1905C5.07284 10.7524 5.19588 10.1619 5.63126 9.87619L15.5688 3.96189C15.8905 3.76192 16.2881 3.76192 16.6098 3.96189L24.6545 9.87619C25.0898 10.1619 25.2129 10.7524 24.929 11.1905Z" fill="black"/>
<path d="M27.4464 0H3.78571C1.69409 0 0 1.70474 0 3.80952V30.4762C0 32.5809 1.69409 34.2857 3.78571 34.2857H6.625C6.625 30.0857 10.0227 26.6667 14.1964 26.6667C18.3702 26.6667 21.7679 30.0857 21.7679 34.2857H31.2321V3.80952C31.2321 1.70474 29.5381 0 27.4464 0ZM24.929 11.1905C24.7491 11.4762 24.4463 11.6285 24.1339 11.6285C23.9541 11.6285 23.7743 11.5714 23.6134 11.4666L23.0834 11.1238V22.8571C23.0834 23.3809 22.6575 23.8095 22.137 23.8095H8.14873C7.6282 23.8095 7.2023 23.3809 7.2023 22.8571V11.1238L6.6723 11.4666C6.22751 11.7619 5.64072 11.6381 5.35676 11.1905C5.07284 10.7524 5.19588 10.1619 5.63126 9.87619L15.5688 3.96189C15.8905 3.76192 16.2881 3.76192 16.6098 3.96189L24.6545 9.87619C25.0898 10.1619 25.2129 10.7524 24.929 11.1905Z" fill="url(#paint1_linear_2674_18140)"/>
<path d="M53 18.3238V20H39.75C39.2295 20 38.8036 19.5714 38.8036 19.0476V8.57143H43.3086C44.3023 8.57143 45.2772 8.98094 45.987 9.68569L51.8927 15.6285C52.593 16.3428 53 17.3238 53 18.3238Z" fill="black"/>
<path d="M53 18.3238V20H39.75C39.2295 20 38.8036 19.5714 38.8036 19.0476V8.57143H43.3086C44.3023 8.57143 45.2772 8.98094 45.987 9.68569L51.8927 15.6285C52.593 16.3428 53 17.3238 53 18.3238Z" fill="url(#paint2_linear_2674_18140)"/>
<path d="M53 21.9048V30.4762C53 32.2476 51.798 33.7428 50.1607 34.1619C50.0945 30.019 46.7252 26.6667 42.5893 26.6667C38.4156 26.6667 35.0179 30.0857 35.0179 34.2857H33.125V8.57143H36.9107V19.0476C36.9107 20.619 38.1884 21.9048 39.75 21.9048H53Z" fill="black"/>
<path d="M53 21.9048V30.4762C53 32.2476 51.798 33.7428 50.1607 34.1619C50.0945 30.019 46.7252 26.6667 42.5893 26.6667C38.4156 26.6667 35.0179 30.0857 35.0179 34.2857H33.125V8.57143H36.9107V19.0476C36.9107 20.619 38.1884 21.9048 39.75 21.9048H53Z" fill="url(#paint3_linear_2674_18140)"/>
<path d="M42.5893 40C45.7255 40 48.2679 37.4416 48.2679 34.2857C48.2679 31.1298 45.7255 28.5714 42.5893 28.5714C39.4531 28.5714 36.9107 31.1298 36.9107 34.2857C36.9107 37.4416 39.4531 40 42.5893 40Z" fill="black"/>
<path d="M42.5893 40C45.7255 40 48.2679 37.4416 48.2679 34.2857C48.2679 31.1298 45.7255 28.5714 42.5893 28.5714C39.4531 28.5714 36.9107 31.1298 36.9107 34.2857C36.9107 37.4416 39.4531 40 42.5893 40Z" fill="url(#paint4_linear_2674_18140)"/>
<path d="M14.1964 40C17.3326 40 19.875 37.4416 19.875 34.2857C19.875 31.1298 17.3326 28.5714 14.1964 28.5714C11.0602 28.5714 8.51786 31.1298 8.51786 34.2857C8.51786 37.4416 11.0602 40 14.1964 40Z" fill="black"/>
<path d="M14.1964 40C17.3326 40 19.875 37.4416 19.875 34.2857C19.875 31.1298 17.3326 28.5714 14.1964 28.5714C11.0602 28.5714 8.51786 31.1298 8.51786 34.2857C8.51786 37.4416 11.0602 40 14.1964 40Z" fill="url(#paint5_linear_2674_18140)"/>
<defs>
<linearGradient id="paint0_linear_2674_18140" x1="-8.67834e-07" y1="20" x2="78.1931" y2="83.023" gradientUnits="userSpaceOnUse">
<stop stop-color="#08A4ED"/>
<stop offset="0.759615" stop-color="#8C40C1"/>
</linearGradient>
<linearGradient id="paint1_linear_2674_18140" x1="-8.67834e-07" y1="20" x2="78.1931" y2="83.023" gradientUnits="userSpaceOnUse">
<stop stop-color="#08A4ED"/>
<stop offset="0.759615" stop-color="#8C40C1"/>
</linearGradient>
<linearGradient id="paint2_linear_2674_18140" x1="-8.67834e-07" y1="20" x2="78.1931" y2="83.023" gradientUnits="userSpaceOnUse">
<stop stop-color="#08A4ED"/>
<stop offset="0.759615" stop-color="#8C40C1"/>
</linearGradient>
<linearGradient id="paint3_linear_2674_18140" x1="-8.67834e-07" y1="20" x2="78.1931" y2="83.023" gradientUnits="userSpaceOnUse">
<stop stop-color="#08A4ED"/>
<stop offset="0.759615" stop-color="#8C40C1"/>
</linearGradient>
<linearGradient id="paint4_linear_2674_18140" x1="-8.67834e-07" y1="20" x2="78.1931" y2="83.023" gradientUnits="userSpaceOnUse">
<stop stop-color="#08A4ED"/>
<stop offset="0.759615" stop-color="#8C40C1"/>
</linearGradient>
<linearGradient id="paint5_linear_2674_18140" x1="-8.67834e-07" y1="20" x2="78.1931" y2="83.023" gradientUnits="userSpaceOnUse">
<stop stop-color="#08A4ED"/>
<stop offset="0.759615" stop-color="#8C40C1"/>
</linearGradient>
</defs>
</svg>
