<svg width="48" height="40" viewBox="0 0 48 40" fill="none" xmlns="http://www.w3.org/2000/svg">
<path d="M48 13.4004V22.0803C48 22.977 47.28 23.6877 46.3714 23.6877H39.2229C36.1714 23.6877 33.72 21.2681 33.72 18.2564V17.2243C33.72 14.2126 36.1714 11.7931 39.2229 11.7931H46.3714C47.28 11.7931 48 12.5037 48 13.4004Z" fill="black"/>
<path d="M48 13.4004V22.0803C48 22.977 47.28 23.6877 46.3714 23.6877H39.2229C36.1714 23.6877 33.72 21.2681 33.72 18.2564V17.2243C33.72 14.2126 36.1714 11.7931 39.2229 11.7931H46.3714C47.28 11.7931 48 12.5037 48 13.4004Z" fill="url(#paint0_linear_2674_18135)"/>
<path d="M18.2914 24.7028C18.2914 25.9515 16.5771 27.0462 13.9954 27.6486C12.5914 27.9887 10.9251 28.1849 9.14057 28.1849C7.368 28.1849 5.70171 27.9887 4.29771 27.6486C1.71429 27.0462 0 25.9515 0 24.7028C0 22.7757 4.09371 21.2089 9.14057 21.2089C14.1977 21.2106 18.2914 22.7757 18.2914 24.7028Z" fill="black"/>
<path d="M18.2914 24.7028C18.2914 25.9515 16.5771 27.0462 13.9954 27.6486C12.5914 27.9887 10.9251 28.1849 9.14057 28.1849C7.368 28.1849 5.70171 27.9887 4.29771 27.6486C1.71429 27.0462 0 25.9515 0 24.7028C0 22.7757 4.09371 21.2089 9.14057 21.2089C14.1977 21.2106 18.2914 22.7757 18.2914 24.7028Z" fill="url(#paint1_linear_2674_18135)"/>
<path d="M14.5886 30.1189C12.9531 30.5114 11.0623 30.7229 9.13886 30.7229C7.22571 30.7229 5.33829 30.5114 3.684 30.1138C2.07943 29.7399 0.893143 29.234 0 28.679V30.6045C0 31.8531 1.70229 32.9377 4.272 33.5502C5.676 33.9004 7.35429 34.0984 9.13886 34.0984C10.9354 34.0984 12.6017 33.9004 14.0177 33.5502C16.5891 32.9377 18.2897 31.8531 18.2897 30.6045V28.6756C17.3949 29.234 16.2017 29.7416 14.5886 30.1189Z" fill="black"/>
<path d="M14.5886 30.1189C12.9531 30.5114 11.0623 30.7229 9.13886 30.7229C7.22571 30.7229 5.33829 30.5114 3.684 30.1138C2.07943 29.7399 0.893143 29.234 0 28.679V30.6045C0 31.8531 1.70229 32.9377 4.272 33.5502C5.676 33.9004 7.35429 34.0984 9.13886 34.0984C10.9354 34.0984 12.6017 33.9004 14.0177 33.5502C16.5891 32.9377 18.2897 31.8531 18.2897 30.6045V28.6756C17.3949 29.234 16.2017 29.7416 14.5886 30.1189Z" fill="url(#paint2_linear_2674_18135)"/>
<path d="M14.6229 36.0188C12.996 36.4215 11.0914 36.6364 9.13886 36.6364C7.17943 36.6364 5.28 36.4198 3.64286 36.012C2.06571 35.6364 0.888 35.1423 0 34.5958V36.5078C0 37.7564 1.70229 38.841 4.272 39.4636C5.676 39.8037 7.35429 40 9.13886 40C10.9354 40 12.6017 39.802 14.0177 39.4636C16.5891 38.8393 18.2897 37.7547 18.2897 36.5078V34.5941C17.3983 35.1423 16.2137 35.6398 14.6229 36.0188Z" fill="black"/>
<path d="M14.6229 36.0188C12.996 36.4215 11.0914 36.6364 9.13886 36.6364C7.17943 36.6364 5.28 36.4198 3.64286 36.012C2.06571 35.6364 0.888 35.1423 0 34.5958V36.5078C0 37.7564 1.70229 38.841 4.272 39.4636C5.676 39.8037 7.35429 40 9.13886 40C10.9354 40 12.6017 39.802 14.0177 39.4636C16.5891 38.8393 18.2897 37.7547 18.2897 36.5078V34.5941C17.3983 35.1423 16.2137 35.6398 14.6229 36.0188Z" fill="url(#paint3_linear_2674_18135)"/>
<path d="M39.2229 9.25511H45.9257V6.07419C45.9257 2.72408 43.1657 0 39.7714 0H9.68571C6.29143 0 3.53143 2.72408 3.53143 6.07419V19.3122C5.26286 18.8841 7.20171 18.6726 9.13886 18.6726C14.6863 18.6726 20.3211 20.3291 20.8629 24.0717V35.4977H39.7714C43.1657 35.4977 45.9257 32.7736 45.9257 29.4235V26.2256H39.2229C34.7709 26.2256 31.1486 22.6505 31.1486 18.2564V17.2243C31.1486 12.8319 34.7709 9.25511 39.2229 9.25511ZM20.7326 9.44799H11.892C11.04 9.44799 10.3491 8.76613 10.3491 7.92522C10.3491 7.0843 11.04 6.40244 11.892 6.40244H20.7309C21.5829 6.40244 22.2737 7.0843 22.2737 7.92522C22.2737 8.76613 21.5846 9.44799 20.7326 9.44799Z" fill="black"/>
<path d="M39.2229 9.25511H45.9257V6.07419C45.9257 2.72408 43.1657 0 39.7714 0H9.68571C6.29143 0 3.53143 2.72408 3.53143 6.07419V19.3122C5.26286 18.8841 7.20171 18.6726 9.13886 18.6726C14.6863 18.6726 20.3211 20.3291 20.8629 24.0717V35.4977H39.7714C43.1657 35.4977 45.9257 32.7736 45.9257 29.4235V26.2256H39.2229C34.7709 26.2256 31.1486 22.6505 31.1486 18.2564V17.2243C31.1486 12.8319 34.7709 9.25511 39.2229 9.25511ZM20.7326 9.44799H11.892C11.04 9.44799 10.3491 8.76613 10.3491 7.92522C10.3491 7.0843 11.04 6.40244 11.892 6.40244H20.7309C21.5829 6.40244 22.2737 7.0843 22.2737 7.92522C22.2737 8.76613 21.5846 9.44799 20.7326 9.44799Z" fill="url(#paint4_linear_2674_18135)"/>
<defs>
<linearGradient id="paint0_linear_2674_18135" x1="-7.85963e-07" y1="20" x2="76.212" y2="75.6313" gradientUnits="userSpaceOnUse">
<stop stop-color="#08A4ED"/>
<stop offset="0.759615" stop-color="#8C40C1"/>
</linearGradient>
<linearGradient id="paint1_linear_2674_18135" x1="-7.85963e-07" y1="20" x2="76.212" y2="75.6313" gradientUnits="userSpaceOnUse">
<stop stop-color="#08A4ED"/>
<stop offset="0.759615" stop-color="#8C40C1"/>
</linearGradient>
<linearGradient id="paint2_linear_2674_18135" x1="-7.85963e-07" y1="20" x2="76.212" y2="75.6313" gradientUnits="userSpaceOnUse">
<stop stop-color="#08A4ED"/>
<stop offset="0.759615" stop-color="#8C40C1"/>
</linearGradient>
<linearGradient id="paint3_linear_2674_18135" x1="-7.85963e-07" y1="20" x2="76.212" y2="75.6313" gradientUnits="userSpaceOnUse">
<stop stop-color="#08A4ED"/>
<stop offset="0.759615" stop-color="#8C40C1"/>
</linearGradient>
<linearGradient id="paint4_linear_2674_18135" x1="-7.85963e-07" y1="20" x2="76.212" y2="75.6313" gradientUnits="userSpaceOnUse">
<stop stop-color="#08A4ED"/>
<stop offset="0.759615" stop-color="#8C40C1"/>
</linearGradient>
</defs>
</svg>
