<svg width="40" height="40" viewBox="0 0 40 40" fill="none" xmlns="http://www.w3.org/2000/svg">
<path d="M7.72853 38.3148C11.2143 39.4287 15.6 40 20 40C24.5285 40 29.0429 39.4002 32.5714 38.2291C34.2143 37.6723 35.3142 36.1299 35.3142 34.3734V17.1081C35.3142 15.4087 34.2857 13.9093 32.7285 13.3237L21.4286 24.6198V29.0896C21.4286 29.875 20.7857 30.5177 20 30.5177C19.2143 30.5177 18.5714 29.875 18.5714 29.0896V27.4759L7.72853 38.3148Z" fill="black"/>
<path d="M7.72853 38.3148C11.2143 39.4287 15.6 40 20 40C24.5285 40 29.0429 39.4002 32.5714 38.2291C34.2143 37.6723 35.3142 36.1299 35.3142 34.3734V17.1081C35.3142 15.4087 34.2857 13.9093 32.7285 13.3237L21.4286 24.6198V29.0896C21.4286 29.875 20.7857 30.5177 20 30.5177C19.2143 30.5177 18.5714 29.875 18.5714 29.0896V27.4759L7.72853 38.3148Z" fill="url(#paint0_linear_2674_18130)"/>
<path d="M37.5614 0.418377L28.2 9.77643V8.19706C28.2 7.45444 28.1 6.72611 27.9 6.04067C26.9714 2.5562 23.7857 0 20 0C15.4715 0 11.8 3.67013 11.8 8.19706V12.167C10.2285 12.4526 8.75715 12.8097 7.42859 13.2524C5.7857 13.8093 4.68576 15.3517 4.68576 17.1081V33.2823L0.418527 37.548C-0.139509 38.1058 -0.139509 39.0102 0.418527 39.5673C0.697545 39.8462 1.06306 39.9857 1.42857 39.9857C1.79408 39.9857 2.1596 39.8462 2.43862 39.5673L39.5815 2.43774C40.1395 1.87991 40.1395 0.976213 39.5815 0.418377C39.0234 -0.139459 38.1194 -0.139459 37.5614 0.418377ZM25.3428 11.7672C24.3714 11.6672 23.3857 11.5816 22.4 11.5387C19.8143 11.4245 17.1715 11.4959 14.6572 11.7672V8.19706C14.6572 5.25525 17.0571 2.85612 20 2.85612C22.9429 2.85612 25.3428 5.25525 25.3428 8.19706V11.7672Z" fill="black"/>
<path d="M37.5614 0.418377L28.2 9.77643V8.19706C28.2 7.45444 28.1 6.72611 27.9 6.04067C26.9714 2.5562 23.7857 0 20 0C15.4715 0 11.8 3.67013 11.8 8.19706V12.167C10.2285 12.4526 8.75715 12.8097 7.42859 13.2524C5.7857 13.8093 4.68576 15.3517 4.68576 17.1081V33.2823L0.418527 37.548C-0.139509 38.1058 -0.139509 39.0102 0.418527 39.5673C0.697545 39.8462 1.06306 39.9857 1.42857 39.9857C1.79408 39.9857 2.1596 39.8462 2.43862 39.5673L39.5815 2.43774C40.1395 1.87991 40.1395 0.976213 39.5815 0.418377C39.0234 -0.139459 38.1194 -0.139459 37.5614 0.418377ZM25.3428 11.7672C24.3714 11.6672 23.3857 11.5816 22.4 11.5387C19.8143 11.4245 17.1715 11.4959 14.6572 11.7672V8.19706C14.6572 5.25525 17.0571 2.85612 20 2.85612C22.9429 2.85612 25.3428 5.25525 25.3428 8.19706V11.7672Z" fill="url(#paint1_linear_2674_18130)"/>
<defs>
<linearGradient id="paint0_linear_2674_18130" x1="-6.54969e-07" y1="20" x2="71.0574" y2="63.2238" gradientUnits="userSpaceOnUse">
<stop stop-color="#08A4ED"/>
<stop offset="0.759615" stop-color="#8C40C1"/>
</linearGradient>
<linearGradient id="paint1_linear_2674_18130" x1="-6.54969e-07" y1="20" x2="71.0574" y2="63.2238" gradientUnits="userSpaceOnUse">
<stop stop-color="#08A4ED"/>
<stop offset="0.759615" stop-color="#8C40C1"/>
</linearGradient>
</defs>
</svg>
